SplineFontDB: 3.0
FontName: boon-500
FullName: Boon Medium
FamilyName: Boon
Weight: 500
Copyright: Copyright (C) 2013 Sungsit Sawaiwan <http://sungsit.com/> \n\nThis font is free software: you can redistribute it and/or modify it under the terms of the GNU General Public License as published by the Free Software Foundation, either version 3 of the License, or (at your option) any later version. \n\nThis font is distributed in the hope that it will be useful, but WITHOUT ANY WARRANTY; without even the implied warranty of MERCHANTABILITY or FITNESS FOR A PARTICULAR PURPOSE. See the GNU General Public License for more details. \n\nYou should have received a copy of the GNU General Public License along with this program. If not, see <http://www.gnu.org/licenses/>. \n\nAs a special exception, if you create a document which uses this font, and embed this font or unaltered portions of this font into the document, this font does not by itself cause the resulting document to be covered by the GNU General Public License. This exception does not however invalidate any other reasons why the document might be covered by the GNU General Public License. If you modify this font, you may extend this exception to your version of the font, but you are not obligated to do so. If you do not wish to do so, delete this exception statement from your version.
UComments: "Created with FontForge 2.0 <http://fontforge.org/>" 

StartChar: uni0E04
Encoding: 3588 3588 0
Width: 670
VWidth: 0
Flags: W
HStem: 0 21G<470 590> 230 45<291.325 367.842> 365 45<292.289 367.842> 525 95<233.246 426.754>
VStem: 70 120<288.696 482.254> 80 140<16.6331 137.15> 100 120<1.52344 281.878> 375 45<282.158 357.842> 470 120<0 481.851>
LayerCount: 2
Fore
SplineSet
330 410 m 0xf980
 380 410 420 370 420 320 c 0
 420 270 380 230 330 230 c 0
 293 230 261 252 247 284 c 1
 227 239 220 177 220 120 c 2xf580
 220 -10 l 1xf380
 220 -10 81 -6 80 30 c 1xf580
 80 30 100 79 100 140 c 0xf380
 100 242 70 265 70 400 c 0
 70 537 184 620 330 620 c 0
 476 620 590 537 590 400 c 2
 590 0 l 1
 470 0 l 1
 470 400 l 2
 470 482 421 525 330 525 c 0
 239 525 190 482 190 400 c 0
 190 352 194 317 199 287 c 1
 222 355 265 410 330 410 c 0xf980
330 365 m 0
 305 365 285 345 285 320 c 0
 285 295 305 275 330 275 c 0
 355 275 375 295 375 320 c 0
 375 345 355 365 330 365 c 0
EndSplineSet
EndChar

StartChar: uni0E05
Encoding: 3589 3589 2
Width: 670
VWidth: 0
Flags: W
HStem: 0 21G<470 590> 230 45<291.325 367.842> 365 45<291.242 367.842> 600 20G<210.5 267.692 392.308 449.5>
VStem: 70 120<291.822 504.181> 80 140<16.6331 137.15> 100 120<1.52344 281.878> 375 45<282.158 357.842> 470 120<0 504.167>
LayerCount: 2
Fore
SplineSet
330 410 m 0xf980
 380 410 420 370 420 320 c 0
 420 270 380 230 330 230 c 0
 293 230 261 252 247 284 c 1
 227 239 220 177 220 120 c 2xf580
 220 -10 l 1xf380
 220 -10 81 -6 80 30 c 1xf580
 80 30 100 79 100 140 c 0xf380
 100 242 70 275 70 410 c 0
 70 544 181 620 240 620 c 1
 330 555 l 1
 420 620 l 1
 479 620 590 544 590 410 c 2
 590 0 l 1
 470 0 l 1
 470 410 l 2
 470 495 425 525 425 525 c 1
 330 460 l 1
 235 525 l 1
 235 525 190 495 190 410 c 0
 190 360 194 322 200 290 c 1
 223 356 266 410 330 410 c 0xf980
330 365 m 0
 305 365 285 345 285 320 c 0
 285 295 305 275 330 275 c 0
 355 275 375 295 375 320 c 0
 375 345 355 365 330 365 c 0
EndSplineSet
EndChar

StartChar: uni0E14
Encoding: 3604 3604 3
Width: 670
VWidth: 0
Flags: W
HStem: 0 21G<470 590> 230 45<292.835 330> 365 45<292.158 367.842> 525 95<233.246 426.754>
VStem: 70 120<198.251 482.254> 100 120<130 321.965> 240 45<282.158 357.842> 375 45<284.025 357.842> 470 120<0 481.851>
LayerCount: 2
Fore
SplineSet
330 410 m 0xf780
 380 410 420 370 420 320 c 0
 420 171 220 107 220 -10 c 1
 220 -10 81 -6 80 30 c 1
 80 30 100 79 100 140 c 0xf780
 100 242 70 265 70 400 c 0
 70 537 184 620 330 620 c 0
 476 620 590 537 590 400 c 2
 590 0 l 1
 470 0 l 1
 470 400 l 2
 470 482 421 525 330 525 c 0
 239 525 190 482 190 400 c 0xfb80
 190 269 220 237 220 130 c 1
 255 166 299 194 330 230 c 1
 280 230 240 270 240 320 c 0
 240 370 280 410 330 410 c 0xf780
330 365 m 0
 305 365 285 345 285 320 c 0
 285 295 305 275 330 275 c 0
 355 275 375 295 375 320 c 0
 375 345 355 365 330 365 c 0
EndSplineSet
EndChar

StartChar: uni0E15
Encoding: 3605 3605 4
Width: 670
VWidth: 0
Flags: W
HStem: 0 21G<470 590> 230 45<292.835 330> 365 45<292.158 367.842> 600 20G<210.5 267.692 392.308 449.5>
VStem: 70 120<199.645 504.181> 100 120<130 330.575> 240 45<282.158 357.842> 375 45<284.025 357.842> 470 120<0 504.167>
LayerCount: 2
Fore
SplineSet
330 410 m 0xf780
 380 410 420 370 420 320 c 0
 420 171 220 107 220 -10 c 1
 220 -10 81 -6 80 30 c 1
 80 30 100 79 100 140 c 0xf780
 100 242 70 275 70 410 c 0
 70 544 181 620 240 620 c 1
 330 555 l 1
 420 620 l 1
 479 620 590 544 590 410 c 2
 590 0 l 1
 470 0 l 1
 470 410 l 2
 470 495 425 525 425 525 c 1
 330 460 l 1
 235 525 l 1
 235 525 190 495 190 410 c 0xfb80
 190 279 220 237 220 130 c 1
 255 166 299 194 330 230 c 1
 280 230 240 270 240 320 c 0
 240 370 280 410 330 410 c 0xf780
330 365 m 0
 305 365 285 345 285 320 c 0
 285 295 305 275 330 275 c 0
 355 275 375 295 375 320 c 0
 375 345 355 365 330 365 c 0
EndSplineSet
EndChar

StartChar: uni0E01
Encoding: 3585 3585 5
Width: 670
VWidth: 0
Flags: W
HStem: 0 21G<120 240 470 590> 390 20<289.299 320> 525 95<242.194 427.364>
VStem: 120 120<0 361.244> 470 120<0 481.05>
LayerCount: 2
Fore
SplineSet
240 0 m 1
 120 0 l 1
 120 280 l 2
 120 344 149 377 174 394 c 1
 70 420 l 1
 78 474 164 620 340 620 c 0
 481 620 590 535 590 400 c 2
 590 0 l 1
 470 0 l 1
 470 400 l 2
 470 482 418 525 340 525 c 0
 267 525 211 493 189 439 c 1
 320 410 l 1
 320 390 l 1
 320 390 240 386 240 280 c 2
 240 0 l 1
EndSplineSet
EndChar

StartChar: uni0E16
Encoding: 3606 3606 6
Width: 670
VWidth: 0
Flags: W
HStem: -10 65<191.794 278.206> 0 21G<470 590> 155 65<240 277.921> 390 20<289.299 320> 525 95<242.194 427.364>
VStem: 120 120<220 361.244> 120 65<62.6316 149.043> 285 65<61.7943 148.873> 470 120<0 481.05>
LayerCount: 2
Fore
SplineSet
120 105 m 2xbb80
 120 280 l 2
 120 344 149 377 174 394 c 1
 70 420 l 1
 78 474 164 620 340 620 c 0
 481 620 590 535 590 400 c 2
 590 0 l 1
 470 0 l 1
 470 400 l 2
 470 482 418 525 340 525 c 0
 267 525 211 493 189 439 c 1
 320 410 l 1
 320 390 l 1
 320 390 240 386 240 280 c 2
 240 220 l 1x7d80
 301 217 350 167 350 105 c 0
 350 41 299 -10 235 -10 c 0
 171 -10 120 41 120 105 c 2xbb80
235 155 m 0
 207 155 185 133 185 105 c 0
 185 77 207 55 235 55 c 0xbb80
 263 55 285 77 285 105 c 0
 285 133 263 155 235 155 c 0
EndSplineSet
EndChar

StartChar: uni0E28
Encoding: 3624 3624 7
Width: 680
VWidth: 0
Flags: W
HStem: 0 21G<470 590> 230 45<291.325 367.842> 365 45<292.289 367.842> 525 95<233.246 426.767>
VStem: 70 120<288.696 482.254> 80 140<16.6331 137.15> 100 120<1.52344 281.878> 375 45<282.158 357.842> 470 120<0 482.657> 530 100<598.36 720>
LayerCount: 2
Fore
SplineSet
330 365 m 0xf1
 305 365 285 345 285 320 c 0
 285 295 305 275 330 275 c 0
 355 275 375 295 375 320 c 0
 375 345 355 365 330 365 c 0xf1
330 410 m 0
 380 410 420 370 420 320 c 0
 420 270 380 230 330 230 c 0
 293 230 261 252 247 284 c 1
 227 239 220 177 220 120 c 2xf5
 220 -10 l 1xf3
 220 -10 81 -6 80 30 c 1xf5
 80 30 100 79 100 140 c 0xf3
 100 242 70 265 70 400 c 0
 70 537 184 620 330 620 c 0
 391 620 446 606 490 579 c 1
 512 600 530 635 530 720 c 1
 630 720 l 1xf940
 630 626 592 563 551 524 c 1
 576 490 590 449 590 400 c 2
 590 0 l 1
 470 0 l 1
 470 400 l 2
 470 482 421 525 330 525 c 0
 239 525 190 482 190 400 c 0xf980
 190 352 194 317 199 287 c 1
 222 355 265 410 330 410 c 0
EndSplineSet
Substitution2: "Ascent Substitute" uni0E28.alt
EndChar

StartChar: uni0E20
Encoding: 3616 3616 8
Width: 690
VWidth: 0
Flags: W
HStem: -10 65<131.794 218.206> 0 21G<490 610> 525 95<262.194 447.364>
VStem: 60 65<61.7943 149.084> 160 120<219.282 364.798> 225 65<61.7943 148.961> 490 120<0 481.05>
LayerCount: 2
Fore
SplineSet
610 400 m 2xba
 610 0 l 1
 490 0 l 1
 490 400 l 2
 490 482 438 525 360 525 c 0
 287 525 231 493 209 439 c 1
 340 410 l 1
 340 390 l 1
 340 390 280 373 280 280 c 2
 280 240 l 2x7a
 280 194 290 180 290 105 c 0x76
 290 41 239 -10 175 -10 c 0
 111 -10 60 41 60 105 c 0
 60 164 104 212 161 219 c 1
 160 225 160 232 160 240 c 2
 160 280 l 2
 160 345 189 376 210 390 c 1
 90 420 l 1
 98 474 184 620 360 620 c 0
 501 620 610 535 610 400 c 2xba
175 155 m 0
 147 155 125 133 125 105 c 0
 125 77 147 55 175 55 c 0
 203 55 225 77 225 105 c 0xb6
 225 133 203 155 175 155 c 0
EndSplineSet
EndChar

StartChar: uni0E48
Encoding: 3656 3656 9
Width: 0
VWidth: 0
Flags: W
HStem: 990 250<-108.9 -90>
VStem: -180 90<1030 1240>
LayerCount: 2
Fore
SplineSet
-180 1240 m 1
 -90 1240 l 1
 -90 990 l 1
 -180 1030 l 1
 -180 1240 l 1
EndSplineSet
Position2: "Nikhahit & Tone High-Left" dx=-240 dy=0 dh=0 dv=0
Position2: "Mai Han-Akat & Tone High-Left" dx=-300 dy=0 dh=0 dv=0
Position2: "Tone High-Left" dx=-180 dy=0 dh=0 dv=0
MultipleSubs2: "Tone High-Low" uni0E48.low
EndChar

StartChar: uni0E34
Encoding: 3636 3636 10
Width: 0
VWidth: 0
Flags: W
HStem: 880 80<-432.696 -267.058>
AnchorPoint: "thai_above" 187.82 630 mark 0
LayerCount: 2
Fore
SplineSet
-454 826 m 1
 -372 822 -274 807 -172 764 c 1
 -213 823 -279 880 -360 880 c 0
 -408 880 -442 854 -454 826 c 1
-560 800 m 1
 -560 847 -492 960 -360 960 c 0
 -179 960 -90 783 -90 700 c 1
 -276 790 -439 800 -560 800 c 1
EndSplineSet
Substitution2: "Thai Tone & Vowel Above-Narrow" uni0E34.narrow
Position2: "Vowel Above-Left" dx=-140 dy=0 dh=0 dv=0
EndChar

StartChar: uni0E38
Encoding: 3640 3640 11
Width: 0
VWidth: 0
Flags: W
HStem: -125 55<-222.172 -147.828>
VStem: -280 55<-201.75 -127.828> -190 100<-340 -255.228> -145 55<-202.563 -128.219>
LayerCount: 2
Fore
SplineSet
-190 -260 m 1xe0
 -240 -257 -280 -216 -280 -165 c 0
 -280 -113 -237 -70 -185 -70 c 0
 -133 -70 -90 -113 -90 -165 c 2xd0
 -90 -340 l 1
 -190 -340 l 1
 -190 -260 l 1xe0
-185 -125 m 0
 -207 -125 -225 -143 -225 -165 c 0
 -225 -187 -207 -205 -185 -205 c 0
 -163 -205 -145 -187 -145 -165 c 0
 -145 -143 -163 -125 -185 -125 c 0
EndSplineSet
Position2: "Vowel Below-Low" dx=0 dy=-200 dh=0 dv=0
EndChar

StartChar: uni0E35
Encoding: 3637 3637 12
Width: 0
VWidth: 0
Flags: W
HStem: 860 80<-432.696 -266.43>
VStem: -190 100<833.546 950>
AnchorPoint: "thai_above" 187.82 630 mark 0
LayerCount: 2
Fore
SplineSet
-454 806 m 1
 -372 802 -274 787 -172 744 c 1
 -213 803 -279 860 -360 860 c 0
 -408 860 -442 834 -454 806 c 1
-190 980 m 1
 -90 950 l 1
 -90 680 l 1
 -276 770 -439 780 -560 780 c 1
 -560 827 -492 940 -360 940 c 0
 -269 940 -208 887 -169 832 c 1
 -181 865 -190 897 -190 920 c 2
 -190 980 l 1
EndSplineSet
Substitution2: "Thai Tone & Vowel Above-Narrow" uni0E35.narrow
Position2: "Vowel Above-Left" dx=-140 dy=0 dh=0 dv=0
EndChar

StartChar: uni0E48.low
Encoding: 63237 63237 13
Width: 0
VWidth: 0
Flags: W
HStem: 700 260<-200 -100>
VStem: -200 100<700 960>
AnchorPoint: "thai_above" 187.82 630 mark 0
LayerCount: 2
Fore
SplineSet
-200 960 m 1
 -100 960 l 1
 -100 700 l 1
 -200 700 l 1
 -200 960 l 1
EndSplineSet
Position2: "Tone Low-Left" dx=-220 dy=0 dh=0 dv=0
Substitution2: "Tone Low-High" uni0E48
EndChar

StartChar: uni0E49.low
Encoding: 63238 63238 14
Width: 0
VWidth: 0
Flags: W
HStem: 700 135<-375.799 -321.122> 700 70<-464.52 -376.329 -316 -220.262> 905 45<-386.797 -323.203>
VStem: -435 45<837.514 901.797> -320 45<838.375 901.797> -160 110<826.836 920>
AnchorPoint: "thai_above" 187.82 630 mark 0
LayerCount: 2
Fore
SplineSet
-355 950 m 0x7c
 -311 950 -275 914 -275 870 c 0
 -275 824 -301 787 -316 770 c 1
 -310 770 l 2
 -227 770 -160 816 -160 920 c 1
 -50 920 l 1
 -50 790 -150 700 -310 700 c 2
 -445 700 l 2
 -483 700 -490 770 -490 770 c 1
 -399 770 l 1
 -391 776 -383 783 -376 793 c 1
 -410 802 -435 833 -435 870 c 0
 -435 914 -399 950 -355 950 c 0x7c
-355 905 m 0
 -374 905 -390 889 -390 870 c 0
 -390 851 -374 835 -355 835 c 0xbc
 -336 835 -320 851 -320 870 c 0
 -320 889 -336 905 -355 905 c 0
EndSplineSet
Substitution2: "Thai Tone & Vowel Above-Narrow" uni0E49.narrow
Substitution2: "Thai Special Tone for Asc" uni0E49
Position2: "Tone Low-Left" dx=-220 dy=0 dh=0 dv=0
Substitution2: "Tone Low-High" uni0E49
EndChar

StartChar: uni0E4A.low
Encoding: 63239 63239 15
Width: 0
VWidth: 0
Flags: W
HStem: 695 45<-403.169 -345.951> 700 50<-240 -212.039> 800 45<-403.735 -345.951> 885 55<-398.407 -326.03 -240 -212.351>
VStem: -470 65<740.576 850.249> -345 45<740.951 799.049> -205 65<779.957 883.566> -100 90<801.769 930>
AnchorPoint: "thai_above" 187.82 630 mark 0
LayerCount: 2
Fore
SplineSet
-240 885 m 1x7f
 -270 845 l 1
 -320 845 l 1
 -324 862 -343 885 -365 885 c 0
 -387 885 -400 868 -404 839 c 1
 -395 843 -385 845 -375 845 c 0
 -334 845 -300 811 -300 770 c 0
 -300 729 -334 695 -375 695 c 0xbf
 -431 695 -470 752 -470 820 c 0
 -470 888 -421 940 -365 940 c 0
 -331 940 -303 912 -291 892 c 1
 -260 940 l 1
 -240 940 l 2
 -184 940 -140 889 -140 820 c 0
 -140 805 -142 791 -146 779 c 1
 -122 796 -100 837 -100 930 c 1
 -10 930 l 1
 -10 761 -86 700 -240 700 c 1
 -240 750 l 1
 -218 750 -205 777 -205 820 c 0
 -205 863 -218 885 -240 885 c 1x7f
-375 800 m 0
 -392 800 -405 787 -405 770 c 0
 -405 753 -392 740 -375 740 c 0
 -358 740 -345 753 -345 770 c 0
 -345 787 -358 800 -375 800 c 0
EndSplineSet
Substitution2: "Thai Tone & Vowel Above-Narrow" uni0E4A.narrow
Substitution2: "Thai Special Tone for Asc" uni0E4A
Position2: "Tone Low-Left" dx=-200 dy=0 dh=0 dv=0
Substitution2: "Tone Low-High" uni0E4A
EndChar

StartChar: uni0E4B.low
Encoding: 63240 63240 16
Width: 0
VWidth: 0
Flags: W
HStem: 795 70<-330 -225 -135 -30>
VStem: -225 90<700 795 865 960>
AnchorPoint: "thai_above" 187.82 630 mark 0
LayerCount: 2
Fore
SplineSet
-225 960 m 1
 -135 960 l 1
 -135 865 l 1
 -30 865 l 1
 -30 795 l 1
 -135 795 l 1
 -135 700 l 1
 -225 700 l 1
 -225 795 l 1
 -330 795 l 1
 -330 865 l 1
 -225 865 l 1
 -225 960 l 1
EndSplineSet
Position2: "Tone Low-Left" dx=-230 dy=0 dh=0 dv=0
Substitution2: "Tone Low-High" uni0E4B
EndChar

StartChar: uni0E4C.low
Encoding: 63241 63241 17
Width: 0
VWidth: 0
Flags: W
HStem: 700 45<-271.366 -206.604>
VStem: -320 46<747.158 812.945> -204 44<748.367 812.199> -194 104<916.671 965>
AnchorPoint: "thai_above" 187.82 630 mark 0
LayerCount: 2
Fore
SplineSet
-240 815 m 0xe0
 -259 815 -274 799 -274 780 c 0
 -274 761 -259 745 -240 745 c 0
 -220 745 -204 761 -204 780 c 0
 -204 799 -220 815 -240 815 c 0xe0
-194 965 m 1xd0
 -90 965 l 1xd0
 -90 902 -148 875 -190 843 c 1
 -171 828 -160 805 -160 780 c 0xe0
 -160 736 -195 700 -240 700 c 0
 -284 700 -320 736 -320 780 c 0
 -320 877 -194 898 -194 965 c 1xd0
EndSplineSet
Position2: "Tone Low-Left" dx=-140 dy=0 dh=0 dv=0
Substitution2: "Tone Low-High" uni0E4C
EndChar

StartChar: uni0E10.descless
Encoding: 63232 63232 18
Width: 600
VWidth: 0
Flags: W
HStem: 120 60<149.269 230.456> 270 60<149.269 229.862> 390 50<191 317.039> 535 75<505.2 550> 540 80<235.501 428.539>
VStem: 85 60<184.269 265.731> 370 120<139 363.416>
LayerCount: 2
Fore
SplineSet
480 555 m 1xee
 488 569 519 610 550 610 c 1
 550 535 l 1xf6
 519 535 492 495 480 475 c 1
 442 516 389 540 320 540 c 0
 244 540 196 492 191 440 c 1
 380 438 490 422 490 310 c 2
 490 60 l 2
 490 15 394 -10 350 -10 c 1
 340 80 318 146 289 190 c 1
 274 149 236 120 190 120 c 0
 132 120 85 167 85 225 c 0
 85 283 132 330 190 330 c 0
 268 330 335 247 370 139 c 1
 370 310 l 2
 370 386 307 390 70 390 c 1
 70 540 186 620 320 620 c 0
 404 620 453 583 480 555 c 1xee
190 270 m 0
 165 270 145 250 145 225 c 0
 145 200 165 180 190 180 c 0
 215 180 235 200 235 225 c 0
 235 250 215 270 190 270 c 0
EndSplineSet
EndChar

StartChar: uni0E0D.descless
Encoding: 63247 63247 19
Width: 930
VWidth: 0
Flags: W
HStem: -20 85<602.483 717.517> -10 65<191.794 278.206> 155 65<240 277.921> 390 20<289.299 320> 525 95<242.194 427.364> 580 20G<730 850>
VStem: 120 120<220 361.244> 120 65<62.6316 149.043> 285 65<61.7943 148.873> 470 120<78.3716 481.05> 730 120<78.3716 600>
LayerCount: 2
Fore
SplineSet
235 155 m 0x71e0
 207 155 185 133 185 105 c 0
 185 77 207 55 235 55 c 0
 263 55 285 77 285 105 c 0
 285 133 263 155 235 155 c 0x71e0
730 600 m 1xb6e0
 850 600 l 1xb6e0
 850 130 l 2
 850 92 825 -20 660 -20 c 0
 495 -20 470 92 470 130 c 2
 470 400 l 2
 470 482 418 525 340 525 c 0
 267 525 211 493 189 439 c 1
 320 410 l 1
 320 390 l 1
 320 390 240 386 240 280 c 2
 240 220 l 1xbae0
 301 217 350 167 350 105 c 0
 350 41 299 -10 235 -10 c 0
 171 -10 120 41 120 105 c 2x79e0
 120 280 l 2
 120 344 149 377 174 394 c 1
 70 420 l 1
 78 474 164 620 340 620 c 0x7ae0
 481 620 590 535 590 400 c 2
 590 130 l 2
 590 97 607 65 660 65 c 0
 713 65 730 97 730 130 c 2
 730 600 l 1xb6e0
EndSplineSet
EndChar

StartChar: uni0E36
Encoding: 3638 3638 20
Width: 0
VWidth: 0
Flags: W
HStem: 860 80<-432.696 -266.769> 920 50<-206.95 -134>
VStem: -130 50<843.209 916>
AnchorPoint: "thai_above" 187.82 630 mark 0
LayerCount: 2
Fore
SplineSet
-360 860 m 0xa0
 -408 860 -442 834 -454 806 c 1
 -372 802 -274 787 -172 744 c 1
 -213 803 -279 860 -360 860 c 0xa0
-170 920 m 0x60
 -192 920 -210 902 -210 880 c 0
 -210 858 -192 840 -170 840 c 0
 -148 840 -130 858 -130 880 c 0
 -130 902 -148 920 -170 920 c 0x60
-170 970 m 0
 -120 970 -80 930 -80 880 c 0
 -80 845 -100 815 -129 800 c 1
 -103 756 -90 711 -90 680 c 1
 -276 770 -439 780 -560 780 c 1
 -560 827 -492 940 -360 940 c 0xa0
 -320 940 -284 931 -252 916 c 1
 -238 948 -207 970 -170 970 c 0
EndSplineSet
Substitution2: "Thai Tone & Vowel Above-Narrow" uni0E36.narrow
Position2: "Vowel Above-Left" dx=-140 dy=0 dh=0 dv=0
EndChar

StartChar: uni0E37
Encoding: 3639 3639 21
Width: 0
VWidth: 0
Flags: W
HStem: 850 80<-432.696 -315.871>
VStem: -315 75<925 980> -175 85<804.499 940>
AnchorPoint: "thai_above" 187.82 630 mark 0
LayerCount: 2
Fore
SplineSet
-454 796 m 1
 -372 792 -274 777 -172 734 c 1
 -213 793 -279 850 -360 850 c 0
 -408 850 -442 824 -454 796 c 1
-175 970 m 1
 -90 940 l 1
 -90 670 l 1
 -276 760 -439 770 -560 770 c 1
 -560 817 -492 930 -360 930 c 0
 -344 930 -329 928 -315 925 c 1
 -315 1010 l 1
 -240 980 l 1
 -240 893 l 1
 -204 869 -177 836 -157 803 c 1
 -167 835 -175 866 -175 890 c 2
 -175 970 l 1
EndSplineSet
Substitution2: "Thai Tone & Vowel Above-Narrow" uni0E37.narrow
Position2: "Vowel Above-Left" dx=-140 dy=0 dh=0 dv=0
EndChar

StartChar: uni0E2D
Encoding: 3629 3629 22
Width: 650
VWidth: 0
Flags: W
HStem: -20 100<221.328 418.55> 325 55<141.371 228.629> 525 95<219.069 410.931>
VStem: 60 120<420 485.904> 80 120<103.19 177.746> 80 55<230.957 318.216> 235 55<230.933 318.629> 450 120<112.149 485.904>
LayerCount: 2
Fore
SplineSet
185 380 m 0xe7
 243 380 290 333 290 275 c 0
 290 222 251 178 200 171 c 1
 200 160 l 2xeb
 200 95 256 80 325 80 c 0
 394 80 450 105 450 170 c 2
 450 420 l 2
 450 481 403 525 315 525 c 0
 227 525 180 481 180 420 c 1
 60 420 l 1xf3
 60 535 154 620 315 620 c 0
 476 620 570 535 570 420 c 2
 570 170 l 2
 570 34 467 -20 325 -20 c 0
 183 -20 80 24 80 160 c 2xeb
 80 275 l 2
 80 333 127 380 185 380 c 0xe7
185 325 m 0
 157 325 135 303 135 275 c 0xe7
 135 247 157 225 185 225 c 0
 213 225 235 247 235 275 c 0
 235 303 213 325 185 325 c 0
EndSplineSet
EndChar

StartChar: uni0E4D
Encoding: 3661 3661 23
Width: 0
VWidth: 0
Flags: W
HStem: 700 75<-232.743 -137.257> 895 75<-232.743 -137.257>
VStem: -320 75<787.257 882.743> -125 75<787.257 882.743>
AnchorPoint: "thai_above" 187.82 630 mark 0
LayerCount: 2
Fore
SplineSet
-185 895 m 0
 -218 895 -245 868 -245 835 c 0
 -245 802 -218 775 -185 775 c 0
 -152 775 -125 802 -125 835 c 0
 -125 868 -152 895 -185 895 c 0
-185 970 m 0
 -110 970 -50 910 -50 835 c 0
 -50 760 -110 700 -185 700 c 0
 -260 700 -320 760 -320 835 c 0
 -320 910 -260 970 -185 970 c 0
EndSplineSet
Position2: "Vowel Above-Left" dx=-220 dy=0 dh=0 dv=0
EndChar

StartChar: uni0E33
Encoding: 3635 3635 24
Width: 550
VWidth: 0
Flags: W
HStem: 0 21G<350 470> 525 95<183.206 316.794> 700 75<-232.743 -137.257> 895 75<-232.743 -137.257>
VStem: -320 75<787.257 882.743> -125 75<787.257 882.743> 30 120<400 492.148> 350 120<0 492.148>
LayerCount: 2
Fore
SplineSet
350 400 m 2
 350 462 329 525 250 525 c 0
 171 525 150 462 150 400 c 1
 30 400 l 1
 30 537 114 620 250 620 c 0
 386 620 470 537 470 400 c 2
 470 0 l 1
 350 0 l 1
 350 400 l 2
-185 895 m 0
 -218 895 -245 868 -245 835 c 0
 -245 802 -218 775 -185 775 c 0
 -152 775 -125 802 -125 835 c 0
 -125 868 -152 895 -185 895 c 0
-185 970 m 0
 -110 970 -50 910 -50 835 c 0
 -50 760 -110 700 -185 700 c 0
 -260 700 -320 760 -320 835 c 0
 -320 910 -260 970 -185 970 c 0
EndSplineSet
MultipleSubs2: "Sara Am Decomposite" uni0E4D uni0E32
EndChar

StartChar: uni0E32
Encoding: 3634 3634 25
Width: 550
VWidth: 0
Flags: W
HStem: 0 21G<350 470> 525 95<183.206 316.794>
VStem: 30 120<400 492.148> 350 120<0 492.148>
LayerCount: 2
Fore
SplineSet
350 400 m 2
 350 462 329 525 250 525 c 0
 171 525 150 462 150 400 c 1
 30 400 l 1
 30 537 114 620 250 620 c 0
 386 620 470 537 470 400 c 2
 470 0 l 1
 350 0 l 1
 350 400 l 2
EndSplineSet
Substitution2: "Sara AA Substitute" uni0E45
EndChar

StartChar: uni0E25
Encoding: 3621 3621 26
Width: 650
VWidth: 0
Flags: W
HStem: -20 60<172.273 258.482> 140 60<171.136 258.482> 300 80<208.338 387.601> 525 95<228.553 411.447>
VStem: 60 105<65.8329 252.589> 70 120<420 485.904> 265 60<46.5176 133.482> 440 130<16.6331 255.79> 450 120<304 485.904>
LayerCount: 2
Fore
SplineSet
215 200 m 0xf3
 276 200 325 151 325 90 c 0
 325 29 276 -20 215 -20 c 0
 142 -20 60 48 60 180 c 0xfb
 60 300 155 380 280 380 c 0
 354 380 412 349 450 304 c 1
 450 420 l 2
 450 481 408 525 320 525 c 0
 232 525 190 481 190 420 c 1
 70 420 l 1
 70 535 159 620 320 620 c 0
 481 620 570 535 570 420 c 2xf680
 570 30 l 2
 570 -6 440 -10 440 -10 c 1
 440 208 l 1
 426 259 382 300 300 300 c 0
 220 300 174 264 170 191 c 1
 184 197 199 200 215 200 c 0xf3
215 140 m 0
 187 140 165 118 165 90 c 0
 165 62 187 40 215 40 c 0
 243 40 265 62 265 90 c 0
 265 118 243 140 215 140 c 0
EndSplineSet
EndChar

StartChar: uni0E40
Encoding: 3648 3648 27
Width: 340
VWidth: 0
Flags: W
HStem: -10 65<151.794 238.206> 155 65<200 237.921> 580 20G<80 200>
VStem: 80 120<220 600> 80 65<62.6316 149.043> 245 65<61.7943 148.873>
LayerCount: 2
Fore
SplineSet
80 105 m 2xec
 80 600 l 1
 200 600 l 1
 200 220 l 1xf4
 261 217 310 167 310 105 c 0
 310 41 259 -10 195 -10 c 0
 131 -10 80 41 80 105 c 2xec
195 155 m 0
 167 155 145 133 145 105 c 0xec
 145 77 167 55 195 55 c 0
 223 55 245 77 245 105 c 0
 245 133 223 155 195 155 c 0
EndSplineSet
EndChar

StartChar: uni0E41
Encoding: 3649 3649 28
Width: 630
VWidth: 0
Flags: W
HStem: -10 65<151.794 238.206 441.794 528.206> 155 65<200 237.921 490 527.921> 580 20G<80 200 370 490>
VStem: 80 120<220 600> 80 65<62.6316 149.043> 245 65<61.7943 148.873> 370 120<220 600> 370 65<62.6316 149.043> 535 65<61.7943 148.873>
LayerCount: 2
Fore
SplineSet
370 105 m 2xe580
 370 600 l 1
 490 600 l 1
 490 220 l 1xe680
 551 217 600 167 600 105 c 0
 600 41 549 -10 485 -10 c 0
 421 -10 370 41 370 105 c 2xe580
485 155 m 0
 457 155 435 133 435 105 c 0xe580
 435 77 457 55 485 55 c 0
 513 55 535 77 535 105 c 0
 535 133 513 155 485 155 c 0
80 105 m 2xec80
 80 600 l 1
 200 600 l 1
 200 220 l 1xf480
 261 217 310 167 310 105 c 0
 310 41 259 -10 195 -10 c 0
 131 -10 80 41 80 105 c 2xec80
195 155 m 0
 167 155 145 133 145 105 c 0xec80
 145 77 167 55 195 55 c 0
 223 55 245 77 245 105 c 0
 245 133 223 155 195 155 c 0
EndSplineSet
EndChar

StartChar: uni0E2A
Encoding: 3626 3626 29
Width: 660
VWidth: 0
Flags: W
HStem: -20 60<172.273 258.482> 140 60<171.136 258.482> 300 80<208.338 387.601> 525 95<228.553 413.583>
VStem: 60 105<65.8329 252.589> 70 120<420 485.904> 265 60<46.5176 133.482> 440 130<16.6331 255.79> 450 120<304 489.021> 510 100<597.95 720>
LayerCount: 2
Fore
SplineSet
215 140 m 0xfa
 187 140 165 118 165 90 c 0
 165 62 187 40 215 40 c 0
 243 40 265 62 265 90 c 0
 265 118 243 140 215 140 c 0xfa
215 200 m 0
 276 200 325 151 325 90 c 0
 325 29 276 -20 215 -20 c 0
 142 -20 60 48 60 180 c 0
 60 300 155 380 280 380 c 0
 354 380 412 349 450 304 c 1
 450 420 l 2xfa80
 450 481 408 525 320 525 c 0
 232 525 190 481 190 420 c 1
 70 420 l 1
 70 535 159 620 320 620 c 0
 383 620 435 607 475 584 c 1
 495 606 510 641 510 720 c 1
 610 720 l 1xf640
 610 630 575 569 536 530 c 1
 559 499 570 461 570 420 c 2xf280
 570 30 l 2
 570 -6 440 -10 440 -10 c 1
 440 208 l 1xf3
 426 259 382 300 300 300 c 0
 220 300 174 264 170 191 c 1
 184 197 199 200 215 200 c 0
EndSplineSet
Substitution2: "Ascent Substitute" uni0E2A.alt
EndChar

StartChar: uni0E2E
Encoding: 3630 3630 30
Width: 660
VWidth: 0
Flags: W
HStem: -20 100<221.328 418.55> 325 55<141.371 228.629> 525 95<219.069 410.821>
VStem: 60 120<420 485.904> 80 120<103.19 177.746> 80 55<230.957 318.216> 235 55<230.933 318.629> 450 120<112.149 486.099> 510 100<596.957 720>
LayerCount: 2
Fore
SplineSet
185 325 m 0xe6
 157 325 135 303 135 275 c 0
 135 247 157 225 185 225 c 0
 213 225 235 247 235 275 c 0
 235 303 213 325 185 325 c 0xe6
185 380 m 0
 243 380 290 333 290 275 c 0
 290 222 251 178 200 171 c 1
 200 160 l 2
 200 95 256 80 325 80 c 0
 394 80 450 105 450 170 c 2
 450 420 l 2xeb
 450 481 403 525 315 525 c 0
 227 525 180 481 180 420 c 1
 60 420 l 1
 60 535 154 620 315 620 c 0
 379 620 433 606 474 583 c 1
 495 605 510 640 510 720 c 1
 610 720 l 1xf280
 610 629 575 568 536 529 c 1
 558 498 570 461 570 420 c 2
 570 170 l 2
 570 34 467 -20 325 -20 c 0
 183 -20 80 24 80 160 c 2xeb
 80 275 l 2
 80 333 127 380 185 380 c 0
EndSplineSet
Substitution2: "Ascent Substitute" uni0E2E.alt
EndChar

StartChar: uni0E1D
Encoding: 3613 3613 31
Width: 740
VWidth: 0
Flags: W
HStem: 395 55<190.435 268.629> 550 60<182.518 268.582>
VStem: 70 120<72.2949 401> 70 105<455.957 542.376> 275 55<456.371 543.85> 530 120<72.2949 840>
LayerCount: 2
Fore
SplineSet
530 840 m 1xec
 650 840 l 1
 650 600 l 1
 650 110 l 2
 650 70 642 40 619 20 c 0
 596 0 549 -10 470 -10 c 1
 360 217 l 1
 250 -10 l 1
 171 -10 124 0 101 20 c 0
 78 40 70 70 70 110 c 2xec
 70 440 l 2xdc
 70 543 129 610 215 610 c 0
 286 610 330 557 330 500 c 0
 330 442 283 395 225 395 c 0
 213 395 201 397 190 401 c 1
 190 110 l 2
 190 91 191 79 196 71 c 1
 315 310 l 1
 405 310 l 1
 524 71 l 1
 529 79 530 90 530 110 c 2
 530 600 l 1
 530 840 l 1xec
225 550 m 0
 197 550 175 528 175 500 c 0xdc
 175 472 197 450 225 450 c 0
 253 450 275 472 275 500 c 0
 275 528 253 550 225 550 c 0
EndSplineSet
EndChar

StartChar: uni0E1A
Encoding: 3610 3610 32
Width: 720
VWidth: 0
Flags: W
HStem: -20 100<305.894 494.106> 380 65<122.079 160> 545 65<121.794 208.206> 580 20G<520 640>
VStem: 50 65<451.127 538.206> 160 120<107 380> 215 65<450.957 537.368> 520 120<107 600>
LayerCount: 2
Fore
SplineSet
165 545 m 0xeb
 137 545 115 523 115 495 c 0
 115 467 137 445 165 445 c 0
 193 445 215 467 215 495 c 0
 215 523 193 545 165 545 c 0xeb
520 600 m 1xdd
 640 600 l 1
 640 170 l 2
 640 34 532 -20 400 -20 c 0
 268 -20 160 34 160 170 c 2
 160 380 l 1xdd
 99 383 50 433 50 495 c 0
 50 559 101 610 165 610 c 0
 229 610 280 559 280 495 c 2xeb
 280 170 l 2
 280 105 321 80 400 80 c 0
 479 80 520 105 520 170 c 2
 520 600 l 1xdd
EndSplineSet
EndChar

StartChar: uni0E1B
Encoding: 3611 3611 33
Width: 730
VWidth: 0
Flags: W
HStem: -20 100<305.894 494.106> 380 65<122.079 160> 545 65<121.794 208.206>
VStem: 50 65<451.127 538.206> 160 120<107 380> 215 65<450.957 537.368> 520 120<107 840>
LayerCount: 2
Fore
SplineSet
520 840 m 1xfa
 640 840 l 1
 640 600 l 1
 640 170 l 2
 640 34 532 -20 400 -20 c 0
 268 -20 160 34 160 170 c 2
 160 380 l 1xfa
 99 383 50 433 50 495 c 0
 50 559 101 610 165 610 c 0
 229 610 280 559 280 495 c 2xf6
 280 170 l 2
 280 105 321 80 400 80 c 0
 479 80 520 105 520 170 c 2
 520 600 l 1
 520 840 l 1xfa
165 545 m 0
 137 545 115 523 115 495 c 0
 115 467 137 445 165 445 c 0
 193 445 215 467 215 495 c 0xf6
 215 523 193 545 165 545 c 0
EndSplineSet
EndChar

StartChar: uni0E49
Encoding: 3657 3657 34
Width: 0
VWidth: 0
Flags: W
HStem: 1020 115<-273.735 -220.251> 1020 65<-341.352 -274.188> 1195 45<-278.48 -221.06>
VStem: -326 46<1136.5 1194.05> -220 44<1136.58 1193.11> -90 100<1137.55 1230>
LayerCount: 2
Fore
SplineSet
-250 1240 m 0x7c
 -209 1240 -176 1206 -176 1165 c 0
 -176 1124 -198 1098 -214 1086 c 1
 -140 1091 -90 1133 -90 1230 c 1
 10 1230 l 1
 10 1100 -70 1020 -230 1020 c 2xbc
 -320 1020 l 2
 -358 1020 -370 1085 -370 1085 c 1
 -286 1085 l 1
 -282 1087 -278 1090 -274 1094 c 1
 -304 1103 -326 1132 -326 1165 c 0
 -326 1206 -292 1240 -250 1240 c 0x7c
-250 1195 m 0
 -267 1195 -280 1182 -280 1165 c 0
 -280 1148 -267 1135 -250 1135 c 0
 -234 1135 -220 1148 -220 1165 c 0
 -220 1182 -234 1195 -250 1195 c 0
EndSplineSet
Substitution2: "Thai Tone & Vowel Above-Narrow" uni0E49.narrow
Position2: "Nikhahit & Tone High-Left" dx=-210 dy=0 dh=0 dv=0
Position2: "Mai Han-Akat & Tone High-Left" dx=-260 dy=0 dh=0 dv=0
Position2: "Tone High-Left" dx=-180 dy=0 dh=0 dv=0
MultipleSubs2: "Tone High-Low" uni0E49.low
EndChar

StartChar: uni0E1C
Encoding: 3612 3612 35
Width: 730
VWidth: 0
Flags: W
HStem: 395 55<190.435 268.629> 550 60<182.518 268.582> 580 20G<530 650>
VStem: 70 120<72.2949 401> 70 105<455.957 542.376> 275 55<456.371 543.85> 530 120<72.2949 600>
LayerCount: 2
Fore
SplineSet
215 610 m 0xce
 286 610 330 557 330 500 c 0
 330 442 283 395 225 395 c 0
 213 395 201 397 190 401 c 1
 190 110 l 2
 190 91 191 79 196 71 c 1
 315 310 l 1
 405 310 l 1
 524 71 l 1
 529 79 530 90 530 110 c 2
 530 600 l 1
 650 600 l 1
 650 110 l 2
 650 70 642 40 619 20 c 0
 596 -0 549 -10 470 -10 c 1
 360 217 l 1
 250 -10 l 1
 171 -10 124 -0 101 20 c 0
 78 40 70 70 70 110 c 2xb6
 70 440 l 2
 70 543 129 610 215 610 c 0xce
225 550 m 0xce
 197 550 175 528 175 500 c 0
 175 472 197 450 225 450 c 0
 253 450 275 472 275 500 c 0
 275 528 253 550 225 550 c 0xce
EndSplineSet
EndChar

StartChar: uni0E1E
Encoding: 3614 3614 36
Width: 770
VWidth: 0
Flags: W
HStem: 380 65<132.079 170> 545 65<131.794 218.206> 580 20G<570 690>
VStem: 60 65<451.127 538.206> 170 120<127 380> 225 65<450.957 537.368> 570 120<127 600>
LayerCount: 2
Fore
SplineSet
570 600 m 1xba
 690 600 l 1
 690 60 l 2
 690 37 672 17 645 5 c 0
 618 -7 571 -10 540 -10 c 1
 430 375 l 1
 320 -10 l 1
 289 -10 242 -7 215 5 c 0
 188 17 170 37 170 60 c 2
 170 380 l 1xba
 109 383 60 433 60 495 c 0
 60 559 111 610 175 610 c 0
 239 610 290 559 290 495 c 2xd6
 290 127 l 1
 397 490 l 1
 463 490 l 1
 570 127 l 1
 570 600 l 1xba
175 545 m 0xd6
 147 545 125 523 125 495 c 0
 125 467 147 445 175 445 c 0
 203 445 225 467 225 495 c 0
 225 523 203 545 175 545 c 0xd6
EndSplineSet
EndChar

StartChar: uni0E1F
Encoding: 3615 3615 37
Width: 780
VWidth: 0
Flags: W
HStem: 380 65<132.079 170> 545 65<131.794 218.206>
VStem: 60 65<451.127 538.206> 170 120<127 380> 225 65<450.957 537.368> 570 120<127 840>
LayerCount: 2
Fore
SplineSet
570 840 m 1xf4
 690 840 l 1
 690 600 l 1
 690 60 l 2
 690 37 672 17 645 5 c 0
 618 -7 571 -10 540 -10 c 1
 430 375 l 1
 320 -10 l 1
 289 -10 242 -7 215 5 c 0
 188 17 170 37 170 60 c 2
 170 380 l 1xf4
 109 383 60 433 60 495 c 0
 60 559 111 610 175 610 c 0
 239 610 290 559 290 495 c 2xec
 290 127 l 1
 397 490 l 1
 463 490 l 1
 570 127 l 1
 570 600 l 1
 570 840 l 1xf4
175 545 m 0
 147 545 125 523 125 495 c 0
 125 467 147 445 175 445 c 0
 203 445 225 467 225 495 c 0xec
 225 523 203 545 175 545 c 0
EndSplineSet
EndChar

StartChar: uni0E30
Encoding: 3632 3632 38
Width: 540
VWidth: 0
Flags: W
HStem: 30 75<192.307 333.424> 225 50<104 176> 340 75<192.307 333.424> 535 50<104 176>
VStem: 50 50<150.205 221 460.205 531> 180 50<148.1 221 458.1 531> 380 100<152.268 250 462.268 560>
LayerCount: 2
Fore
SplineSet
140 585 m 0
 190 585 230 545 230 495 c 0
 230 464 214 436 190 420 c 1
 207 416 228 415 255 415 c 0
 342 415 380 479 380 560 c 1
 480 560 l 1
 480 444 412 340 255 340 c 0
 165 340 50 389 50 495 c 0
 50 545 90 585 140 585 c 0
140 535 m 0
 118 535 100 517 100 495 c 0
 100 473 118 455 140 455 c 0
 162 455 180 473 180 495 c 0
 180 517 162 535 140 535 c 0
140 275 m 0
 190 275 230 235 230 185 c 0
 230 154 214 126 190 110 c 1
 207 106 228 105 255 105 c 0
 342 105 380 169 380 250 c 1
 480 250 l 1
 480 134 412 30 255 30 c 0
 165 30 50 79 50 185 c 0
 50 235 90 275 140 275 c 0
140 225 m 0
 118 225 100 207 100 185 c 0
 100 163 118 145 140 145 c 0
 162 145 180 163 180 185 c 0
 180 207 162 225 140 225 c 0
EndSplineSet
EndChar

StartChar: uni0E43
Encoding: 3651 3651 39
Width: 400
VWidth: 0
Flags: W
HStem: -10 65<211.794 298.206> 155 65<260 297.921> 765 50<65.5002 144.5> 955 65<142.881 268.775>
VStem: 10 50<820.5 899.484> 140 120<220 690.677> 140 65<62.6316 149.043> 150 50<820.5 899.782> 290 80<815.148 932.977> 305 65<61.7943 148.873>
LayerCount: 2
Fore
SplineSet
140 600 m 2xfc
 140 737 290 793 290 880 c 0
 290 926 252 955 190 955 c 0
 171 955 155 952 142 948 c 1
 176 933 200 899 200 860 c 0xf980
 200 808 157 765 105 765 c 0
 53 765 10 808 10 860 c 0
 10 945 85 1020 190 1020 c 0
 299 1020 370 960 370 880 c 0
 370 768 260 728 260 600 c 2
 260 220 l 1xfc80
 321 217 370 167 370 105 c 0
 370 41 319 -10 255 -10 c 0
 191 -10 140 41 140 105 c 2xfa40
 140 600 l 2xfc
105 905 m 0
 80 905 60 885 60 860 c 0
 60 835 80 815 105 815 c 0
 130 815 150 835 150 860 c 0
 150 885 130 905 105 905 c 0
255 155 m 0
 227 155 205 133 205 105 c 0
 205 77 227 55 255 55 c 0
 283 55 305 77 305 105 c 0xfa40
 305 133 283 155 255 155 c 0
EndSplineSet
EndChar

StartChar: uni0E44
Encoding: 3652 3652 40
Width: 400
VWidth: 0
Flags: W
HStem: -10 65<211.794 298.206> 155 65<260 297.921> 945 75<20 107.241>
VStem: 140 120<220 707.359> 140 65<62.6316 149.043> 305 65<61.7943 148.873>
LayerCount: 2
Fore
SplineSet
180 945 m 1xf4
 340 1020 l 1
 356 1020 400 988 400 940 c 0
 400 830 260 768 260 600 c 2
 260 220 l 1xf4
 321 217 370 167 370 105 c 0
 370 41 319 -10 255 -10 c 0
 191 -10 140 41 140 105 c 2xec
 140 600 l 2
 140 768 314 867 337 944 c 1
 180 870 l 1
 180 870 96 945 20 945 c 1
 20 1020 l 1
 119 1020 180 945 180 945 c 1xf4
255 155 m 0
 227 155 205 133 205 105 c 0xec
 205 77 227 55 255 55 c 0
 283 55 305 77 305 105 c 0
 305 133 283 155 255 155 c 0
EndSplineSet
EndChar

StartChar: uni0E29
Encoding: 3625 3625 41
Width: 770
VWidth: 0
Flags: W
HStem: -20 100<305.894 494.106> 191 64<433.816 520> 380 65<122.079 160> 405 40<365.604 434.396> 545 65<121.794 208.206> 580 20G<520 640>
VStem: 50 65<451.127 538.206> 160 120<107 380> 215 65<450.957 537.368> 320 40<332.199 399.396> 440 40<330.691 399.396> 520 120<107 194.579 283 600> 685 85<302.885 380>
AnchorPoint: "thai_above" 927.82 630 basechar 0
LayerCount: 2
Fore
SplineSet
165 545 m 0xdaf8
 137 545 115 523 115 495 c 0
 115 467 137 445 165 445 c 0
 193 445 215 467 215 495 c 0
 215 523 193 545 165 545 c 0xdaf8
400 445 m 0
 444 445 480 409 480 365 c 0
 480 329 456 299 424 289 c 1
 444 267 476 257 520 255 c 1
 520 600 l 1
 640 600 l 1
 640 283 l 1
 665 302 683 333 685 380 c 1
 770 380 l 1
 769 307 716 243 640 211 c 1
 640 170 l 2
 640 34 532 -20 400 -20 c 0
 268 -20 160 34 160 170 c 2
 160 380 l 1xe778
 99 383 50 433 50 495 c 0
 50 559 101 610 165 610 c 0
 229 610 280 559 280 495 c 2xeaf8
 280 170 l 2xeb78
 280 105 321 80 400 80 c 0
 479 80 520 105 520 170 c 2
 520 191 l 1
 449 197 320 247 320 365 c 0
 320 409 356 445 400 445 c 0
400 405 m 0xd278
 378 405 360 387 360 365 c 0
 360 343 378 325 400 325 c 0
 422 325 440 343 440 365 c 0
 440 387 422 405 400 405 c 0xd278
EndSplineSet
EndChar

StartChar: uni0E42
Encoding: 3650 3650 42
Width: 400
VWidth: 0
Flags: W
HStem: -10 65<211.794 298.206> 155 65<260 297.921> 955 65<103.686 260.089>
VStem: 140 120<220 783.449> 140 65<62.6316 149.043> 305 65<61.7943 148.873>
LayerCount: 2
Fore
SplineSet
-10 860 m 1xf4
 -10 942 71 1020 180 1020 c 0
 238 1020 281 991 300 970 c 1
 317 989 351 1010 380 1020 c 1
 380 935 l 1
 344 925 316 905 300 885 c 1
 277 918 247 955 180 955 c 0
 121 955 89 923 82 899 c 1
 193 891 260 820 260 600 c 2
 260 220 l 1xf4
 321 217 370 167 370 105 c 0
 370 41 319 -10 255 -10 c 0
 191 -10 140 41 140 105 c 2xec
 140 600 l 2
 140 813 126 860 -10 860 c 1xf4
255 155 m 0
 227 155 205 133 205 105 c 0xec
 205 77 227 55 255 55 c 0
 283 55 305 77 305 105 c 0
 305 133 283 155 255 155 c 0
EndSplineSet
EndChar

StartChar: uni0E21
Encoding: 3617 3617 43
Width: 660
VWidth: 0
Flags: W
HStem: -20 70<126.035 213.965> 119 87<290 341.719> 150 70<126.112 170> 380 65<132.079 170> 545 65<131.794 218.206> 580 20G<460 580>
VStem: 50 70<56.0345 143.965> 60 65<451.127 538.206> 170 120<220 380> 225 65<59.1171 118.493 450.957 537.368> 460 120<97 600>
LayerCount: 2
Fore
SplineSet
460 600 m 1xd560
 580 600 l 1
 580 60 l 2
 580 15 503 -10 440 -10 c 1
 440 -10 392 86 290 119 c 1
 290 100 l 2xd560
 290 34 236 -20 170 -20 c 0
 104 -20 50 34 50 100 c 0xd6a0
 50 166 104 220 170 220 c 1
 170 380 l 1
 109 383 60 433 60 495 c 0
 60 559 111 610 175 610 c 0xb9a0
 239 610 290 559 290 495 c 2
 290 206 l 1
 363 188 423 143 460 97 c 1
 460 600 l 1xd560
170 150 m 0xb2a0
 142 150 120 128 120 100 c 0
 120 72 142 50 170 50 c 0
 198 50 220 72 220 100 c 0
 220 128 198 150 170 150 c 0xb2a0
175 545 m 0x9960
 147 545 125 523 125 495 c 0
 125 467 147 445 175 445 c 0
 203 445 225 467 225 495 c 0
 225 523 203 545 175 545 c 0x9960
EndSplineSet
EndChar

StartChar: uni0E06
Encoding: 3590 3590 44
Width: 690
VWidth: 0
Flags: W
HStem: -20 70<156.035 243.965> 150 70<156.112 215.012> 320 45<122.482 197.842> 455 45<121.408 197.842> 550 60<129.245 216.878> 580 20G<490 610>
VStem: 50 65<369.978 498.463> 80 70<56.0345 143.965> 205 45<372.158 447.842> 250 70<56.0345 119.649> 350 85<391.745 533.627> 490 120<97 600>
LayerCount: 2
Fore
SplineSet
160 455 m 0xf2b0
 135 455 115 435 115 410 c 0
 115 385 135 365 160 365 c 0
 185 365 205 385 205 410 c 0
 205 435 185 455 160 455 c 0xf2b0
490 600 m 1xf6b0
 610 600 l 1
 610 60 l 2
 610 15 533 -10 470 -10 c 1
 470 -10 422 87 318 120 c 1
 319 113 320 107 320 100 c 0
 320 34 266 -20 200 -20 c 0
 134 -20 80 34 80 100 c 0xf570
 80 166 134 220 200 220 c 0
 204 220 207 220 211 220 c 1
 224 338 350 363 350 460 c 0
 350 495 338 518 315 545 c 1
 280 490 l 1
 275 490 l 1
 230 490 l 1
 223 522 205 550 175 550 c 0
 141 550 123 525 117 489 c 1
 130 496 145 500 160 500 c 0
 210 500 250 460 250 410 c 0
 250 360 210 320 160 320 c 0
 89 320 50 388 50 460 c 0
 50 513 82 610 170 610 c 0
 214 610 245 580 261 547 c 1
 295 610 l 1
 324 610 l 1xfab0
 381 593 435 542 435 460 c 0
 435 339 332 309 330 204 c 1
 399 184 454 140 490 97 c 1
 490 600 l 1xf6b0
200 150 m 0
 172 150 150 128 150 100 c 0
 150 72 172 50 200 50 c 0
 228 50 250 72 250 100 c 0
 250 128 228 150 200 150 c 0
EndSplineSet
EndChar

StartChar: uni0E31
Encoding: 3633 3633 45
Width: 0
VWidth: 0
Flags: W
HStem: 710 75<-277.693 -136.576> 905 50<-366 -294>
VStem: -420 50<830.205 901> -290 50<828.1 901> -90 100<832.268 930>
LayerCount: 2
Fore
SplineSet
-330 955 m 0
 -280 955 -240 915 -240 865 c 0
 -240 834 -256 806 -280 790 c 1
 -263 786 -242 785 -215 785 c 0
 -128 785 -90 849 -90 930 c 1
 10 930 l 1
 10 814 -58 710 -215 710 c 0
 -305 710 -420 759 -420 865 c 0
 -420 915 -380 955 -330 955 c 0
-330 905 m 0
 -352 905 -370 887 -370 865 c 0
 -370 843 -352 825 -330 825 c 0
 -308 825 -290 843 -290 865 c 0
 -290 887 -308 905 -330 905 c 0
EndSplineSet
Substitution2: "Thai Tone & Vowel Above-Narrow" uni0E31.narrow
Position2: "Vowel Above-Left" dx=-240 dy=0 dh=0 dv=0
EndChar

StartChar: uni0E4C
Encoding: 3660 3660 46
Width: 0
VWidth: 0
Flags: W
HStem: 980 45<-241.366 -176.604>
VStem: -290 46<1027.16 1092.95> -174 44<1028.37 1092.2> -164 104<1196.67 1245>
LayerCount: 2
Fore
SplineSet
-210 1095 m 0xe0
 -229 1095 -244 1079 -244 1060 c 0
 -244 1041 -229 1025 -210 1025 c 0
 -190 1025 -174 1041 -174 1060 c 0
 -174 1079 -190 1095 -210 1095 c 0xe0
-164 1245 m 1xd0
 -60 1245 l 1xd0
 -60 1182 -118 1155 -160 1123 c 1
 -141 1108 -130 1085 -130 1060 c 0xe0
 -130 1016 -165 980 -210 980 c 0
 -254 980 -290 1016 -290 1060 c 0
 -290 1157 -164 1178 -164 1245 c 1xd0
EndSplineSet
Position2: "Tone High-Left" dx=-140 dy=0 dh=0 dv=0
MultipleSubs2: "Tone High-Low" uni0E4C.low
EndChar

StartChar: uni0E39
Encoding: 3641 3641 47
Width: 0
VWidth: 0
Flags: W
HStem: -350 60<-277.078 -182.193> -260 55<-411.781 -370> -125 55<-412.172 -337.828>
VStem: -470 55<-202.172 -127.828> -335 55<-202.563 -128.219> -180 90<-284.902 -80>
LayerCount: 2
Fore
SplineSet
-230 -350 m 0
 -340 -350 -368 -309 -370 -260 c 1
 -372 -260 -373 -260 -375 -260 c 0
 -427 -260 -470 -217 -470 -165 c 0
 -470 -113 -427 -70 -375 -70 c 0
 -323 -70 -280 -113 -280 -165 c 2
 -280 -255 l 2
 -280 -271 -265 -290 -230 -290 c 0
 -195 -290 -180 -271 -180 -255 c 2
 -180 -80 l 1
 -90 -80 l 1
 -90 -255 l 2
 -90 -306 -116 -350 -230 -350 c 0
-375 -125 m 0
 -397 -125 -415 -143 -415 -165 c 0
 -415 -187 -397 -205 -375 -205 c 0
 -353 -205 -335 -187 -335 -165 c 0
 -335 -143 -353 -125 -375 -125 c 0
EndSplineSet
Position2: "Vowel Below-Low" dx=0 dy=-200 dh=0 dv=0
EndChar

StartChar: uni0E03
Encoding: 3587 3587 48
Width: 690
VWidth: 0
Flags: W
HStem: -20 100<340.987 479.013> 320 45<122.482 197.842> 455 45<121.408 197.842> 550 60<129.245 216.878> 580 20G<490 610>
VStem: 50 65<369.978 498.463> 205 45<372.158 447.842> 210 120<94.75 283.586> 350 85<391.691 533.627> 490 120<94.75 600>
LayerCount: 2
Fore
SplineSet
275 490 m 1xedc0
 230 490 l 1
 223 522 205 550 175 550 c 0
 141 550 123 525 117 489 c 1
 130 496 145 500 160 500 c 0
 210 500 250 460 250 410 c 0
 250 360 210 320 160 320 c 0
 89 320 50 388 50 460 c 0
 50 513 82 610 170 610 c 0
 214 610 245 580 261 547 c 1
 295 610 l 1
 324 610 l 1xf6c0
 381 593 435 542 435 460 c 0
 435 338 330 308 330 200 c 2
 330 140 l 2
 330 102 360 80 410 80 c 0
 460 80 490 102 490 140 c 2
 490 600 l 1
 610 600 l 1
 610 140 l 2
 610 92 578 -20 410 -20 c 0
 242 -20 210 92 210 140 c 2
 210 200 l 2
 210 336 350 358 350 460 c 0
 350 495 338 518 315 545 c 1
 280 490 l 1
 275 490 l 1xedc0
160 455 m 0
 135 455 115 435 115 410 c 0
 115 385 135 365 160 365 c 0
 185 365 205 385 205 410 c 0
 205 435 185 455 160 455 c 0
EndSplineSet
EndChar

StartChar: uni0E22
Encoding: 3618 3618 49
Width: 660
VWidth: 0
Flags: W
HStem: -20 95<218.361 447.599> 260 70<215.016 320> 395 55<186.194 273.629> 550 60<186.708 273.023> 580 20G<460 580>
VStem: 60 120<109.609 227.298 397.018 538.88> 280 55<456.371 543.087> 460 120<94.5026 600>
LayerCount: 2
Fore
SplineSet
230 550 m 0xf7
 202 550 180 528 180 500 c 0
 180 472 202 450 230 450 c 0
 258 450 280 472 280 500 c 0
 280 528 258 550 230 550 c 0xf7
460 600 m 1xef
 580 600 l 1xef
 580 80 l 2
 580 57 459 -20 320 -20 c 0
 179 -20 60 44 60 170 c 0
 60 233 92 273 141 298 c 1
 88 328 60 376 60 440 c 0
 60 543 129 610 215 610 c 0xf7
 299 610 335 548 335 500 c 0
 335 442 288 395 230 395 c 0
 204 395 180 405 161 421 c 1
 171 353 235 330 320 330 c 1
 320 260 l 1
 210 260 180 212 180 170 c 0
 180 103 244 75 320 75 c 0
 398 75 444 95 460 110 c 1
 460 600 l 1xef
EndSplineSet
EndChar

StartChar: uni0E46
Encoding: 3654 3654 50
Width: 660
VWidth: 0
Flags: W
HStem: -290 100<300 401.078> 280 55<162.457 237.172> 415 55<162.46 237.172> 550 70<161.999 257.314>
VStem: 70 75<452 535.332> 240 55<337.828 412.172> 430 120<-160.981 540.56>
LayerCount: 2
Fore
SplineSet
200 470 m 0
 252 470 295 427 295 375 c 0
 295 323 252 280 200 280 c 0
 102 280 70 380 70 455 c 0
 70 519 109 620 210 620 c 0
 269 620 304 582 323 542 c 1
 380 620 l 1
 420 620 l 1
 495 600 550 532 550 450 c 2
 550 -100 l 2
 550 -217 447 -290 300 -290 c 1
 300 -190 l 1
 361 -190 429 -178 430 -100 c 1
 430 450 l 2
 430 488 426 522 400 545 c 1
 340 470 l 1
 270 470 l 1
 270 514 254 550 210 550 c 0
 160 550 145 503 145 455 c 0
 145 454 145 453 145 452 c 1
 161 464 180 470 200 470 c 0
200 415 m 0
 178 415 160 397 160 375 c 0
 160 353 178 335 200 335 c 0
 222 335 240 353 240 375 c 0
 240 397 222 415 200 415 c 0
EndSplineSet
EndChar

StartChar: uni0E47
Encoding: 3655 3655 51
Width: 0
VWidth: 0
Flags: W
HStem: 690 50<-290.424 -216.168> 790 20G<-372.083 -305> 840 40<-217.809 -162.191> 910 65<-424.654 -200.344>
VStem: -520 80<774.967 894.744> -260 40<782.104 837.809> -180 80<992.547 1055> -160 40<781.771 837.809>
LayerCount: 2
Fore
SplineSet
-190 880 m 0xfe
 -151 880 -120 849 -120 810 c 0xfd
 -120 749 -167 690 -240 690 c 0
 -286 690 -321 713 -341 746 c 1
 -370 695 l 1
 -452 695 -520 747 -520 835 c 0
 -520 923 -452 975 -370 975 c 2
 -250 975 l 2
 -207 975 -180 1016 -180 1055 c 1
 -100 1055 l 1
 -100 983 -168 910 -240 910 c 2
 -370 910 l 2
 -418 910 -440 874 -440 835 c 0
 -440 802 -424 770 -389 762 c 1
 -360 810 l 1
 -305 810 l 1
 -305 782 -288 740 -240 740 c 0
 -230 740 -222 742 -215 745 c 1
 -241 755 -260 780 -260 810 c 0
 -260 849 -229 880 -190 880 c 0xfe
-190 840 m 0
 -207 840 -220 827 -220 810 c 0
 -220 793 -207 780 -190 780 c 0
 -173 780 -160 793 -160 810 c 0
 -160 827 -173 840 -190 840 c 0
EndSplineSet
Substitution2: "Thai Tone & Vowel Above-Narrow" uni0E47.narrow
Position2: "Vowel Above-Left" dx=-180 dy=0 dh=0 dv=0
EndChar

StartChar: uni0E0B
Encoding: 3595 3595 52
Width: 710
VWidth: 0
Flags: W
HStem: -20 100<340.987 479.013> 320 45<122.482 197.842> 455 45<121.408 197.842> 550 60<129.245 216.878>
VStem: 50 65<369.978 498.463> 205 45<372.158 447.842> 210 120<94.75 283.656> 350 310<460 720> 490 120<94.75 404.115> 550 110<600.629 720>
LayerCount: 2
Fore
SplineSet
490 370 m 2xfa80
 490 389 460 409 432 425 c 1
 415 331 330 297 330 200 c 2
 330 140 l 2
 330 102 360 80 410 80 c 0
 460 80 490 102 490 140 c 2
 490 370 l 2xfa80
160 455 m 0
 135 455 115 435 115 410 c 0
 115 385 135 365 160 365 c 0
 185 365 205 385 205 410 c 0xfc
 205 435 185 455 160 455 c 0
275 490 m 1
 230 490 l 1
 223 522 205 550 175 550 c 0
 141 550 123 525 117 489 c 1
 130 496 145 500 160 500 c 0
 210 500 250 460 250 410 c 0
 250 360 210 320 160 320 c 0
 89 320 50 388 50 460 c 0
 50 513 82 610 170 610 c 0
 214 610 245 580 261 547 c 1
 295 610 l 1
 324 610 l 1
 371 596 416 559 430 501 c 1
 492 528 550 604 550 720 c 1xfc40
 660 720 l 1xf9
 660 582 587 495 490 459 c 1
 543 439 610 406 610 370 c 2
 610 140 l 2xf880
 610 92 578 -20 410 -20 c 0
 242 -20 210 92 210 140 c 2
 210 200 l 2
 210 336 350 358 350 460 c 0xfb
 350 495 338 518 315 545 c 1
 280 490 l 1
 275 490 l 1
EndSplineSet
Substitution2: "Ascent Substitute" uni0E0B.alt
EndChar

StartChar: uni0E02
Encoding: 3586 3586 53
Width: 660
VWidth: 0
Flags: W
HStem: -20 100<310.987 449.013> 350 45<106.717 182.842> 545 65<156.758 278.944> 580 20G<460 580>
VStem: 50 50<399.778 479.285> 180 120<94.75 292.012> 190 45<402.158 478.359> 300 85<379.923 525.424> 460 120<94.75 600>
LayerCount: 2
Fore
SplineSet
215 610 m 0xeb80
 342 610 385 530 385 460 c 0xeb80
 385 338 300 319 300 200 c 2
 300 140 l 2
 300 102 330 80 380 80 c 0
 430 80 460 102 460 140 c 2
 460 600 l 1
 580 600 l 1
 580 140 l 2
 580 92 548 -20 380 -20 c 0
 212 -20 180 92 180 140 c 2
 180 200 l 2xdc80
 180 336 300 344 300 460 c 0
 300 513 268 545 215 545 c 0
 194 545 173 540 156 529 c 1
 201 524 235 486 235 440 c 0
 235 390 195 350 145 350 c 0
 90 350 50 395 50 455 c 0
 50 540 120 610 215 610 c 0xeb80
145 485 m 0
 120 485 100 465 100 440 c 0
 100 415 120 395 145 395 c 0
 170 395 190 415 190 440 c 0
 190 465 170 485 145 485 c 0
EndSplineSet
EndChar

StartChar: uni0E0A
Encoding: 3594 3594 54
Width: 680
VWidth: 0
Flags: W
HStem: -20 100<310.987 449.013> 350 45<106.717 182.842> 545 65<156.758 280.148>
VStem: 50 50<399.778 479.285> 180 120<94.75 293.087> 190 45<402.158 478.359> 300 330<460 720> 460 120<94.75 404.115> 520 110<600.629 720>
LayerCount: 2
Fore
SplineSet
460 370 m 2xf9
 460 393 416 419 384 435 c 1
 373 335 300 310 300 200 c 2
 300 140 l 2
 300 102 330 80 380 80 c 0
 430 80 460 102 460 140 c 2
 460 370 l 2xf9
460 459 m 1
 513 439 580 406 580 370 c 2
 580 140 l 2
 580 92 548 -20 380 -20 c 0
 212 -20 180 92 180 140 c 2
 180 200 l 2xf9
 180 336 300 344 300 460 c 0xf2
 300 513 268 545 215 545 c 0
 194 545 173 540 156 529 c 1
 201 524 235 486 235 440 c 0
 235 390 195 350 145 350 c 0
 90 350 50 395 50 455 c 0
 50 540 120 610 215 610 c 0
 321 610 369 554 381 494 c 1
 450 513 520 592 520 720 c 1xf480
 630 720 l 1xf2
 630 582 557 495 460 459 c 1
145 485 m 0
 120 485 100 465 100 440 c 0
 100 415 120 395 145 395 c 0
 170 395 190 415 190 440 c 0xf4
 190 465 170 485 145 485 c 0
EndSplineSet
Substitution2: "Ascent Substitute" uni0E0A.alt
EndChar

StartChar: uni0E19
Encoding: 3609 3609 55
Width: 690
VWidth: 0
Flags: W
HStem: -20 70<456.035 543.965> 380 65<122.079 160> 545 65<121.794 208.206> 580 20G<460 580>
VStem: 50 65<451.127 538.206> 160 120<98 380> 215 65<450.957 537.368> 380 70<56.112 103.896> 460 120<218.162 600> 550 70<56.0345 143.954>
LayerCount: 2
Fore
SplineSet
380 104 m 1xd940
 325 55 290 -10 290 -10 c 1
 227 -10 160 15 160 60 c 2
 160 380 l 1xdd40
 99 383 50 433 50 495 c 0
 50 559 101 610 165 610 c 0
 229 610 280 559 280 495 c 2xeb
 280 98 l 1
 323 153 391 210 460 226 c 1
 460 600 l 1
 580 600 l 1
 580 210 l 1xdd80
 564 202 l 1
 597 181 620 143 620 100 c 0
 620 34 566 -20 500 -20 c 0
 434 -20 380 34 380 100 c 0
 380 101 380 103 380 104 c 1xd940
165 545 m 0xeb
 137 545 115 523 115 495 c 0
 115 467 137 445 165 445 c 0
 193 445 215 467 215 495 c 0
 215 523 193 545 165 545 c 0xeb
500 150 m 0
 472 150 450 128 450 100 c 0
 450 72 472 50 500 50 c 0
 528 50 550 72 550 100 c 0xc940
 550 128 528 150 500 150 c 0
EndSplineSet
EndChar

StartChar: uni0E23
Encoding: 3619 3619 56
Width: 570
VWidth: 0
Flags: W
HStem: -10 70<306.035 393.965> 160 70<306.112 350> 390 50<171 297.039> 535 75<485.2 530> 540 80<215.501 408.539>
VStem: 230 70<66.0345 153.965> 350 120<230 363.416> 400 70<66.112 154.043>
LayerCount: 2
Fore
SplineSet
460 555 m 1xee
 468 569 499 610 530 610 c 1
 530 535 l 1xf6
 499 535 472 495 460 475 c 1
 422 516 369 540 300 540 c 0
 224 540 176 492 171 440 c 1
 360 438 470 422 470 310 c 2xee
 470 110 l 2xed
 470 44 416 -10 350 -10 c 0
 284 -10 230 44 230 110 c 0
 230 176 284 230 350 230 c 1
 350 310 l 2
 350 386 287 390 50 390 c 1
 50 540 166 620 300 620 c 0
 384 620 433 583 460 555 c 1xee
350 160 m 0
 322 160 300 138 300 110 c 0
 300 82 322 60 350 60 c 0xe6
 378 60 400 82 400 110 c 0xe5
 400 138 378 160 350 160 c 0
EndSplineSet
EndChar

StartChar: uni0E07
Encoding: 3591 3591 57
Width: 560
VWidth: 0
Flags: W
HStem: 285 85<50 107.425> 380 65<322.079 360> 545 65<321.794 408.206>
VStem: 250 65<451.127 538.206> 360 120<79 380> 415 65<450.957 537.368>
LayerCount: 2
Fore
SplineSet
360 79 m 1xf8
 360 380 l 1xf8
 299 383 250 433 250 495 c 0
 250 559 301 610 365 610 c 0
 429 610 480 559 480 495 c 2
 480 60 l 2xf4
 480 15 383 -10 320 -10 c 1
 194 209 99 285 50 285 c 1
 50 370 l 1
 143 370 241 271 360 79 c 1xf8
365 545 m 0
 337 545 315 523 315 495 c 0
 315 467 337 445 365 445 c 0
 393 445 415 467 415 495 c 0xf4
 415 523 393 545 365 545 c 0
EndSplineSet
EndChar

StartChar: uni0E0E
Encoding: 3598 3598 58
Width: 700
VWidth: 0
Flags: W
HStem: -300 65<181.941 302.974> -165 65<181.941 316.844> -10 65<131.794 218.206> 525 95<262.194 447.364>
VStem: 60 65<61.7943 149.084> 110 70<-231.021 -168.701> 160 120<219.282 364.798> 225 65<61.7943 148.961> 335 80<-123.275 -90> 490 120<-221 481.05>
LayerCount: 2
Fore
SplineSet
175 155 m 0xf9c0
 147 155 125 133 125 105 c 0
 125 77 147 55 175 55 c 0
 203 55 225 77 225 105 c 0
 225 133 203 155 175 155 c 0xf9c0
230 -235 m 0
 271 -235 301 -222 318 -187 c 1
 287 -174 256 -165 230 -165 c 0
 202 -165 180 -174 180 -200 c 0xf4c0
 180 -225 202 -235 230 -235 c 0
610 0 m 1
 610 -240 l 2
 610 -277 511 -290 470 -290 c 1
 450 -270 417 -244 380 -221 c 1
 348 -270 296 -300 230 -300 c 0
 169 -300 110 -263 110 -200 c 0xf4c0
 110 -136 169 -100 230 -100 c 0
 262 -100 298 -109 334 -124 c 1
 335 -113 335 -102 335 -90 c 1
 415 -90 l 1
 415 -115 412 -139 406 -161 c 1
 438 -180 467 -201 490 -221 c 1
 490 0 l 1
 490 400 l 2
 490 482 438 525 360 525 c 0
 287 525 231 493 209 439 c 1
 340 410 l 1
 340 390 l 1
 340 390 280 373 280 280 c 2
 280 240 l 2xf2c0
 280 194 290 180 290 105 c 0xf1c0
 290 41 239 -10 175 -10 c 0
 111 -10 60 41 60 105 c 0
 60 164 104 212 161 219 c 1
 160 225 160 232 160 240 c 2
 160 280 l 2xfac0
 160 345 189 376 210 390 c 1
 90 420 l 1
 98 474 184 620 360 620 c 0
 501 620 610 535 610 400 c 2
 610 0 l 1
EndSplineSet
Substitution2: "Descent Shorten" uni0E0E.shorten
EndChar

StartChar: uni0E2B
Encoding: 3627 3627 59
Width: 700
VWidth: 0
Flags: W
HStem: 0 21G<160 290 490 610> 380 65<122.079 160> 545 65<121.794 208.206 491.794 578.206>
VStem: 50 65<451.127 538.206> 160 130<0 161.871> 160 120<249 380> 215 65<450.957 537.368> 420 65<451.537 538.206> 490 120<0 344> 585 65<451.234 538.206>
LayerCount: 2
Fore
SplineSet
165 545 m 0xf3
 137 545 115 523 115 495 c 0
 115 467 137 445 165 445 c 0
 193 445 215 467 215 495 c 0
 215 523 193 545 165 545 c 0xf3
535 610 m 0
 599 610 650 559 650 495 c 0xf540
 650 454 628 418 596 397 c 1
 610 390 l 1
 610 0 l 1
 490 0 l 1
 490 344 l 1
 404 311 290 158 290 87 c 2
 290 0 l 1
 160 0 l 1xf980
 160 380 l 1xf5
 99 383 50 433 50 495 c 0
 50 559 101 610 165 610 c 0
 229 610 280 559 280 495 c 2xf3
 280 249 l 1xf5
 306 290 379 376 457 410 c 1
 434 431 420 462 420 495 c 0
 420 559 471 610 535 610 c 0
535 545 m 0
 507 545 485 523 485 495 c 0
 485 467 507 445 535 445 c 0
 563 445 585 467 585 495 c 0
 585 523 563 545 535 545 c 0
EndSplineSet
EndChar

StartChar: uni0E3A
Encoding: 3642 3642 60
Width: 0
VWidth: 0
Flags: W
HStem: -220 150<-221.906 -108.094>
VStem: -240 150<-201.906 -88.094>
LayerCount: 2
Fore
SplineSet
-90 -145 m 0
 -90 -187 -123 -220 -165 -220 c 0
 -207 -220 -240 -187 -240 -145 c 0
 -240 -103 -207 -70 -165 -70 c 0
 -123 -70 -90 -103 -90 -145 c 0
EndSplineSet
Position2: "Vowel Below-Low" dx=0 dy=-200 dh=0 dv=0
EndChar

StartChar: uni0E53
Encoding: 3667 3667 61
Width: 850
VWidth: 0
Flags: W
HStem: -20 75<267.79 371.66> 0 21G<650 770> 185 75<268.179 371.66> 520 100<245.444 356.629>
VStem: 70 120<191.836 443.84> 385 75<68.3404 171.66> 650 120<0 502.042>
LayerCount: 2
Fore
SplineSet
300 520 m 0x7e
 241 520 190 444 190 300 c 0
 190 258 192 220 198 188 c 1
 221 231 267 260 320 260 c 0
 397 260 460 197 460 120 c 0
 460 43 397 -20 320 -20 c 0xbe
 151 -20 70 115 70 300 c 0
 70 485 180 620 300 620 c 0
 385 620 444 568 472 472 c 1
 550 620 l 1
 600 620 l 1
 712 593 770 534 770 360 c 2
 770 0 l 1
 650 0 l 1
 650 360 l 2
 650 459 645 501 600 520 c 1
 490 330 l 1
 390 330 l 1
 390 474 359 520 300 520 c 0x7e
320 185 m 0
 284 185 255 156 255 120 c 0
 255 84 284 55 320 55 c 0
 356 55 385 84 385 120 c 0
 385 156 356 185 320 185 c 0
EndSplineSet
EndChar

StartChar: uni0E24
Encoding: 3620 3620 62
Width: 680
VWidth: 0
Flags: W
HStem: -10 65<191.794 278.206> 155 65<240 277.921> 390 20<289.299 320> 525 95<242.194 427.364>
VStem: 120 120<220 361.244> 120 65<62.6316 149.043> 285 65<61.7943 148.873> 470 120<-270 481.05>
LayerCount: 2
Fore
SplineSet
120 105 m 2xf7
 120 280 l 2
 120 344 149 377 174 394 c 1
 70 420 l 1
 78 474 164 620 340 620 c 0
 481 620 590 535 590 400 c 2
 590 0 l 1
 590 -270 l 1
 470 -270 l 1
 470 0 l 1
 470 400 l 2
 470 482 418 525 340 525 c 0
 267 525 211 493 189 439 c 1
 320 410 l 1
 320 390 l 1
 320 390 240 386 240 280 c 2
 240 220 l 1xfb
 301 217 350 167 350 105 c 0
 350 41 299 -10 235 -10 c 0
 171 -10 120 41 120 105 c 2xf7
235 155 m 0
 207 155 185 133 185 105 c 0xf7
 185 77 207 55 235 55 c 0
 263 55 285 77 285 105 c 0
 285 133 263 155 235 155 c 0
EndSplineSet
EndChar

StartChar: uni0E26
Encoding: 3622 3622 63
Width: 700
VWidth: 0
Flags: W
HStem: -10 65<131.794 218.206> 525 95<262.194 447.364>
VStem: 60 65<61.7943 149.084> 160 120<219.282 364.798> 225 65<61.7943 148.961> 490 120<-270 481.05>
LayerCount: 2
Fore
SplineSet
175 155 m 0xec
 147 155 125 133 125 105 c 0
 125 77 147 55 175 55 c 0
 203 55 225 77 225 105 c 0
 225 133 203 155 175 155 c 0xec
490 0 m 1
 490 400 l 2
 490 482 438 525 360 525 c 0
 287 525 231 493 209 439 c 1
 340 410 l 1
 340 390 l 1
 340 390 280 373 280 280 c 2
 280 240 l 2xf4
 280 194 290 180 290 105 c 0xec
 290 41 239 -10 175 -10 c 0
 111 -10 60 41 60 105 c 0
 60 164 104 212 161 219 c 1
 160 225 160 232 160 240 c 2
 160 280 l 2xf4
 160 345 189 376 210 390 c 1
 90 420 l 1
 98 474 184 620 360 620 c 0
 501 620 610 535 610 400 c 2
 610 0 l 1
 610 -270 l 1
 490 -270 l 1
 490 0 l 1
EndSplineSet
EndChar

StartChar: uni0E45
Encoding: 3653 3653 64
Width: 320
VWidth: 0
Flags: W
HStem: 525 95<-56.7937 76.7937>
VStem: -210 120<400 492.148> 110 120<-270 492.148>
LayerCount: 2
Fore
SplineSet
110 400 m 2
 110 462 89 525 10 525 c 0
 -69 525 -90 462 -90 400 c 1
 -210 400 l 1
 -210 537 -126 620 10 620 c 0
 146 620 230 537 230 400 c 2
 230 0 l 1
 230 -270 l 1
 110 -270 l 1
 110 0 l 1
 110 400 l 2
EndSplineSet
EndChar

StartChar: uni0E50
Encoding: 3664 3664 65
Width: 800
VWidth: 0
Flags: W
HStem: -20 100<301.008 498.992> 520 100<301.008 498.992>
VStem: 70 120<190.291 409.709> 610 120<190.291 409.709>
LayerCount: 2
Fore
SplineSet
400 520 m 0
 275 520 190 421 190 300 c 0
 190 179 275 80 400 80 c 0
 525 80 610 179 610 300 c 0
 610 421 525 520 400 520 c 0
400 620 m 0
 583 620 730 477 730 300 c 0
 730 123 583 -20 400 -20 c 0
 217 -20 70 123 70 300 c 0
 70 477 217 620 400 620 c 0
EndSplineSet
EndChar

StartChar: uni0E27
Encoding: 3623 3623 66
Width: 560
VWidth: 0
Flags: W
HStem: -10 70<316.035 403.965> 160 70<316.112 360> 525 95<180.455 329.545>
VStem: 30 120<420 495.207> 240 70<66.0345 153.965> 360 120<230 495.207> 410 70<66.112 154.043>
LayerCount: 2
Fore
SplineSet
480 110 m 2xfa
 480 44 426 -10 360 -10 c 0
 294 -10 240 44 240 110 c 0
 240 176 294 230 360 230 c 1
 360 420 l 2
 360 476 329 525 255 525 c 0
 181 525 150 476 150 420 c 1
 30 420 l 1
 30 535 112 620 255 620 c 0
 398 620 480 535 480 420 c 2xfc
 480 110 l 2xfa
360 160 m 0
 332 160 310 138 310 110 c 0
 310 82 332 60 360 60 c 0xfc
 388 60 410 82 410 110 c 0xfa
 410 138 388 160 360 160 c 0
EndSplineSet
EndChar

StartChar: uni0E17
Encoding: 3607 3607 67
Width: 690
VWidth: 0
Flags: W
HStem: 0 21G<160 290 500 620> 380 65<122.079 160> 500 110<402.83 492.587> 545 65<121.794 208.206>
VStem: 50 65<451.127 538.206> 160 130<0 293.213> 215 65<450.957 537.368> 500 120<0 495.406>
LayerCount: 2
Fore
SplineSet
160 380 m 1xed
 99 383 50 433 50 495 c 0
 50 559 101 610 165 610 c 0
 229 610 280 559 280 495 c 2
 280 385 l 1xdb
 303 463 366 610 470 610 c 0
 548 610 620 562 620 410 c 2
 620 0 l 1
 500 0 l 1
 500 410 l 2
 500 471 496 500 450 500 c 0
 367 500 303 268 290 180 c 1
 290 0 l 1
 160 0 l 1
 160 380 l 1xed
165 545 m 0
 137 545 115 523 115 495 c 0
 115 467 137 445 165 445 c 0
 193 445 215 467 215 495 c 0
 215 523 193 545 165 545 c 0
EndSplineSet
EndChar

StartChar: uni0E2C
Encoding: 3628 3628 68
Width: 810
VWidth: 0
Flags: W
HStem: 380 65<122.079 160> 545 65<121.794 208.206> 595 55<531.371 618.321>
VStem: 50 65<451.127 538.206> 160 120<127 380> 215 65<450.957 537.368> 470 55<500.933 588.629> 560 120<127 447.746> 680 80<585.083 670>
AnchorPoint: "thai_above" 887.82 630 basechar 0
LayerCount: 2
Fore
SplineSet
680 479 m 1xb280
 680 60 l 2
 680 37 662 17 635 5 c 0
 608 -7 561 -10 530 -10 c 1
 420 375 l 1
 310 -10 l 1
 279 -10 232 -7 205 5 c 0
 178 17 160 37 160 60 c 2
 160 380 l 1xba80
 99 383 50 433 50 495 c 0
 50 559 101 610 165 610 c 0
 229 610 280 559 280 495 c 2xd6
 280 127 l 1
 387 490 l 1
 453 490 l 1
 560 127 l 1
 560 441 l 1
 509 448 470 492 470 545 c 0xdb
 470 603 517 650 575 650 c 0
 619 650 657 623 673 584 c 1
 677 607 680 636 680 670 c 1
 760 670 l 1
 760 590 728 518 680 479 c 1xb280
575 595 m 0
 547 595 525 573 525 545 c 0
 525 517 547 495 575 495 c 0
 603 495 625 517 625 545 c 0xd2
 625 573 603 595 575 595 c 0
165 545 m 0
 137 545 115 523 115 495 c 0
 115 467 137 445 165 445 c 0
 193 445 215 467 215 495 c 0xd6
 215 523 193 545 165 545 c 0
EndSplineSet
EndChar

StartChar: uni0E18
Encoding: 3608 3608 69
Width: 620
VWidth: 0
Flags: W
HStem: -20 100<231.243 388.757> 390 50<191 318.144> 535 75<505.2 550> 540 80<235.501 428.539>
VStem: 90 120<102.226 310> 410 120<102.226 355.782>
LayerCount: 2
Fore
SplineSet
70 390 m 1xdc
 70 540 186 620 320 620 c 0xdc
 404 620 453 583 480 555 c 1
 488 569 519 610 550 610 c 1
 550 535 l 1xec
 519 535 492 495 480 475 c 1
 442 516 389 540 320 540 c 0
 244 540 196 492 191 440 c 1
 385 438 530 422 530 310 c 2
 530 150 l 2
 530 26 422 -20 310 -20 c 0
 198 -20 90 26 90 150 c 2
 90 310 l 1
 210 310 l 1
 210 150 l 2
 210 110 248 80 310 80 c 0
 372 80 410 110 410 150 c 2
 410 310 l 2
 410 386 307 390 70 390 c 1xdc
EndSplineSet
EndChar

StartChar: uni0E10
Encoding: 3600 3600 70
Width: 600
VWidth: 0
Flags: W
HStem: -340 50<96.5923 187.097> -220 50<96.5923 197.341> -200 35<418.207 445> -105 35<417.895 472.105> 120 60<149.269 230.456> 270 60<149.269 229.862> 390 50<191 317.039> 535 75<505.2 550> 540 80<235.501 428.539>
VStem: 40 55<-286.834 -223.166> 85 60<184.269 265.731> 210 55<-192.772 -160> 370 120<139 363.416> 380 35<-162.105 -107.895> 445 65<-279 -200> 475 35<-162.417 -108.207>
LayerCount: 2
Fore
SplineSet
480 555 m 1x9eb8
 488 569 519 610 550 610 c 1
 550 535 l 1x9f38
 519 535 492 495 480 475 c 1
 442 516 389 540 320 540 c 0
 244 540 196 492 191 440 c 1
 380 438 490 422 490 310 c 2
 490 60 l 2
 490 15 394 -10 350 -10 c 1
 340 80 318 146 289 190 c 1
 274 149 236 120 190 120 c 0
 132 120 85 167 85 225 c 0
 85 283 132 330 190 330 c 0
 268 330 335 247 370 139 c 1
 370 310 l 2
 370 386 307 390 70 390 c 1
 70 540 186 620 320 620 c 0
 404 620 453 583 480 555 c 1x9eb8
190 270 m 0
 165 270 145 250 145 225 c 0
 145 200 165 180 190 180 c 0
 215 180 235 200 235 225 c 0
 235 250 215 270 190 270 c 0
198 -245 m 1
 182 -230 164 -220 140 -220 c 0
 115 -220 95 -230 95 -255 c 0xde50
 95 -280 115 -290 140 -290 c 0
 162 -290 185 -280 198 -245 c 1
337 -225 m 1
 310 -330 l 1
 255 -330 l 1
 247 -316 239 -302 231 -288 c 1
 210 -319 180 -340 140 -340 c 0
 90 -340 40 -312 40 -255 c 0
 40 -198 90 -170 140 -170 c 0xde51
 166 -170 189 -179 209 -194 c 1
 210 -184 210 -172 210 -160 c 1
 265 -160 l 1
 265 -187 261 -214 253 -239 c 1
 261 -250 269 -261 276 -272 c 1
 300 -180 l 1
 349 -180 l 1
 360 -180 l 1
 445 -279 l 1
 445 -200 l 1
 409 -200 380 -171 380 -135 c 0
 380 -99 409 -70 445 -70 c 0xbe56
 481 -70 510 -99 510 -135 c 2
 510 -280 l 2xbe11
 510 -318 466 -330 425 -330 c 1
 337 -225 l 1
445 -105 m 0xbe12
 428 -105 415 -118 415 -135 c 0
 415 -152 428 -165 445 -165 c 0xbe16
 462 -165 475 -152 475 -135 c 0xbe11
 475 -118 462 -105 445 -105 c 0xbe12
EndSplineSet
Substitution2: "Descent Substitute" uni0E10.descless
EndChar

StartChar: uni0E2F
Encoding: 3631 3631 71
Width: 560
VWidth: 0
Flags: W
HStem: -20 100<230 331.078> 360 70<184.016 330.816> 550 50<94 166>
VStem: 40 50<473.139 546> 170 50<473.087 546> 360 120<109.019 393> 380 100<481.826 580>
LayerCount: 2
Fore
SplineSet
130 600 m 0xfc
 180 600 220 560 220 510 c 0
 220 480 205 453 182 437 c 1
 201 432 223 430 245 430 c 0
 332 430 380 484 380 580 c 1
 450 580 l 1
 480 580 l 1xfa
 480 170 l 2
 480 53 377 -20 230 -20 c 1
 230 80 l 1
 291 80 360 92 360 170 c 2
 360 393 l 1
 329 372 291 360 245 360 c 0
 147 360 40 404 40 510 c 0
 40 560 80 600 130 600 c 0xfc
130 550 m 0
 108 550 90 532 90 510 c 0
 90 488 108 470 130 470 c 0
 152 470 170 488 170 510 c 0
 170 532 152 550 130 550 c 0
EndSplineSet
EndChar

StartChar: uni0E5A
Encoding: 3674 3674 72
Width: 720
VWidth: 0
Flags: W
HStem: -20 85<240 330.184 470 519.3> 360 70<194.016 340.816> 550 50<104 176>
VStem: 50 50<473.139 546> 180 50<473.087 546> 370 90<104.392 393> 390 70<481.826 580> 540 90<82.5137 580>
LayerCount: 2
Fore
SplineSet
630 170 m 2xf9
 630 53 563 -20 470 -20 c 1
 470 65 l 1
 507 65 540 92 540 170 c 2
 540 580 l 1
 630 580 l 1
 630 170 l 2xf9
140 600 m 0
 190 600 230 560 230 510 c 0
 230 480 215 453 192 437 c 1
 211 432 233 430 255 430 c 0
 342 430 390 484 390 580 c 1
 460 580 l 1xfb
 460 170 l 2
 460 53 354 -20 240 -20 c 1
 240 65 l 1
 301 65 370 92 370 170 c 2
 370 393 l 1xfd
 339 372 301 360 255 360 c 0
 157 360 50 404 50 510 c 0
 50 560 90 600 140 600 c 0
140 550 m 0
 118 550 100 532 100 510 c 0
 100 488 118 470 140 470 c 0
 162 470 180 488 180 510 c 0
 180 532 162 550 140 550 c 0
EndSplineSet
EndChar

StartChar: uni0E13
Encoding: 3603 3603 73
Width: 950
VWidth: 0
Flags: W
HStem: -20 70<726.43 813.965> -10 65<191.794 278.206> 155 65<240 277.921> 390 20<289.299 320> 525 95<242.194 427.364> 580 20G<730 850>
VStem: 120 120<220 361.244> 120 65<62.6316 149.043> 285 65<61.7943 148.873> 470 120<106 481.05> 650 70<57.9276 95> 730 120<217.526 600> 820 70<56.0345 143.954>
LayerCount: 2
Fore
SplineSet
770 150 m 0xb0e8
 742 150 720 128 720 100 c 0
 720 72 742 50 770 50 c 0
 798 50 820 72 820 100 c 0
 820 128 798 150 770 150 c 0xb0e8
235 155 m 0
 207 155 185 133 185 105 c 0
 185 77 207 55 235 55 c 0x71e0
 263 55 285 77 285 105 c 0
 285 133 263 155 235 155 c 0
120 105 m 2
 120 280 l 2
 120 344 149 377 174 394 c 1
 70 420 l 1
 78 474 164 620 340 620 c 0x7ae0
 481 620 590 535 590 400 c 2
 590 130 l 1
 590 106 l 1
 620 158 669 211 730 226 c 1
 730 600 l 1
 850 600 l 1
 850 210 l 1x36f0
 834 202 l 1
 867 181 890 143 890 100 c 0
 890 34 836 -20 770 -20 c 0xb4e8
 705 -20 653 31 650 95 c 1
 615 46 600 -10 600 -10 c 1
 537 -10 470 15 470 60 c 2
 470 130 l 1
 470 400 l 2
 470 482 418 525 340 525 c 0
 267 525 211 493 189 439 c 1
 320 410 l 1
 320 390 l 1
 320 390 240 386 240 280 c 2
 240 220 l 1x7ae8
 301 217 350 167 350 105 c 0
 350 41 299 -10 235 -10 c 0
 171 -10 120 41 120 105 c 2
EndSplineSet
EndChar

StartChar: uni0E08
Encoding: 3592 3592 74
Width: 600
VWidth: 0
Flags: W
HStem: 150 65<166.794 254.012> 315 65<166.794 252.493> 525 95<187.89 362.11>
VStem: 30 120<420 485.904> 95 65<221.794 308.206> 400 120<163 485.904>
LayerCount: 2
Fore
SplineSet
318 225 m 1xf4
 302 181 260 150 210 150 c 0
 146 150 95 201 95 265 c 0xec
 95 329 146 380 210 380 c 0
 302 380 364 281 400 163 c 1
 400 420 l 2
 400 481 356 525 275 525 c 0
 194 525 150 481 150 420 c 1
 30 420 l 1
 30 535 122 620 275 620 c 0
 428 620 520 535 520 420 c 2
 520 60 l 2
 520 15 424 -10 380 -10 c 1
 370 82 348 165 318 225 c 1xf4
210 315 m 0
 182 315 160 293 160 265 c 0
 160 237 182 215 210 215 c 0
 238 215 260 237 260 265 c 0
 260 293 238 315 210 315 c 0
EndSplineSet
EndChar

StartChar: uni0E0D
Encoding: 3597 3597 75
Width: 930
VWidth: 0
Flags: W
HStem: -270 70<610.503 729.296> -110 45<518.203 581.797> -20 85<602.483 717.517> -10 65<191.794 278.206> 155 65<240 277.921> 390 20<289.299 320> 525 95<242.194 427.364> 580 20G<730 850>
VStem: 120 120<220 361.244> 120 65<62.6316 149.043> 285 65<61.7943 148.873> 470 120<78.3716 481.05> 470 45<-176.379 -113.203> 585 45<-177.413 -113.203> 730 120<78.3716 600> 770 90<-161.937 -90>
LayerCount: 2
Fore
SplineSet
550 -65 m 0xcc2d
 594 -65 630 -101 630 -145 c 0
 630 -165 623 -183 610 -197 c 1
 623 -199 636 -200 650 -200 c 0
 711 -200 770 -165 770 -90 c 1
 860 -90 l 1
 860 -216 746 -270 650 -270 c 0
 539 -270 470 -211 470 -145 c 0
 470 -101 506 -65 550 -65 c 0xcc2d
550 -110 m 0
 531 -110 515 -126 515 -145 c 0
 515 -164 531 -180 550 -180 c 0
 569 -180 585 -164 585 -145 c 0
 585 -126 569 -110 550 -110 c 0
235 155 m 0
 207 155 185 133 185 105 c 0
 185 77 207 55 235 55 c 0xdc60
 263 55 285 77 285 105 c 0
 285 133 263 155 235 155 c 0
730 600 m 1xedb2
 850 600 l 1xedb2
 850 130 l 2
 850 92 825 -20 660 -20 c 0
 495 -20 470 92 470 130 c 2
 470 400 l 2
 470 482 418 525 340 525 c 0
 267 525 211 493 189 439 c 1
 320 410 l 1
 320 390 l 1
 320 390 240 386 240 280 c 2
 240 220 l 1xeeb2
 301 217 350 167 350 105 c 0
 350 41 299 -10 235 -10 c 0
 171 -10 120 41 120 105 c 2xde60
 120 280 l 2
 120 344 149 377 174 394 c 1
 70 420 l 1
 78 474 164 620 340 620 c 0xdea0
 481 620 590 535 590 400 c 2
 590 130 l 2
 590 97 607 65 660 65 c 0
 713 65 730 97 730 130 c 2
 730 600 l 1xedb2
EndSplineSet
Substitution2: "Descent Substitute" uni0E0D.descless
EndChar

StartChar: uni0E0F
Encoding: 3599 3599 76
Width: 700
VWidth: 0
Flags: W
HStem: -300 50<119.032 209.809> -170 50<119.032 221.413> -10 65<131.794 218.206> 525 95<262.194 447.364>
VStem: 60 65<61.7943 149.084> 60 56<-246.747 -173.253> 160 120<219.282 364.798> 225 65<61.7943 148.961> 240 60<-145.346 -120> 490 120<-223 481.05>
LayerCount: 2
Fore
SplineSet
227 -199 m 1xf640
 206 -182 183 -170 160 -170 c 0
 136 -170 116 -184 116 -210 c 0
 116 -236 136 -250 160 -250 c 0
 183 -250 210 -236 227 -199 c 1xf640
175 155 m 0
 147 155 125 133 125 105 c 0
 125 77 147 55 175 55 c 0
 203 55 225 77 225 105 c 0xf940
 225 133 203 155 175 155 c 0
490 0 m 1
 490 400 l 2
 490 482 438 525 360 525 c 0
 287 525 231 493 209 439 c 1
 340 410 l 1
 340 390 l 1
 340 390 280 373 280 280 c 2
 280 240 l 2xf240
 280 194 290 180 290 105 c 0
 290 41 239 -10 175 -10 c 0
 111 -10 60 41 60 105 c 0xf940
 60 164 104 212 161 219 c 1
 160 225 160 232 160 240 c 2
 160 280 l 2
 160 345 189 376 210 390 c 1
 90 420 l 1
 98 474 184 620 360 620 c 0
 501 620 610 535 610 400 c 2
 610 0 l 1
 610 -240 l 2
 610 -278 506 -290 466 -290 c 1
 400 -185 l 1
 350 -290 l 1
 296 -290 l 1
 290 -275 279 -257 265 -239 c 1
 239 -276 202 -300 160 -300 c 0
 111 -300 60 -268 60 -210 c 0
 60 -152 111 -120 160 -120 c 0xf640
 189 -120 215 -130 239 -146 c 1
 240 -138 240 -129 240 -120 c 1
 300 -120 l 1xf0c0
 300 -145 296 -169 289 -190 c 1
 299 -202 309 -215 318 -229 c 1
 366 -130 l 1
 426 -130 l 1
 430 -130 l 1
 490 -223 l 1
 490 0 l 1
EndSplineSet
Substitution2: "Descent Shorten" uni0E0F.shorten
EndChar

StartChar: uni0E4B
Encoding: 3659 3659 77
Width: 0
VWidth: 0
Flags: W
HStem: 1110 70<-300 -190 -110 0>
VStem: -190 80<1032 1110 1180 1280>
LayerCount: 2
Fore
SplineSet
-190 1280 m 1
 -110 1280 l 1
 -110 1180 l 1
 0 1180 l 1
 0 1110 l 1
 -110 1110 l 1
 -110 990 l 1
 -190 1032 l 1
 -190 1110 l 1
 -300 1110 l 1
 -300 1180 l 1
 -190 1180 l 1
 -190 1280 l 1
EndSplineSet
Position2: "Nikhahit & Tone High-Left" dx=-240 dy=0 dh=0 dv=0
Position2: "Mai Han-Akat & Tone High-Left" dx=-300 dy=0 dh=0 dv=0
Position2: "Tone High-Left" dx=-180 dy=0 dh=0 dv=0
MultipleSubs2: "Tone High-Low" uni0E4B.low
EndChar

StartChar: uni0E0F.shorten
Encoding: 63290 63290 78
Width: 690
VWidth: 0
Flags: W
HStem: -220 50<119.032 209.809> -90 50<119.032 221.413> -10 65<131.794 218.206> 525 95<262.194 447.364>
VStem: 60 65<61.7943 149.084> 60 56<-166.747 -93.2533> 160 120<219.282 364.798> 225 65<61.7943 148.961> 240 60<-65.3455 -40> 490 120<-143 481.05>
LayerCount: 2
Fore
SplineSet
227 -119 m 1xf640
 206 -102 183 -90 160 -90 c 0
 136 -90 116 -104 116 -130 c 0
 116 -156 136 -170 160 -170 c 0
 183 -170 210 -156 227 -119 c 1xf640
175 155 m 0
 147 155 125 133 125 105 c 0
 125 77 147 55 175 55 c 0
 203 55 225 77 225 105 c 0xf940
 225 133 203 155 175 155 c 0
490 80 m 1
 490 400 l 2
 490 482 438 525 360 525 c 0
 287 525 231 493 209 439 c 1
 340 410 l 1
 340 390 l 1
 340 390 280 373 280 280 c 2
 280 240 l 2xf240
 280 194 290 180 290 105 c 0
 290 41 239 -10 175 -10 c 0
 111 -10 60 41 60 105 c 0xf940
 60 164 104 212 161 219 c 1
 160 225 160 232 160 240 c 2
 160 280 l 2
 160 345 189 376 210 390 c 1
 90 420 l 1
 98 474 184 620 360 620 c 0
 501 620 610 535 610 400 c 2
 610 80 l 1
 610 0 l 1
 610 -160 l 2
 610 -198 506 -210 466 -210 c 1
 400 -105 l 1
 350 -210 l 1
 296 -210 l 1
 290 -195 279 -177 265 -159 c 1
 239 -196 202 -220 160 -220 c 0
 111 -220 60 -188 60 -130 c 0
 60 -72 111 -40 160 -40 c 0xf640
 189 -40 215 -50 239 -66 c 1
 240 -58 240 -49 240 -40 c 1
 300 -40 l 1xf0c0
 300 -65 296 -89 289 -110 c 1
 299 -122 309 -135 318 -149 c 1
 366 -50 l 1
 426 -50 l 1
 430 -50 l 1
 490 -143 l 1
 490 0 l 1
 490 80 l 1
EndSplineSet
EndChar

StartChar: uni0E0E.shorten
Encoding: 63291 63291 79
Width: 690
VWidth: 0
Flags: W
HStem: -220 65<181.941 302.974> -85 65<181.941 316.844> -10 65<131.794 218.206> 525 95<262.194 447.364>
VStem: 60 65<61.7943 149.084> 110 70<-151.021 -88.7015> 160 120<219.282 364.798> 225 65<61.7943 148.961> 335 80<-43.2754 -10> 490 120<-141 481.05>
LayerCount: 2
Fore
SplineSet
230 -155 m 0xf4c0
 271 -155 301 -142 318 -107 c 1
 287 -94 256 -85 230 -85 c 0
 202 -85 180 -94 180 -120 c 0
 180 -145 202 -155 230 -155 c 0xf4c0
175 155 m 0
 147 155 125 133 125 105 c 0
 125 77 147 55 175 55 c 0
 203 55 225 77 225 105 c 0xf9c0
 225 133 203 155 175 155 c 0
490 80 m 1
 490 400 l 2
 490 482 438 525 360 525 c 0
 287 525 231 493 209 439 c 1
 340 410 l 1
 340 390 l 1
 340 390 280 373 280 280 c 2
 280 240 l 2xf2c0
 280 194 290 180 290 105 c 0xf1c0
 290 41 239 -10 175 -10 c 0
 111 -10 60 41 60 105 c 0
 60 164 104 212 161 219 c 1
 160 225 160 232 160 240 c 2
 160 280 l 2xfac0
 160 345 189 376 210 390 c 1
 90 420 l 1
 98 474 184 620 360 620 c 0
 501 620 610 535 610 400 c 2
 610 80 l 1
 610 0 l 1
 610 -160 l 2
 610 -197 511 -210 470 -210 c 1
 450 -190 417 -164 380 -141 c 1
 348 -190 296 -220 230 -220 c 0
 169 -220 110 -183 110 -120 c 0xf4c0
 110 -56 169 -20 230 -20 c 0
 262 -20 298 -29 334 -44 c 1
 335 -33 335 -22 335 -10 c 1
 415 -10 l 1
 415 -35 412 -59 406 -81 c 1
 438 -100 467 -121 490 -141 c 1
 490 0 l 1
 490 80 l 1
EndSplineSet
EndChar

StartChar: uni0E5B
Encoding: 3675 3675 80
Width: 1340
VWidth: 0
Flags: W
HStem: -20 70<286.917 498.592> 150 65<323.106 458.208> 245 55<317.49 372.172> 265 70<1043.22 1260> 380 55<298.366 372.172> 550 70<247.708 420.468>
VStem: 80 80<181.71 445.804> 230 65<302.601 376.519> 375 55<302.828 377.172> 495 80<252.494 462.971>
LayerCount: 2
Fore
SplineSet
335 435 m 0xefc0
 387 435 430 392 430 340 c 0
 430 288 387 245 335 245 c 0
 329 245 323 246 317 247 c 1
 333 225 357 215 390 215 c 0
 453 215 495 262 495 340 c 0
 495 433 458 550 340 550 c 0
 227 550 160 464 160 300 c 0xefc0
 160 162 252 50 390 50 c 0
 608 50 665 289 665 580 c 1
 735 580 l 1
 847 178 l 1
 925 520 l 1
 935 520 l 1
 995 520 l 1
 1000 520 l 1
 1000 419 1029 335 1100 335 c 2
 1260 335 l 1
 1260 265 l 1
 1100 265 l 2xdfc0
 1023 265 981 302 958 358 c 1
 890 60 l 1
 880 60 l 1
 820 60 l 1
 810 60 l 1
 723 371 l 1
 696 158 612 -20 390 -20 c 0
 213 -20 80 123 80 300 c 0
 80 492 188 620 340 620 c 0
 496 620 575 482 575 340 c 0
 575 233 502 150 390 150 c 0
 294 150 230 227 230 320 c 0
 230 385 278 435 335 435 c 0xefc0
335 380 m 0
 313 380 295 362 295 340 c 0
 295 318 313 300 335 300 c 0
 357 300 375 318 375 340 c 0
 375 362 357 380 335 380 c 0
EndSplineSet
EndChar

StartChar: uni0E4E
Encoding: 3662 3662 81
Width: 0
VWidth: 0
Flags: W
HStem: 700 70<-408.116 -300.357> 1060 70<-328.528 -231.134>
VStem: -490 70<781.884 878.923> -410 70<955.089 1048.46> -220 70<1000 1047.75>
LayerCount: 2
Fore
SplineSet
-317 873 m 1
 -328 884 -343 890 -360 890 c 0
 -393 890 -420 864 -420 830 c 0
 -420 797 -393 770 -360 770 c 0
 -343 770 -328 777 -317 788 c 1
 -268 739 l 1
 -291 715 -324 700 -360 700 c 0
 -431 700 -490 759 -490 830 c 0
 -490 888 -452 937 -401 954 c 1
 -406 968 -410 984 -410 1000 c 0
 -410 1072 -351 1130 -280 1130 c 0
 -208 1130 -150 1072 -150 1000 c 1
 -220 1000 l 1
 -220 1034 -246 1060 -280 1060 c 0
 -313 1060 -340 1034 -340 1000 c 0
 -340 984 -333 966 -323 955 c 1
 -302 949 -283 938 -268 922 c 1
 -317 873 l 1
EndSplineSet
EndChar

StartChar: uni0E4F
Encoding: 3663 3663 82
Width: 780
VWidth: 0
Flags: W
HStem: -20 80<283.902 496.098> 140 75<329.967 450.033> 385 75<329.967 450.033> 540 80<283.902 496.098>
VStem: 70 80<193.902 406.098> 230 75<239.967 360.033> 475 75<239.967 360.033> 630 80<193.902 406.098>
LayerCount: 2
Fore
SplineSet
390 385 m 0
 343 385 305 347 305 300 c 0
 305 253 343 215 390 215 c 0
 437 215 475 253 475 300 c 0
 475 347 437 385 390 385 c 0
390 460 m 0
 478 460 550 388 550 300 c 0
 550 212 478 140 390 140 c 0
 302 140 230 212 230 300 c 0
 230 388 302 460 390 460 c 0
390 540 m 0
 257 540 150 433 150 300 c 0
 150 167 257 60 390 60 c 0
 523 60 630 167 630 300 c 0
 630 433 523 540 390 540 c 0
390 620 m 0
 567 620 710 477 710 300 c 0
 710 123 567 -20 390 -20 c 0
 213 -20 70 123 70 300 c 0
 70 477 213 620 390 620 c 0
EndSplineSet
EndChar

StartChar: uni0E51
Encoding: 3665 3665 83
Width: 800
VWidth: 0
Flags: W
HStem: -60 100<400 488.484> 90 90<226.186 343.578> 350 70<346.035 433.965> 520 100<296.104 503.896>
VStem: 70 120<216.75 411.995> 270 70<256.874 343.965> 440 70<256.814 343.965> 610 120<173.217 411.995>
LayerCount: 2
Fore
SplineSet
390 420 m 0
 456 420 510 366 510 300 c 0
 510 184 433 90 295 90 c 0
 157 90 70 184 70 300 c 0
 70 477 206 620 400 620 c 0
 594 620 730 477 730 300 c 0
 730 94 577 -60 400 -60 c 1
 400 40 l 1
 510 40 610 137 610 300 c 0
 610 421 538 520 400 520 c 0
 262 520 190 421 190 300 c 0
 190 234 222 180 295 180 c 0
 313 180 329 183 344 189 c 1
 300 207 270 250 270 300 c 0
 270 366 324 420 390 420 c 0
390 350 m 0
 362 350 340 328 340 300 c 0
 340 272 362 250 390 250 c 0
 418 250 440 272 440 300 c 0
 440 328 418 350 390 350 c 0
EndSplineSet
EndChar

StartChar: uni0E52
Encoding: 3666 3666 84
Width: 930
VWidth: 0
Flags: W
HStem: 0 100<220 740> 180 65<399.402 480.512> 335 65<399.792 480.512> 535 85<385.997 496.432> 790 20G<60 183.81>
VStem: 100 120<100 765.347> 270 90<367.387 508.69> 485 65<249.488 330.512> 740 120<100 516.546>
LayerCount: 2
Fore
SplineSet
440 335 m 0
 415 335 395 315 395 290 c 0
 395 265 415 245 440 245 c 0
 465 245 485 265 485 290 c 0
 485 315 465 335 440 335 c 0
60 810 m 1
 180 810 l 1
 180 810 220 713 220 600 c 2
 220 100 l 1
 740 100 l 1
 740 390 l 2
 740 489 737 511 690 535 c 1
 615 400 l 1
 530 400 l 1
 525 400 l 1
 525 485 497 535 440 535 c 0
 383 535 360 485 360 400 c 0
 360 388 360 377 361 367 c 1
 381 387 409 400 440 400 c 0
 501 400 550 351 550 290 c 0
 550 229 501 180 440 180 c 0
 339 180 270 282 270 400 c 0
 270 518 339 620 440 620 c 0
 507 620 562 575 591 511 c 1
 650 620 l 1
 690 620 l 1
 802 593 860 538 860 390 c 2
 860 100 l 2
 860 50 805 0 750 0 c 2
 210 0 l 2
 155 0 100 50 100 100 c 2
 100 600 l 2
 100 706 60 810 60 810 c 1
EndSplineSet
EndChar

StartChar: uni0E54
Encoding: 3668 3668 85
Width: 890
VWidth: 0
Flags: W
HStem: 0 100<287.885 498 581.338 780> 160 70<541 582.028> 330 70<496.898 583.965> 500 100<287.885 665.449> 790 20G<759.5 880>
VStem: 80 120<191.809 408.191> 410 80<237.596 322.787> 590 70<236.098 323.965> 760 120<700.488 810>
LayerCount: 2
Fore
SplineSet
540 400 m 0
 606 400 660 346 660 280 c 0
 660 214 607 161 541 160 c 1
 568 132 600 111 628 100 c 1
 780 100 l 1
 780 0 l 1
 390 0 l 2
 210 0 80 127 80 300 c 0
 80 473 210 600 390 600 c 2
 570 600 l 2
 701 600 759 712 760 810 c 1
 880 810 l 1
 880 630 750 500 570 500 c 2
 390 500 l 2
 259 500 200 407 200 300 c 0
 200 193 259 100 390 100 c 2
 498 100 l 1
 471 123 410 185 410 270 c 0
 410 344 467 400 540 400 c 0
540 330 m 0
 512 330 490 308 490 280 c 0
 490 252 512 230 540 230 c 0
 568 230 590 252 590 280 c 0
 590 308 568 330 540 330 c 0
EndSplineSet
EndChar

StartChar: uni0E55
Encoding: 3669 3669 86
Width: 890
VWidth: 0
Flags: W
HStem: 0 100<287.885 498 581.338 780> 160 70<541 582.028> 330 70<496.898 583.965> 500 130<445.957 534.043> 500 100<287.885 401 580 664.488> 730 70<446.035 533.965> 790 20G<759.5 880>
VStem: 80 120<191.809 408.191> 370 70<636.104 723.965> 410 80<237.596 322.787> 540 70<636.104 723.965> 590 70<236.098 323.965> 760 120<702.949 810>
LayerCount: 2
Fore
SplineSet
540 330 m 0xe128
 512 330 490 308 490 280 c 0
 490 252 512 230 540 230 c 0xe168
 568 230 590 252 590 280 c 0xe118
 590 308 568 330 540 330 c 0xe128
490 800 m 0xed48
 556 800 610 746 610 680 c 0
 610 649 599 621 580 600 c 1
 704 606 759 714 760 810 c 1
 880 810 l 1
 880 630 750 500 570 500 c 2
 390 500 l 2
 259 500 200 407 200 300 c 0
 200 193 259 100 390 100 c 2
 498 100 l 1
 471 123 410 185 410 270 c 0
 410 344 467 400 540 400 c 0xeb68
 606 400 660 346 660 280 c 0
 660 214 607 161 541 160 c 1
 568 132 600 111 628 100 c 1
 780 100 l 1
 780 0 l 1
 390 0 l 2
 210 0 80 127 80 300 c 0
 80 473 210 600 390 600 c 2
 401 600 l 1
 382 621 370 649 370 680 c 0xeb98
 370 746 424 800 490 800 c 0xed48
490 730 m 0xf568
 462 730 440 708 440 680 c 0xf588
 440 652 462 630 490 630 c 0
 518 630 540 652 540 680 c 0
 540 708 518 730 490 730 c 0xf568
EndSplineSet
EndChar

StartChar: uni0E56
Encoding: 3670 3670 87
Width: 800
VWidth: 0
Flags: W
HStem: -20 100<300.749 523.159> 160 70<245 282.072> 330 70<196.898 283.965> 500 100<234.379 522.115> 790 20G<40 160.5>
VStem: 40 120<679.88 810> 110 80<238.414 322.787> 290 70<236.43 323.965> 610 120<174.865 408.191>
LayerCount: 2
Fore
SplineSet
240 400 m 0xfb80
 306 400 360 346 360 280 c 0
 360 215 309 163 245 160 c 1
 276 105 333 80 420 80 c 0
 545 80 610 164 610 300 c 0
 610 407 551 500 420 500 c 2
 320 500 l 2
 140 500 40 630 40 810 c 1
 160 810 l 1xfd80
 161 712 189 600 320 600 c 2
 420 600 l 2
 600 600 730 473 730 300 c 0
 730 104 600 -20 420 -20 c 0
 223 -20 110 113 110 270 c 0
 110 344 167 400 240 400 c 0xfb80
240 330 m 0
 212 330 190 308 190 280 c 0xfb80
 190 252 212 230 240 230 c 0
 268 230 290 252 290 280 c 0
 290 308 268 330 240 330 c 0
EndSplineSet
EndChar

StartChar: uni0E57
Encoding: 3671 3671 88
Width: 1050
VWidth: 0
Flags: W
HStem: -20 75<267.79 371.66> 185 75<268.179 371.66> 520 100<245.444 356.629> 580 20G<860 970>
VStem: 70 120<191.836 443.84> 385 75<68.3404 171.66> 660 110<88 491.967> 860 110<127.698 600>
LayerCount: 2
Fore
SplineSet
320 185 m 0xcf
 284 185 255 156 255 120 c 0
 255 84 284 55 320 55 c 0
 356 55 385 84 385 120 c 0
 385 156 356 185 320 185 c 0xcf
860 230 m 2
 860 600 l 1
 970 600 l 1xdf
 970 230 l 2
 970 32 842 -10 660 -10 c 1
 660 80 l 1
 660 360 l 2
 660 459 645 501 600 520 c 1
 490 330 l 1
 390 330 l 1
 390 474 359 520 300 520 c 0
 241 520 190 444 190 300 c 0
 190 258 192 220 198 188 c 1
 221 231 267 260 320 260 c 0
 397 260 460 197 460 120 c 0
 460 43 397 -20 320 -20 c 0
 151 -20 70 115 70 300 c 0
 70 485 180 620 300 620 c 0
 385 620 444 568 472 472 c 1
 550 620 l 1
 600 620 l 1xef
 712 593 770 534 770 360 c 2
 770 88 l 1
 833 101 860 138 860 230 c 2
EndSplineSet
EndChar

StartChar: uni0E58
Encoding: 3672 3672 89
Width: 910
VWidth: 0
Flags: W
HStem: -20 85<564.846 696.638> 160 70<656.035 729.322> 330 70<656.035 742.874> 500 100<277.885 655.449> 790 20G<749.5 870>
VStem: 70 120<171.833 408.191> 580 70<236.035 323.965> 750 120<700.488 810> 750 80<235.957 321.421>
LayerCount: 2
Fore
SplineSet
700 400 m 0xff
 780 400 830 329 830 255 c 2
 830 200 l 2xfe80
 830 76 761 -20 635 -20 c 0
 538 -20 464 37 426 130 c 1
 360 -10 l 1
 180 -10 70 127 70 300 c 0
 70 473 200 600 380 600 c 2
 560 600 l 2
 691 600 749 712 750 810 c 1
 870 810 l 1
 870 630 740 500 560 500 c 2
 380 500 l 2
 249 500 190 407 190 300 c 0
 190 211 217 124 303 98 c 1
 390 280 l 1
 400 280 l 1
 450 280 l 1
 500 280 l 1
 500 131 562 65 635 65 c 0
 697 65 727 120 730 164 c 1
 720 161 710 160 700 160 c 0
 634 160 580 214 580 280 c 0
 580 346 634 400 700 400 c 0xff
700 330 m 0
 672 330 650 308 650 280 c 0
 650 252 672 230 700 230 c 0
 728 230 750 252 750 280 c 0
 750 308 728 330 700 330 c 0
EndSplineSet
EndChar

StartChar: uni0E59
Encoding: 3673 3673 90
Width: 960
VWidth: 0
Flags: W
HStem: -20 75<267.79 371.66> 0 21G<571.429 695> 185 75<268.179 371.66> 520 100<245.444 358.998> 790 20G<810 920>
VStem: 70 120<191.836 443.84> 385 75<68.3404 171.66> 650 104<398 503.468> 810 110<426.088 810>
LayerCount: 2
Fore
SplineSet
320 185 m 0xbf80
 284 185 255 156 255 120 c 0
 255 84 284 55 320 55 c 0
 356 55 385 84 385 120 c 0
 385 156 356 185 320 185 c 0xbf80
810 550 m 2
 810 810 l 1
 920 810 l 1
 920 550 l 2
 920 363 832 300 650 300 c 1
 650 360 l 2
 650 459 642 508 590 530 c 1
 521 405 l 1
 695 0 l 1
 580 0 l 1x7f80
 400 420 l 2
 371 488 352 520 300 520 c 0
 241 520 190 444 190 300 c 0
 190 258 192 220 198 188 c 1
 221 231 267 260 320 260 c 0
 397 260 460 197 460 120 c 0
 460 43 397 -20 320 -20 c 0
 151 -20 70 115 70 300 c 0
 70 485 180 620 300 620 c 0
 372 620 433 579 476 509 c 1
 540 620 l 1
 590 620 l 1
 692 596 748 521 754 398 c 1
 803 423 810 474 810 550 c 2
EndSplineSet
EndChar

StartChar: uni0E4A
Encoding: 3658 3658 91
Width: 0
VWidth: 0
Flags: W
HStem: 1026 40<-337.546 -282.458> 1030 50<-196 -172.711> 1126 40<-333.703 -282.458> 1200 56<-330.514 -268.061>
VStem: -400 60<1066.42 1168.19> -280 40<1068.19 1123.54> -166 66<1106.41 1198.22> -76 86<1116.58 1246>
LayerCount: 2
Fore
SplineSet
-196 1200 m 1x7f
 -220 1166 l 1
 -266 1166 l 1
 -269 1183 -278 1200 -300 1200 c 0
 -319 1200 -330 1184 -334 1162 c 1
 -327 1164 -319 1166 -310 1166 c 0
 -272 1166 -240 1134 -240 1096 c 0
 -240 1057 -272 1026 -310 1026 c 0xbf
 -366 1026 -400 1080 -400 1140 c 0
 -400 1201 -356 1256 -300 1256 c 0
 -269 1256 -248 1234 -237 1216 c 1
 -216 1256 l 1
 -196 1256 l 2
 -140 1256 -100 1206 -100 1146 c 0
 -100 1132 -102 1118 -106 1106 c 1
 -89 1117 -76 1150 -76 1246 c 1
 10 1246 l 1
 10 1136 -24 1030 -196 1030 c 1
 -196 1080 l 1
 -174 1080 -166 1106 -166 1146 c 0
 -166 1171 -175 1192 -196 1200 c 1x7f
-310 1126 m 0
 -327 1126 -340 1112 -340 1096 c 0
 -340 1079 -327 1066 -310 1066 c 0
 -294 1066 -280 1079 -280 1096 c 0
 -280 1112 -294 1126 -310 1126 c 0
EndSplineSet
Substitution2: "Thai Tone & Vowel Above-Narrow" uni0E4A.narrow
Position2: "Nikhahit & Tone High-Left" dx=-190 dy=0 dh=0 dv=0
Position2: "Mai Han-Akat & Tone High-Left" dx=-260 dy=0 dh=0 dv=0
Position2: "Tone High-Left" dx=-180 dy=0 dh=0 dv=0
MultipleSubs2: "Tone High-Low" uni0E4A.low
EndChar

StartChar: uni0E3F
Encoding: 3647 3647 92
Width: 780
VWidth: 0
Flags: W
HStem: 0 100<210 330 410 531.589> 365 100<210 330 410 503.598> 705 95<210 330 410 505.662>
VStem: 90 120<100 365 465 705> 330 80<-150 0 100 365 465 704 800 950> 550 120<509.274 663.735> 590 120<153.552 310.656>
LayerCount: 2
Fore
SplineSet
330 950 m 1xfa
 410 950 l 1
 410 800 l 1
 603 796 670 686 670 580 c 0xfc
 670 517 636 460 579 423 c 1
 658 389 710 325 710 230 c 0
 710 83 613 0 460 0 c 2
 410 0 l 1
 410 -150 l 1
 330 -150 l 1
 330 0 l 1
 90 0 l 1
 90 800 l 1
 330 800 l 1
 330 950 l 1xfa
430 100 m 2
 532 100 590 154 590 230 c 0xfa
 590 330 510 365 410 365 c 1
 410 100 l 1
 430 100 l 2
410 704 m 1
 410 465 l 1
 502 465 550 516 550 580 c 0xfc
 550 661 511 698 410 704 c 1
330 465 m 1
 330 705 l 1
 210 705 l 1
 210 465 l 1
 330 465 l 1
330 100 m 1
 330 365 l 1
 210 365 l 1
 210 100 l 1
 330 100 l 1
EndSplineSet
EndChar

StartChar: uni0E11
Encoding: 3601 3601 93
Width: 770
VWidth: 0
Flags: W
HStem: 0 21G<230 360 570 690> 320 45<122.482 197.842> 455 45<121.408 197.842> 500 110<470.789 562.587> 550 60<129.245 216.878>
VStem: 50 65<369.978 498.463> 205 45<372.158 447.842> 230 130<0 296.059> 570 120<0 495.406>
LayerCount: 2
Fore
SplineSet
160 455 m 0xe680
 135 455 115 435 115 410 c 0
 115 385 135 365 160 365 c 0
 185 365 205 385 205 410 c 0
 205 435 185 455 160 455 c 0xe680
275 490 m 1
 230 490 l 1xd580
 223 522 205 550 175 550 c 0
 141 550 123 525 117 489 c 1
 130 496 145 500 160 500 c 0
 210 500 250 460 250 410 c 0
 250 360 210 320 160 320 c 0
 89 320 50 388 50 460 c 0
 50 513 82 610 170 610 c 0
 214 610 245 580 261 547 c 1
 295 610 l 1
 324 610 l 1xee80
 361 599 397 574 417 535 c 1
 450 577 491 610 540 610 c 0
 618 610 690 562 690 410 c 2
 690 0 l 1
 570 0 l 1
 570 410 l 2
 570 471 566 500 520 500 c 0
 488 500 458 466 432 420 c 1
 418 330 360 295 360 200 c 2
 360 0 l 1
 230 0 l 1
 230 200 l 2xd580
 230 336 350 358 350 460 c 0
 350 495 338 518 315 545 c 1
 280 490 l 1
 275 490 l 1
EndSplineSet
EndChar

StartChar: uni0E12
Encoding: 3602 3602 94
Width: 930
VWidth: 0
Flags: W
HStem: -20 70<476.035 563.965> 230 45<292.835 330> 365 45<292.158 367.842> 580 20G<210.5 267.692 392.308 449.5 730 850>
VStem: 70 120<199.645 504.181> 100 120<130 330.575> 240 45<282.158 357.842> 375 45<284.025 357.842> 400 70<56.0345 143.383> 470 120<200.83 504.167> 570 70<56.0345 114.295> 730 120<100 600>
LayerCount: 2
Fore
SplineSet
330 365 m 0xf310
 305 365 285 345 285 320 c 0
 285 295 305 275 330 275 c 0
 355 275 375 295 375 320 c 0
 375 345 355 365 330 365 c 0xf310
730 600 m 1
 850 600 l 1
 850 60 l 2
 850 15 783 -10 720 -10 c 1
 720 -10 695 68 639 115 c 1
 640 110 640 105 640 100 c 0
 640 34 586 -20 520 -20 c 0
 454 -20 400 34 400 100 c 0xf2b0
 400 148 429 190 470 209 c 1
 470 410 l 2
 470 495 425 525 425 525 c 1
 330 460 l 1
 235 525 l 1
 235 525 190 495 190 410 c 0xfa50
 190 279 220 237 220 130 c 1
 255 166 299 194 330 230 c 1
 280 230 240 270 240 320 c 0
 240 370 280 410 330 410 c 0
 380 410 420 370 420 320 c 0
 420 171 220 107 220 -10 c 1
 220 -10 81 -6 80 30 c 1
 80 30 100 79 100 140 c 0xf710
 100 242 70 275 70 410 c 0
 70 544 181 620 240 620 c 1
 330 555 l 1
 420 620 l 1
 479 620 590 544 590 410 c 2
 590 209 l 1xfb50
 653 192 700 146 730 100 c 1
 730 600 l 1
520 150 m 0
 492 150 470 128 470 100 c 0
 470 72 492 50 520 50 c 0
 548 50 570 72 570 100 c 0
 570 128 548 150 520 150 c 0
EndSplineSet
EndChar

StartChar: uni0E0C
Encoding: 3596 3596 95
Width: 930
VWidth: 0
Flags: W
HStem: -20 70<476.035 563.965> -10 65<191.794 278.206> 155 65<240 277.921> 390 20<289.299 320> 525 95<242.194 427.364> 580 20G<730 850>
VStem: 120 120<220 361.244> 120 65<62.6316 149.043> 285 65<61.7943 148.873> 400 70<56.0345 143.383> 470 120<200.83 481.05> 570 70<56.0345 114.295> 730 120<100 600>
LayerCount: 2
Fore
SplineSet
520 150 m 0xb0d8
 492 150 470 128 470 100 c 0
 470 72 492 50 520 50 c 0
 548 50 570 72 570 100 c 0
 570 128 548 150 520 150 c 0xb0d8
235 155 m 0
 207 155 185 133 185 105 c 0
 185 77 207 55 235 55 c 0x7188
 263 55 285 77 285 105 c 0
 285 133 263 155 235 155 c 0
120 105 m 2
 120 280 l 2
 120 344 149 377 174 394 c 1
 70 420 l 1
 78 474 164 620 340 620 c 0x7a88
 481 620 590 535 590 400 c 2
 590 209 l 1
 653 192 700 146 730 100 c 1
 730 600 l 1
 850 600 l 1
 850 60 l 2
 850 15 783 -10 720 -10 c 1x76a8
 720 -10 695 68 639 115 c 1
 640 110 640 105 640 100 c 0
 640 34 586 -20 520 -20 c 0
 454 -20 400 34 400 100 c 0xb0d8
 400 148 429 190 470 209 c 1
 470 400 l 2
 470 482 418 525 340 525 c 0
 267 525 211 493 189 439 c 1
 320 410 l 1
 320 390 l 1
 320 390 240 386 240 280 c 2
 240 220 l 1xbaa8
 301 217 350 167 350 105 c 0
 350 41 299 -10 235 -10 c 0
 171 -10 120 41 120 105 c 2
EndSplineSet
EndChar

StartChar: uni0E09
Encoding: 3593 3593 96
Width: 670
VWidth: 0
Flags: W
HStem: -20 70<446.035 533.965> 310 60<124.269 205.731> 525 95<226.911 413.089>
VStem: 60 60<224.902 305.731> 70 120<420 485.904> 160 110<98 164.43> 210 60<224.412 305.588> 370 70<56.112 103.896> 450 120<218.162 485.904> 540 70<56.0345 143.954>
LayerCount: 2
Fore
SplineSet
370 104 m 1xe140
 315 55 280 -10 280 -10 c 1
 217 -10 160 15 160 60 c 2
 160 160 l 1xe540
 104 163 60 209 60 265 c 0
 60 323 107 370 165 370 c 0
 223 370 270 323 270 265 c 2xf3
 270 98 l 1xe5
 313 153 381 210 450 226 c 1
 450 420 l 2
 450 481 408 525 320 525 c 0
 232 525 190 481 190 420 c 1
 70 420 l 1
 70 535 166 620 320 620 c 0
 474 620 570 535 570 420 c 2
 570 210 l 1xe980
 554 202 l 1
 587 181 610 143 610 100 c 0
 610 34 556 -20 490 -20 c 0
 424 -20 370 34 370 100 c 0
 370 101 370 103 370 104 c 1xe140
165 310 m 0
 140 310 120 290 120 265 c 0
 120 240 140 220 165 220 c 0
 190 220 210 240 210 265 c 0xf3
 210 290 190 310 165 310 c 0
490 150 m 0
 462 150 440 128 440 100 c 0
 440 72 462 50 490 50 c 0
 518 50 540 72 540 100 c 0xe140
 540 128 518 150 490 150 c 0
EndSplineSet
EndChar

StartChar: uni0E0A.alt
Encoding: 3681 3681 97
Width: 680
VWidth: 0
Flags: W
HStem: -20 100<310.987 449.013> 350 45<106.717 182.842> 545 65<156.758 279.441> 550 100<533.104 660>
VStem: 50 50<399.778 479.285> 180 120<94.75 293.087> 190 45<402.158 478.359> 460 120<94.75 403.969>
LayerCount: 2
Fore
SplineSet
460 370 m 2xcd
 460 393 416 419 384 435 c 1
 373 335 300 310 300 200 c 2
 300 140 l 2
 300 102 330 80 380 80 c 0
 430 80 460 102 460 140 c 2
 460 370 l 2xcd
580 370 m 2
 580 140 l 2
 580 92 548 -20 380 -20 c 0
 212 -20 180 92 180 140 c 2
 180 200 l 2
 180 336 300 344 300 460 c 0xdd
 300 513 268 545 215 545 c 0
 194 545 173 540 156 529 c 1
 201 524 235 486 235 440 c 0
 235 390 195 350 145 350 c 0
 90 350 50 395 50 455 c 0
 50 540 120 610 215 610 c 0xeb
 312 610 360 564 377 511 c 1
 437 583 539 650 660 650 c 1
 660 550 l 1xdb
 560 550 474 516 420 474 c 1
 466 459 580 417 580 370 c 2
145 485 m 0
 120 485 100 465 100 440 c 0
 100 415 120 395 145 395 c 0
 170 395 190 415 190 440 c 0xcb
 190 465 170 485 145 485 c 0
EndSplineSet
EndChar

StartChar: uni0E0B.alt
Encoding: 3682 3682 98
Width: 710
VWidth: 0
Flags: W
HStem: -20 100<340.987 479.013> 320 45<122.482 197.842> 455 45<121.408 197.842> 550 100<564.989 690> 550 60<129.245 216.878>
VStem: 50 65<369.978 498.463> 205 45<372.158 447.842> 210 120<94.75 283.656> 490 120<94.75 403.86>
LayerCount: 2
Fore
SplineSet
490 370 m 2xe580
 490 389 460 409 432 425 c 1
 415 331 330 297 330 200 c 2
 330 140 l 2
 330 102 360 80 410 80 c 0
 460 80 490 102 490 140 c 2
 490 370 l 2xe580
160 455 m 0
 135 455 115 435 115 410 c 0
 115 385 135 365 160 365 c 0
 185 365 205 385 205 410 c 0xe680
 205 435 185 455 160 455 c 0
275 490 m 1
 230 490 l 1
 223 522 205 550 175 550 c 0
 141 550 123 525 117 489 c 1
 130 496 145 500 160 500 c 0
 210 500 250 460 250 410 c 0
 250 360 210 320 160 320 c 0
 89 320 50 388 50 460 c 0
 50 513 82 610 170 610 c 0
 214 610 245 580 261 547 c 1
 295 610 l 1
 324 610 l 1xee80
 366 597 407 566 425 517 c 1
 480 587 573 650 690 650 c 1
 690 550 l 1
 587 550 507 514 459 471 c 1
 510 454 610 414 610 370 c 2
 610 140 l 2
 610 92 578 -20 410 -20 c 0
 242 -20 210 92 210 140 c 2
 210 200 l 2xf580
 210 336 350 358 350 460 c 0
 350 495 338 518 315 545 c 1
 280 490 l 1
 275 490 l 1
EndSplineSet
EndChar

StartChar: uni0E28.alt
Encoding: 3683 3683 99
Width: 680
VWidth: 0
Flags: W
HStem: 0 21G<470 590> 230 45<291.325 367.842> 365 45<292.289 367.842> 525 95<233.246 427.006> 570 100<576.451 670>
VStem: 70 120<288.696 482.254> 80 140<16.6331 137.15> 100 120<1.52344 281.878> 375 45<282.158 357.842> 470 120<0 482.657>
LayerCount: 2
Fore
SplineSet
330 365 m 0xe0c0
 305 365 285 345 285 320 c 0
 285 295 305 275 330 275 c 0
 355 275 375 295 375 320 c 0
 375 345 355 365 330 365 c 0xe0c0
330 410 m 0
 380 410 420 370 420 320 c 0
 420 270 380 230 330 230 c 0
 293 230 261 252 247 284 c 1
 227 239 220 177 220 120 c 2xf2c0
 220 -10 l 1xf1c0
 220 -10 81 -6 80 30 c 1xf2c0
 80 30 100 79 100 140 c 0xf1c0
 100 242 70 265 70 400 c 0
 70 537 184 620 330 620 c 0xf4c0
 393 620 450 605 494 576 c 1
 529 625 597 670 670 670 c 1
 670 570 l 1xecc0
 621 570 577 552 550 525 c 1
 575 491 590 449 590 400 c 2
 590 0 l 1
 470 0 l 1
 470 400 l 2
 470 482 421 525 330 525 c 0
 239 525 190 482 190 400 c 0xf4c0
 190 352 194 317 199 287 c 1
 222 355 265 410 330 410 c 0
EndSplineSet
EndChar

StartChar: uni0E2A.alt
Encoding: 3684 3684 100
Width: 660
VWidth: 0
Flags: W
HStem: -20 60<172.273 258.482> 140 60<171.136 258.482> 300 80<208.338 387.601> 525 95<228.553 413.562> 570 100<554.111 650>
VStem: 60 105<65.8329 252.589> 70 120<420 485.904> 265 60<46.5176 133.482> 440 130<16.6331 255.79> 450 120<304 489.938>
LayerCount: 2
Fore
SplineSet
215 140 m 0xe5
 187 140 165 118 165 90 c 0
 165 62 187 40 215 40 c 0
 243 40 265 62 265 90 c 0
 265 118 243 140 215 140 c 0xe5
215 200 m 0
 276 200 325 151 325 90 c 0
 325 29 276 -20 215 -20 c 0
 142 -20 60 48 60 180 c 0xed80
 60 300 155 380 280 380 c 0
 354 380 412 349 450 304 c 1
 450 420 l 2
 450 481 408 525 320 525 c 0
 232 525 190 481 190 420 c 1
 70 420 l 1
 70 535 159 620 320 620 c 0xf340
 385 620 438 606 478 582 c 1
 514 628 580 670 650 670 c 1
 650 570 l 1
 604 570 563 555 536 531 c 1
 558 500 570 462 570 420 c 2xeb40
 570 30 l 2
 570 -6 440 -10 440 -10 c 1
 440 208 l 1xe980
 426 259 382 300 300 300 c 0
 220 300 174 264 170 191 c 1
 184 197 199 200 215 200 c 0
EndSplineSet
EndChar

StartChar: uni0E2E.alt
Encoding: 3686 3686 101
Width: 660
VWidth: 0
Flags: W
HStem: -20 100<221.328 418.55> 325 55<141.371 228.629> 525 95<219.069 410.765> 570 100<554.757 650>
VStem: 60 120<420 485.904> 80 120<103.19 177.746> 80 55<230.957 318.216> 235 55<230.933 318.629> 450 120<112.149 486.099>
LayerCount: 2
Fore
SplineSet
185 325 m 0xc380
 157 325 135 303 135 275 c 0
 135 247 157 225 185 225 c 0
 213 225 235 247 235 275 c 0
 235 303 213 325 185 325 c 0xc380
185 380 m 0
 243 380 290 333 290 275 c 0
 290 222 251 178 200 171 c 1
 200 160 l 2xd580
 200 95 256 80 325 80 c 0
 394 80 450 105 450 170 c 2
 450 420 l 2
 450 481 403 525 315 525 c 0
 227 525 180 481 180 420 c 1
 60 420 l 1
 60 535 154 620 315 620 c 0xe980
 381 620 436 606 477 581 c 1
 513 628 580 670 650 670 c 1
 650 570 l 1
 604 570 562 554 535 530 c 1
 558 499 570 461 570 420 c 2
 570 170 l 2
 570 34 467 -20 325 -20 c 0
 183 -20 80 24 80 160 c 2xd580
 80 275 l 2
 80 333 127 380 185 380 c 0
EndSplineSet
EndChar

StartChar: B
Encoding: 66 66 102
Width: 780
VWidth: 0
Flags: W
HStem: 0 100<210 531.589> 365 100<210 503.598> 705 95<210 505.858>
VStem: 90 120<100 365 465 705> 550 120<509.274 661.652> 590 120<153.552 310.656>
AnchorPoint: "diac_top" 360 850 basechar 0
AnchorPoint: "cedilla" 377.004 40 basechar 0
AnchorPoint: "ogonek" 377.004 40 basechar 0
AnchorPoint: "diac_bottom" 338.744 -50 basechar 0
LayerCount: 2
Fore
SplineSet
380 705 m 2xf8
 210 705 l 1
 210 465 l 1
 410 465 l 2
 502 465 550 516 550 580 c 0
 550 669 503 705 380 705 c 2xf8
460 0 m 2
 90 0 l 1
 90 800 l 1
 400 800 l 2
 601 800 670 688 670 580 c 0xf8
 670 517 636 460 579 423 c 1
 658 389 710 325 710 230 c 0xf4
 710 83 613 0 460 0 c 2
430 100 m 2
 532 100 590 154 590 230 c 0xf4
 590 330 510 365 410 365 c 2
 210 365 l 1
 210 100 l 1
 430 100 l 2
EndSplineSet
EndChar

StartChar: period
Encoding: 46 46 103
Width: 320
VWidth: 0
Flags: W
HStem: 0 160<100.496 219.504>
VStem: 80 160<20.4964 139.504>
LayerCount: 2
Fore
SplineSet
240 80 m 0
 240 35 205 0 160 0 c 0
 115 0 80 35 80 80 c 0
 80 125 115 160 160 160 c 0
 205 160 240 125 240 80 c 0
EndSplineSet
EndChar

StartChar: x
Encoding: 120 120 104
Width: 650
VWidth: 0
Flags: W
HStem: 0 21G<15 169.978 480.022 635> 580 20G<45 199.973 450.027 605>
AnchorPoint: "diac_top" 325 650 basechar 0
AnchorPoint: "cedilla" 100 40 basechar 0
AnchorPoint: "diac_bottom" 325 -50 basechar 0
LayerCount: 2
Fore
SplineSet
45 600 m 1
 185 600 l 1
 325 413 l 1
 465 600 l 1
 605 600 l 1
 395 320 l 1
 635 0 l 1
 495 0 l 1
 325 227 l 1
 155 0 l 1
 15 0 l 1
 255 320 l 1
 45 600 l 1
EndSplineSet
EndChar

StartChar: i
Encoding: 105 105 105
Width: 320
VWidth: 0
Flags: W
HStem: 0 21G<100 220> 580 20G<100 220> 700 160<100.496 219.504>
VStem: 80 160<720.496 839.504> 100 120<0 600>
AnchorPoint: "diac_bottom" 160 -50 basechar 0
AnchorPoint: "ogonek" 170 40 basechar 0
AnchorPoint: "cedilla" 177.004 40 basechar 0
LayerCount: 2
Fore
SplineSet
240 780 m 0xf0
 240 735 205 700 160 700 c 0
 115 700 80 735 80 780 c 0
 80 825 115 860 160 860 c 0
 205 860 240 825 240 780 c 0xf0
100 600 m 1xe8
 220 600 l 1
 220 0 l 1
 100 0 l 1
 100 600 l 1xe8
EndSplineSet
EndChar

StartChar: o
Encoding: 111 111 106
Width: 660
VWidth: 0
Flags: W
HStem: -20 100<235.717 424.283> 525 95<239.678 420.322>
VStem: 60 120<137.323 465.395> 480 120<137.323 465.395>
AnchorPoint: "diac_top" 330 650 basechar 0
AnchorPoint: "ogonek" 350 40 basechar 0
AnchorPoint: "cedilla" 340 40 basechar 0
AnchorPoint: "diac_bottom" 330 -50 basechar 0
LayerCount: 2
Fore
SplineSet
330 525 m 0
 255 525 180 489 180 360 c 2
 180 220 l 2
 180 111 265 80 330 80 c 0
 395 80 480 111 480 220 c 2
 480 360 l 2
 480 489 405 525 330 525 c 0
330 620 m 0
 484 620 600 528 600 360 c 2
 600 220 l 2
 600 57 484 -20 330 -20 c 0
 176 -20 60 57 60 220 c 2
 60 360 l 2
 60 528 176 620 330 620 c 0
EndSplineSet
EndChar

StartChar: O
Encoding: 79 79 107
Width: 800
VWidth: 0
Flags: W
HStem: -20 100<284.612 515.388> 725 95<291.489 508.511>
VStem: 70 120<175.654 624.08> 610 120<175.654 624.467>
AnchorPoint: "ring_above" 400 750 basechar 0
AnchorPoint: "diac_top" 400 850 basechar 0
AnchorPoint: "ogonek" 430 40 basechar 0
AnchorPoint: "cedilla" 420 40 basechar 0
AnchorPoint: "diac_bottom" 400 -50 basechar 0
LayerCount: 2
Fore
SplineSet
610 520 m 2
 610 649 517 725 400 725 c 0
 283 725 190 649 190 520 c 2
 190 270 l 2
 190 150 279 80 400 80 c 0
 521 80 610 150 610 270 c 2
 610 520 l 2
730 520 m 2
 730 270 l 2
 730 88 587 -20 400 -20 c 0
 213 -20 70 88 70 270 c 2
 70 520 l 2
 70 706 213 820 400 820 c 0
 587 820 730 707 730 520 c 2
EndSplineSet
EndChar

StartChar: I
Encoding: 73 73 108
Width: 320
VWidth: 0
Flags: W
HStem: 0 21G<100 220> 780 20G<100 220>
VStem: 100 120<0 800>
AnchorPoint: "diac_top" 160 850 basechar 0
AnchorPoint: "hook_above" 160 850 basechar 0
AnchorPoint: "ogonek" 170 40 basechar 0
AnchorPoint: "cedilla" 177.004 40 basechar 0
AnchorPoint: "diac_bottom" 160 -50 basechar 0
LayerCount: 2
Fore
SplineSet
100 800 m 1
 220 800 l 1
 220 0 l 1
 100 0 l 1
 100 800 l 1
EndSplineSet
EndChar

StartChar: X
Encoding: 88 88 109
Width: 770
VWidth: 0
Flags: W
HStem: 0 21G<5 164.373 605.627 765> 780 20G<45 204.391 565.609 725>
AnchorPoint: "diac_top" 385 850 basechar 0
AnchorPoint: "ring_above" 385 750 basechar 0
AnchorPoint: "cedilla" 90 40 basechar 0
AnchorPoint: "diac_bottom" 385 -50 basechar 0
LayerCount: 2
Fore
SplineSet
45 800 m 1
 190 800 l 1
 385 529 l 1
 580 800 l 1
 725 800 l 1
 458 428 l 1
 765 0 l 1
 620 0 l 1
 385 327 l 1
 150 0 l 1
 5 0 l 1
 312 428 l 1
 45 800 l 1
EndSplineSet
EndChar

StartChar: H
Encoding: 72 72 110
Width: 800
VWidth: 0
Flags: W
HStem: 0 21G<90 210 590 710> 350 100<210 590> 780 20G<90 210 590 710>
VStem: 90 120<0 350 450 800> 590 120<0 350 450 800>
AnchorPoint: "diac_bottom" 400 -50 basechar 0
AnchorPoint: "diac_top" 400 850 basechar 0
AnchorPoint: "cedilla" 140 40 basechar 0
LayerCount: 2
Fore
SplineSet
710 0 m 1
 590 0 l 1
 590 350 l 1
 210 350 l 1
 210 0 l 1
 90 0 l 1
 90 355 l 1
 90 445 l 1
 90 800 l 1
 210 800 l 1
 210 450 l 1
 590 450 l 1
 590 800 l 1
 710 800 l 1
 710 445 l 1
 710 355 l 1
 710 0 l 1
EndSplineSet
EndChar

StartChar: P
Encoding: 80 80 111
Width: 740
VWidth: 0
Flags: W
HStem: 0 21G<90 210> 310 95<210 497.141> 705 95<210 497.141>
VStem: 90 120<0 310 405 705> 570 120<470.749 639.251>
AnchorPoint: "diac_bottom" 338.744 -50 basechar 0
AnchorPoint: "diac_top" 360 850 basechar 0
LayerCount: 2
Fore
SplineSet
420 800 m 2
 621 800 690 663 690 555 c 0
 690 447 621 310 420 310 c 2
 210 310 l 1
 210 0 l 1
 90 0 l 1
 90 800 l 1
 420 800 l 2
400 705 m 2
 210 705 l 1
 210 405 l 1
 400 405 l 2
 523 405 570 484 570 555 c 0
 570 626 523 705 400 705 c 2
EndSplineSet
EndChar

StartChar: p
Encoding: 112 112 112
Width: 710
VWidth: 0
Flags: W
HStem: -20 95<272.788 451.729> 520 100<278.152 456.462> 580 20G<90 210>
VStem: 90 120<-270 52 125.72 470.036 534 600> 520 120<150.364 455.567>
AnchorPoint: "diac_bottom" 420 -50 basechar 0
AnchorPoint: "diac_top" 360 650 basechar 0
LayerCount: 2
Fore
SplineSet
210 432 m 1xd8
 210 164 l 1
 235 111 285 75 360 75 c 0
 440 75 520 118 520 260 c 2
 520 360 l 2
 520 474 445 520 360 520 c 0
 282 520 230 476 210 432 c 1xd8
210 -270 m 1
 90 -270 l 1
 90 600 l 1
 210 600 l 1xb8
 210 534 l 1
 247 584 305 620 380 620 c 0
 536 620 640 519 640 360 c 2
 640 260 l 2
 640 72 524 -20 380 -20 c 0
 311 -20 253 9 210 52 c 1
 210 -270 l 1
EndSplineSet
EndChar

StartChar: K
Encoding: 75 75 113
Width: 730
VWidth: 0
Flags: W
HStem: 0 21G<90 210 556.162 710> 370 100<210 296> 780 20G<90 210 515.818 660>
VStem: 90 120<0 370 470 800>
AnchorPoint: "diac_top" 370 850 basechar 0
AnchorPoint: "diac_bottom" 370 -50 basechar 0
LayerCount: 2
Fore
SplineSet
530 800 m 1
 660 800 l 1
 400 440 l 1
 710 0 l 1
 570 0 l 1
 314 370 l 1
 210 370 l 1
 210 0 l 1
 90 0 l 1
 90 800 l 1
 210 800 l 1
 210 470 l 1
 296 470 l 1
 530 800 l 1
EndSplineSet
EndChar

StartChar: j
Encoding: 106 106 114
Width: 340
VWidth: 0
Flags: W
HStem: -290 100<-10 81.3765> 580 20G<120 240> 700 160<120.496 239.504>
VStem: 100 160<720.496 839.504> 120 120<-151.51 600>
AnchorPoint: "diac_bottom" 358.744 -50 basechar 0
LayerCount: 2
Fore
SplineSet
260 780 m 0xf0
 260 735 225 700 180 700 c 0
 135 700 100 735 100 780 c 0
 100 825 135 860 180 860 c 0
 225 860 260 825 260 780 c 0xf0
240 -100 m 2xe8
 240 -217 157 -290 -10 -290 c 1
 -10 -190 l 1
 61 -190 120 -158 120 -90 c 2
 120 600 l 1
 240 600 l 1
 240 -100 l 2xe8
EndSplineSet
EndChar

StartChar: D
Encoding: 68 68 115
Width: 780
VWidth: 0
Flags: W
HStem: 0 100<210 482.715> 705 95<210 467.673>
VStem: 90 120<100 705> 600 120<214.51 582.895>
AnchorPoint: "diac_top" 350 850 basechar 0
AnchorPoint: "ogonek" 370 40 basechar 0
AnchorPoint: "cedilla" 370 40 basechar 0
AnchorPoint: "diac_bottom" 338.744 -50 basechar 0
LayerCount: 2
Fore
SplineSet
300 705 m 2
 210 705 l 1
 210 100 l 1
 340 100 l 2
 479 100 600 153 600 330 c 2
 600 450 l 2
 600 629 511 705 300 705 c 2
320 800 m 2
 591 800 720 684 720 450 c 2
 720 330 l 2
 720 101 601 0 360 0 c 2
 90 0 l 1
 90 800 l 1
 320 800 l 2
EndSplineSet
EndChar

StartChar: E
Encoding: 69 69 116
Width: 670
VWidth: 0
Flags: W
HStem: 0 100<210 610> 350 100<210 570> 700 100<210 600>
VStem: 90 120<100 350 450 700>
CounterMasks: 1 e0
AnchorPoint: "hook_above" 335 850 basechar 0
AnchorPoint: "diac_top" 335 850 basechar 0
AnchorPoint: "cedilla" 360 40 basechar 0
AnchorPoint: "ogonek" 540 40 basechar 0
AnchorPoint: "diac_bottom" 328.744 -50 basechar 0
LayerCount: 2
Fore
SplineSet
210 100 m 1
 610 100 l 1
 610 0 l 1
 210 0 l 1
 90 0 l 1
 90 90 l 1
 90 355 l 1
 90 445 l 1
 90 710 l 1
 90 800 l 1
 210 800 l 1
 600 800 l 1
 600 700 l 1
 210 700 l 1
 210 450 l 1
 570 450 l 1
 570 350 l 1
 210 350 l 1
 210 100 l 1
EndSplineSet
EndChar

StartChar: L
Encoding: 76 76 117
Width: 590
VWidth: 0
Flags: W
HStem: 0 100<210 580> 780 20G<90 210>
VStem: 90 120<100 800>
AnchorPoint: "diac_top" 150 850 basechar 0
AnchorPoint: "diac_bottom" 300 -50 basechar 0
LayerCount: 2
Fore
SplineSet
210 100 m 1
 580 100 l 1
 580 0 l 1
 210 0 l 1
 90 0 l 1
 90 90 l 1
 90 800 l 1
 210 800 l 1
 210 100 l 1
EndSplineSet
EndChar

StartChar: F
Encoding: 70 70 118
Width: 650
VWidth: 0
Flags: W
HStem: 0 21G<90 210> 350 100<210 570> 700 100<210 600>
VStem: 90 120<0 350 450 700>
AnchorPoint: "diac_bottom" 328.744 -50 basechar 0
AnchorPoint: "diac_top" 335 850 basechar 0
LayerCount: 2
Fore
SplineSet
210 0 m 1
 90 0 l 1
 90 355 l 1
 90 445 l 1
 90 710 l 1
 90 800 l 1
 210 800 l 1
 600 800 l 1
 600 700 l 1
 210 700 l 1
 210 450 l 1
 570 450 l 1
 570 350 l 1
 210 350 l 1
 210 0 l 1
EndSplineSet
EndChar

StartChar: J
Encoding: 74 74 119
Width: 540
VWidth: 0
Flags: W
HStem: -20 100<171.018 306.345> 780 20G<330 450>
VStem: 30 120<103.656 160> 330 120<103.656 800>
AnchorPoint: "diac_top" 390 850 basechar 0
AnchorPoint: "diac_bottom" 240 -50 basechar 0
LayerCount: 2
Fore
SplineSet
240 -20 m 0
 106 -20 30 53 30 160 c 1
 150 160 l 1
 150 114 184 80 240 80 c 0
 295 80 330 114 330 160 c 2
 330 800 l 1
 450 800 l 1
 450 160 l 2
 450 53 375 -20 240 -20 c 0
EndSplineSet
EndChar

StartChar: T
Encoding: 84 84 120
Width: 580
VWidth: 0
Flags: W
HStem: 0 21G<230 350> 700 100<40 230 350 540>
VStem: 230 120<0 700>
AnchorPoint: "diac_top" 290 850 basechar 0
AnchorPoint: "cedilla" 280 40 basechar 0
AnchorPoint: "diac_bottom" 290 -50 basechar 0
LayerCount: 2
Fore
SplineSet
40 700 m 1
 40 800 l 1
 230 800 l 1
 350 800 l 1
 540 800 l 1
 540 700 l 1
 350 700 l 1
 350 0 l 1
 230 0 l 1
 230 700 l 1
 40 700 l 1
EndSplineSet
EndChar

StartChar: N
Encoding: 78 78 121
Width: 800
VWidth: 0
Flags: W
HStem: 0 21G<90 210 577.742 710> 780 20G<90 222.258 590 710>
VStem: 90 120<0 620> 590 120<180 800>
AnchorPoint: "diac_top" 400 850 basechar 0
AnchorPoint: "cedilla" 130 40 basechar 0
AnchorPoint: "diac_bottom" 400 -50 basechar 0
LayerCount: 2
Fore
SplineSet
210 0 m 1
 90 0 l 1
 90 800 l 1
 210 800 l 1
 590 180 l 1
 590 800 l 1
 710 800 l 1
 710 0 l 1
 590 0 l 1
 210 620 l 1
 210 0 l 1
EndSplineSet
EndChar

StartChar: M
Encoding: 77 77 122
Width: 960
VWidth: 0
Flags: W
HStem: 0 21G<90 210 442.131 517.869 750 870> 780 20G<90 247.742 712.258 870>
VStem: 90 120<0 610> 750 120<0 610>
AnchorPoint: "diac_bottom" 480 -50 basechar 0
AnchorPoint: "diac_top" 480 850 basechar 0
AnchorPoint: "cedilla" 470 40 basechar 0
LayerCount: 2
Fore
SplineSet
870 0 m 1
 750 0 l 1
 750 610 l 1
 510 0 l 1
 480 0 l 1
 450 0 l 1
 210 610 l 1
 210 0 l 1
 90 0 l 1
 90 800 l 1
 210 800 l 1
 240 800 l 1
 480 180 l 1
 720 800 l 1
 750 800 l 1
 870 800 l 1
 870 0 l 1
EndSplineSet
EndChar

StartChar: U
Encoding: 85 85 123
Width: 800
VWidth: 0
Flags: W
HStem: -20 100<293.38 506.62> 780 20G<80 200 600 720>
VStem: 80 120<172.438 800> 600 120<172.438 800>
AnchorPoint: "hook_above" 400 850 basechar 0
AnchorPoint: "ring_above" 400 750 basechar 0
AnchorPoint: "diac_top" 400 850 basechar 0
AnchorPoint: "ogonek" 430 40 basechar 0
AnchorPoint: "cedilla" 417.004 40 basechar 0
AnchorPoint: "diac_bottom" 400 -50 basechar 0
LayerCount: 2
Fore
SplineSet
80 800 m 1
 200 800 l 1
 200 280 l 2
 200 131 307 80 400 80 c 0
 493 80 600 131 600 280 c 2
 600 800 l 1
 720 800 l 1
 720 280 l 2
 720 85 583 -20 400 -20 c 0
 217 -20 80 85 80 280 c 2
 80 800 l 1
EndSplineSet
EndChar

StartChar: b
Encoding: 98 98 124
Width: 710
VWidth: 0
Flags: W
HStem: -20 100<278.152 456.462> 0 21G<90 210> 525 95<272.788 451.729> 880 20G<90 210>
VStem: 90 120<0 66 129.964 474.28 548 900> 520 120<144.433 449.636>
AnchorPoint: "diac_top" 410 650 basechar 0
AnchorPoint: "diac_bottom" 360 -50 basechar 0
LayerCount: 2
Fore
SplineSet
210 168 m 1xbc
 230 124 282 80 360 80 c 0
 445 80 520 126 520 240 c 2
 520 340 l 2
 520 482 440 525 360 525 c 0
 285 525 235 489 210 436 c 1
 210 168 l 1xbc
210 900 m 1
 210 548 l 1
 253 591 311 620 380 620 c 0
 524 620 640 528 640 340 c 2
 640 240 l 2
 640 81 536 -20 380 -20 c 0xbc
 305 -20 247 16 210 66 c 1
 210 0 l 1
 90 0 l 1x7c
 90 900 l 1
 210 900 l 1
EndSplineSet
EndChar

StartChar: R
Encoding: 82 82 125
Width: 780
VWidth: 0
Flags: W
HStem: 0 21G<90 210 598.129 750> 310 95<210 426> 705 95<210 497.141>
VStem: 90 120<0 310 405 705> 570 120<470.981 639.251>
AnchorPoint: "diac_top" 360 850 basechar 0
AnchorPoint: "diac_bottom" 380 -50 basechar 0
LayerCount: 2
Fore
SplineSet
420 800 m 2
 621 800 690 663 690 555 c 0
 690 473 650 375 544 332 c 1
 750 0 l 1
 610 0 l 1
 426 310 l 1
 424 310 422 310 420 310 c 2
 210 310 l 1
 210 0 l 1
 90 0 l 1
 90 800 l 1
 420 800 l 2
400 705 m 2
 210 705 l 1
 210 405 l 1
 400 405 l 2
 523 405 570 484 570 555 c 0
 570 626 523 705 400 705 c 2
EndSplineSet
EndChar

StartChar: V
Encoding: 86 86 126
Width: 800
VWidth: 0
Flags: W
HStem: 0 21G<332 468> 780 20G<20 157.752 642.248 780>
AnchorPoint: "diac_top" 400 850 basechar 0
AnchorPoint: "diac_bottom" 400 -50 basechar 0
LayerCount: 2
Fore
SplineSet
340 0 m 1
 20 800 l 1
 150 800 l 1
 400 155 l 1
 650 800 l 1
 780 800 l 1
 460 0 l 1
 340 0 l 1
EndSplineSet
EndChar

StartChar: Y
Encoding: 89 89 127
Width: 700
VWidth: 0
Flags: W
HStem: 0 21G<290 410> 780 20G<20 170.556 529.444 680>
VStem: 290 120<0 320>
AnchorPoint: "hook_above" 350 850 basechar 0
AnchorPoint: "diac_bottom" 350 -50 basechar 0
AnchorPoint: "ring_above" 350 750 basechar 0
AnchorPoint: "diac_top" 350 850 basechar 0
LayerCount: 2
Fore
SplineSet
20 800 m 1
 160 800 l 1
 350 440 l 1
 540 800 l 1
 680 800 l 1
 410 320 l 1
 410 0 l 1
 290 0 l 1
 290 320 l 1
 20 800 l 1
EndSplineSet
EndChar

StartChar: A
Encoding: 65 65 128
Width: 800
VWidth: 0
Flags: W
HStem: 0 21G<20 157.75 642.25 780> 160 100<251 549> 780 20G<332 468>
AnchorPoint: "diac_top" 400 850 basechar 0
AnchorPoint: "hook_above" 400 850 basechar 0
AnchorPoint: "ring_above" 400 750 basechar 0
AnchorPoint: "diac_bottom" 400 -50 basechar 0
AnchorPoint: "ogonek" 700 40 basechar 0
AnchorPoint: "cedilla" 707.004 40 basechar 0
LayerCount: 2
Fore
SplineSet
549 260 m 1
 400 645 l 1
 251 260 l 1
 549 260 l 1
780 0 m 1
 650 0 l 1
 588 160 l 1
 212 160 l 1
 150 0 l 1
 20 0 l 1
 340 800 l 1
 460 800 l 1
 780 0 l 1
EndSplineSet
EndChar

StartChar: Q
Encoding: 81 81 129
Width: 800
VWidth: 0
Flags: W
HStem: -20 100<284.612 511.128> 725 95<291.489 508.511>
VStem: 70 120<175.654 624.08> 610 120<172.853 624.467>
AnchorPoint: "diac_bottom" 400 -50 basechar 0
AnchorPoint: "diac_top" 400 850 basechar 0
AnchorPoint: "ring_above" 400 750 basechar 0
LayerCount: 2
Fore
SplineSet
730 520 m 2
 730 270 l 2
 730 195 706 132 664 85 c 1
 765 -15 l 1
 700 -80 l 1
 592 27 l 1
 538 -4 472 -20 400 -20 c 0
 213 -20 70 88 70 270 c 2
 70 520 l 2
 70 706 213 820 400 820 c 0
 587 820 730 707 730 520 c 2
410 205 m 1
 475 270 l 1
 581 166 l 1
 600 194 610 229 610 270 c 2
 610 520 l 2
 610 649 517 725 400 725 c 0
 283 725 190 649 190 520 c 2
 190 270 l 2
 190 150 279 80 400 80 c 0
 442 80 480 88 512 105 c 1
 410 205 l 1
EndSplineSet
EndChar

StartChar: Z
Encoding: 90 90 130
Width: 740
VWidth: 0
Flags: W
HStem: 0 110<210 690> 700 100<80 520>
AnchorPoint: "diac_top" 370 850 basechar 0
AnchorPoint: "cedilla" 380 40 basechar 0
AnchorPoint: "diac_bottom" 370 -50 basechar 0
LayerCount: 2
Fore
SplineSet
80 800 m 1
 670 800 l 1
 670 700 l 1
 210 110 l 1
 690 110 l 1
 690 0 l 1
 50 0 l 1
 50 110 l 1
 520 700 l 1
 80 700 l 1
 80 800 l 1
EndSplineSet
EndChar

StartChar: W
Encoding: 87 87 131
Width: 1100
VWidth: 0
Flags: W
HStem: 0 21G<254 385.629 714.371 846> 780 20G<20 155.733 489.366 610.634 944.267 1080>
AnchorPoint: "diac_top" 550 850 basechar 0
AnchorPoint: "diac_bottom" 550 -50 basechar 0
AnchorPoint: "ring_above" 550 750 basechar 0
LayerCount: 2
Fore
SplineSet
1080 800 m 1
 840 0 l 1
 830 0 l 1
 720 0 l 1
 550 604 l 1
 380 0 l 1
 270 0 l 1
 260 0 l 1
 20 800 l 1
 150 800 l 1
 324 193 l 1
 495 800 l 1
 605 800 l 1
 776 193 l 1
 950 800 l 1
 1080 800 l 1
EndSplineSet
EndChar

StartChar: S
Encoding: 83 83 132
Width: 790
VWidth: 0
Flags: W
HStem: -20 100<274.892 524.353> 720 100<276.114 503.886>
VStem: 70 120<158.418 250> 90 120<530.687 661.975> 570 120<590 659.859> 600 120<144.543 298.932>
AnchorPoint: "diac_bottom" 395 -50 basechar 0
AnchorPoint: "diac_top" 395 850 basechar 0
AnchorPoint: "cedilla" 420 40 basechar 0
LayerCount: 2
Fore
SplineSet
720 230 m 0xd4
 720 78 581 -20 395 -20 c 0
 198 -20 70 88 70 250 c 1
 190 250 l 1
 190 147 257 80 395 80 c 0
 533 80 600 137 600 230 c 0xe4
 600 324 510 357 390 370 c 0
 282 382 90 416 90 590 c 0
 90 694 202 820 390 820 c 0
 578 820 690 694 690 590 c 1
 570 590 l 1xd8
 570 665 508 720 390 720 c 0
 272 720 210 665 210 590 c 0
 210 518 290 490 390 480 c 0
 552 464 720 426 720 230 c 0xd4
EndSplineSet
EndChar

StartChar: u
Encoding: 117 117 133
Width: 660
VWidth: 0
Flags: W
HStem: -20 100<243.681 416.319> 580 20G<80 200 460 580>
VStem: 80 120<121.514 600> 460 120<121.514 600>
AnchorPoint: "diac_top" 330 650 basechar 0
AnchorPoint: "hook_above" 330 680 basechar 0
AnchorPoint: "ring_above" 330 650 basechar 0
AnchorPoint: "ogonek" 350 40 basechar 0
AnchorPoint: "cedilla" 347.004 40 basechar 0
AnchorPoint: "diac_bottom" 308.744 -50 basechar 0
LayerCount: 2
Fore
SplineSet
200 200 m 2
 200 113 264 80 330 80 c 0
 396 80 460 113 460 200 c 2
 460 600 l 1
 580 600 l 1
 580 200 l 2
 580 58 481 -20 330 -20 c 0
 179 -20 80 58 80 200 c 2
 80 600 l 1
 200 600 l 1
 200 200 l 2
EndSplineSet
EndChar

StartChar: C
Encoding: 67 67 134
Width: 810
VWidth: 0
Flags: W
HStem: -20 100<293.386 526.614> 725 95<296.301 523.699>
VStem: 80 120<161.829 636.082> 620 120<161.829 250 540 636.082>
AnchorPoint: "diac_top" 405 850 basechar 0
AnchorPoint: "ogonek" 427.004 40 basechar 0
AnchorPoint: "diac_bottom" 388.744 -50 basechar 0
AnchorPoint: "cedilla" 425 40 basechar 0
LayerCount: 2
Fore
SplineSet
410 820 m 0
 607 820 740 712 740 540 c 1
 620 540 l 1
 620 660 532 725 410 725 c 0
 288 725 200 660 200 540 c 2
 200 250 l 2
 200 140 293 80 410 80 c 0
 527 80 620 140 620 250 c 1
 740 250 l 1
 740 78 597 -20 410 -20 c 0
 223 -20 80 78 80 250 c 2
 80 540 l 2
 80 712 213 820 410 820 c 0
EndSplineSet
EndChar

StartChar: d
Encoding: 100 100 135
Width: 710
VWidth: 0
Flags: W
HStem: -20 100<253.538 431.848> 0 21G<500 620> 525 95<258.271 437.212> 880 20G<500 620>
VStem: 70 120<144.433 449.636> 500 120<0 66 129.964 474.28 548 900>
AnchorPoint: "cedilla" 360 40 basechar 0
AnchorPoint: "diac_bottom" 350 -50 basechar 0
AnchorPoint: "diac_top" 300 650 basechar 0
LayerCount: 2
Fore
SplineSet
500 168 m 1xbc
 500 436 l 1
 475 489 425 525 350 525 c 0
 270 525 190 482 190 340 c 2
 190 240 l 2
 190 126 265 80 350 80 c 0
 428 80 480 124 500 168 c 1xbc
500 900 m 1
 620 900 l 1
 620 0 l 1
 500 0 l 1x7c
 500 66 l 1
 463 16 405 -20 330 -20 c 0
 174 -20 70 81 70 240 c 2
 70 340 l 2
 70 528 186 620 330 620 c 0
 399 620 457 591 500 548 c 1
 500 900 l 1
EndSplineSet
EndChar

StartChar: G
Encoding: 71 71 136
Width: 820
VWidth: 0
Flags: W
HStem: -20 100<287.515 555.269> 315 95<430 630> 725 95<290.285 529.715>
VStem: 80 120<161.213 636.522> 620 120<540 636.522> 630 110<135.73 315>
AnchorPoint: "diac_bottom" 410 -50 basechar 0
AnchorPoint: "diac_top" 410 850 basechar 0
LayerCount: 2
Fore
SplineSet
410 80 m 0xf8
 512 80 582 103 630 160 c 1
 630 315 l 1
 430 315 l 1
 430 410 l 1
 740 410 l 1
 740 140 l 1xf4
 686 32 559 -20 410 -20 c 0
 223 -20 80 78 80 250 c 2
 80 540 l 2
 80 712 213 820 410 820 c 0
 607 820 740 712 740 540 c 1
 620 540 l 1
 620 665 532 725 410 725 c 0
 288 725 200 665 200 540 c 2
 200 250 l 2
 200 135 293 80 410 80 c 0xf8
EndSplineSet
EndChar

StartChar: g
Encoding: 103 103 137
Width: 710
VWidth: 0
Flags: W
HStem: -290 100<244.042 455.345> -20 95<258.271 437.212> 520 100<253.538 431.848> 580 20G<500 620>
VStem: 70 130<-146.54 -80> 70 120<150.364 455.567> 500 120<-146.54 52 125.72 470.036 534 600>
AnchorPoint: "diac_top" 350 650 basechar 0
LayerCount: 2
Fore
SplineSet
500 534 m 1xe6
 500 600 l 1
 620 600 l 1
 620 -80 l 2
 620 -207 530 -290 350 -290 c 0
 170 -290 70 -207 70 -80 c 1
 200 -80 l 1xda
 200 -168 283 -190 350 -190 c 0
 417 -190 500 -168 500 -80 c 2
 500 52 l 1
 457 9 399 -20 330 -20 c 0
 186 -20 70 72 70 260 c 2
 70 360 l 2
 70 519 174 620 330 620 c 0
 405 620 463 584 500 534 c 1xe6
500 432 m 1
 480 476 428 520 350 520 c 0
 265 520 190 474 190 360 c 2
 190 260 l 2xe6
 190 118 270 75 350 75 c 0
 425 75 475 111 500 164 c 1
 500 432 l 1
EndSplineSet
EndChar

StartChar: l
Encoding: 108 108 138
Width: 350
VWidth: 0
Flags: W
HStem: -10 100<225.965 270> 880 20G<100 220>
VStem: 100 120<96.5591 900>
AnchorPoint: "diac_top" 160 950 basechar 0
AnchorPoint: "diac_bottom" 190 -50 basechar 0
LayerCount: 2
Fore
SplineSet
270 -10 m 1
 158 -10 100 26 100 100 c 2
 100 900 l 1
 220 900 l 1
 220 160 l 2
 220 106 233 90 270 90 c 1
 270 -10 l 1
EndSplineSet
EndChar

StartChar: n
Encoding: 110 110 139
Width: 670
VWidth: 0
Flags: W
HStem: 0 21G<80 200 480 600> 520 100<287.328 451.094> 580 20G<80 200>
VStem: 80 120<0 449.547 514 600> 480 120<0 490.574>
AnchorPoint: "diac_bottom" 340 -50 basechar 0
AnchorPoint: "diac_top" 350 650 basechar 0
AnchorPoint: "cedilla" 120 40 basechar 0
LayerCount: 2
Fore
SplineSet
80 600 m 1xb8
 200 600 l 1xb8
 200 514 l 1
 229 556 289 620 390 620 c 0
 514 620 600 551 600 420 c 2
 600 0 l 1
 480 0 l 1
 480 420 l 2
 480 492 432 520 370 520 c 0xd8
 283 520 227 465 200 408 c 1
 200 0 l 1
 80 0 l 1
 80 600 l 1xb8
EndSplineSet
EndChar

StartChar: m
Encoding: 109 109 140
Width: 970
VWidth: 0
Flags: W
HStem: 0 21G<80 200 430 550 780 900> 520 100<267.951 408.915 602.884 758.36> 580 20G<80 200>
VStem: 80 120<0 478.162 535 600> 430 120<0 453.484> 780 120<0 498.093>
CounterMasks: 1 1c
AnchorPoint: "diac_top" 490 650 basechar 0
AnchorPoint: "diac_bottom" 490 -50 basechar 0
AnchorPoint: "cedilla" 480 40 basechar 0
LayerCount: 2
Fore
SplineSet
80 600 m 1xbc
 200 600 l 1xbc
 200 535 l 1
 235 578 290 620 365 620 c 0
 436 620 492 587 523 532 c 1
 555 568 619 620 710 620 c 0
 832 620 900 542 900 420 c 2
 900 0 l 1
 780 0 l 1
 780 420 l 2
 780 495 748 520 680 520 c 0
 620 520 577 492 548 454 c 1
 549 443 550 432 550 420 c 2
 550 0 l 1
 430 0 l 1
 430 420 l 2
 430 495 398 520 330 520 c 0xdc
 271 520 229 489 200 448 c 1
 200 0 l 1
 80 0 l 1
 80 600 l 1xbc
EndSplineSet
EndChar

StartChar: q
Encoding: 113 113 141
Width: 710
VWidth: 0
Flags: W
HStem: -20 95<258.271 437.212> 520 100<253.538 431.848> 580 20G<500 620>
VStem: 70 120<150.364 455.567> 500 120<-270 52 125.72 470.036 534 600>
AnchorPoint: "diac_top" 340 650 basechar 0
AnchorPoint: "diac_bottom" 240 -50 basechar 0
LayerCount: 2
Fore
SplineSet
500 432 m 1xd8
 480 476 428 520 350 520 c 0
 265 520 190 474 190 360 c 2
 190 260 l 2
 190 118 270 75 350 75 c 0
 425 75 475 111 500 164 c 1
 500 432 l 1xd8
500 -270 m 1
 500 52 l 1
 457 9 399 -20 330 -20 c 0
 186 -20 70 72 70 260 c 2
 70 360 l 2
 70 519 174 620 330 620 c 0xd8
 405 620 463 584 500 534 c 1
 500 600 l 1
 620 600 l 1xb8
 620 -270 l 1
 500 -270 l 1
EndSplineSet
EndChar

StartChar: a
Encoding: 97 97 142
Width: 700
VWidth: 0
Flags: W
HStem: -20 100<229.505 413.134> -10 100<595.547 640> 280 80<224.495 470> 525 95<248.774 431.227>
VStem: 70 120<116.645 243.988> 90 120<420 483.76> 470 120<123.031 280 360 483.76>
AnchorPoint: "diac_top" 340 650 basechar 0
AnchorPoint: "hook_above" 340 680 basechar 0
AnchorPoint: "ring_above" 340 650 basechar 0
AnchorPoint: "diac_bottom" 340 -50 basechar 0
AnchorPoint: "ogonek" 590 40 basechar 0
AnchorPoint: "cedilla" 587.004 40 basechar 0
LayerCount: 2
Fore
SplineSet
70 180 m 0xba
 70 304 170 360 310 360 c 2
 470 360 l 1
 470 420 l 2
 470 487 416 525 340 525 c 0
 264 525 210 487 210 420 c 1
 90 420 l 1
 90 542 189 620 340 620 c 0
 491 620 590 542 590 420 c 2
 590 160 l 2
 590 106 603 90 640 90 c 1
 640 -10 l 1x76
 555 -10 501 11 480 54 c 1
 436 10 374 -20 300 -20 c 0
 154 -20 70 70 70 180 c 0xba
190 180 m 0xba
 190 118 244 80 320 80 c 0
 391 80 443 107 470 155 c 1
 470 280 l 1
 320 280 l 2
 244 280 190 248 190 180 c 0xba
EndSplineSet
EndChar

StartChar: h
Encoding: 104 104 143
Width: 680
VWidth: 0
Flags: W
HStem: 0 21G<90 210 490 610> 520 100<297.328 461.094> 880 20G<90 210>
VStem: 90 120<0 449.547 514 900> 490 120<0 490.574>
AnchorPoint: "diac_bottom" 350 -50 basechar 0
AnchorPoint: "diac_top" 430 650 basechar 0
AnchorPoint: "cedilla" 140 40 basechar 0
LayerCount: 2
Fore
SplineSet
90 900 m 1
 210 900 l 1
 210 600 l 1
 210 514 l 1
 239 556 299 620 400 620 c 0
 524 620 610 551 610 420 c 2
 610 0 l 1
 490 0 l 1
 490 420 l 2
 490 492 442 520 380 520 c 0
 293 520 237 465 210 408 c 1
 210 0 l 1
 90 0 l 1
 90 600 l 1
 90 900 l 1
EndSplineSet
EndChar

StartChar: e
Encoding: 101 101 144
Width: 680
VWidth: 0
Flags: W
HStem: -20 100<241.34 438.66> 278 82<190 490> 525 95<251.039 428.961>
VStem: 70 120<128.634 278 360 463.036> 490 120<128.634 200 360 463.036>
AnchorPoint: "hook_above" 340 680 basechar 0
AnchorPoint: "diac_bottom" 340 -50 basechar 0
AnchorPoint: "diac_top" 340 650 basechar 0
AnchorPoint: "cedilla" 360 40 basechar 0
AnchorPoint: "ogonek" 360 40 basechar 0
LayerCount: 2
Fore
SplineSet
610 360 m 2
 610 278 l 1
 190 278 l 1
 190 200 l 2
 190 111 272 80 340 80 c 0
 408 80 490 111 490 200 c 1
 610 200 l 1
 610 47 476 -20 340 -20 c 0
 204 -20 70 47 70 200 c 2
 70 360 l 2
 70 528 190 620 340 620 c 0
 490 620 610 528 610 360 c 2
490 360 m 1
 490 483 419 525 340 525 c 0
 261 525 190 483 190 360 c 1
 490 360 l 1
EndSplineSet
EndChar

StartChar: c
Encoding: 99 99 145
Width: 640
VWidth: 0
Flags: W
HStem: -20 100<234.629 434.313> 525 95<239.465 428.933>
VStem: 70 120<122.676 476.61> 470 120<114.196 190 410 482.004>
AnchorPoint: "diac_top" 330 650 basechar 0
AnchorPoint: "diac_bottom" 330 -50 basechar 0
AnchorPoint: "cedilla" 340 40 basechar 0
LayerCount: 2
Fore
SplineSet
190 390 m 2
 190 190 l 2
 190 116 255 80 335 80 c 0
 415 80 470 106 470 190 c 1
 590 190 l 1
 590 52 489 -20 335 -20 c 0
 180 -20 70 42 70 190 c 2
 70 390 l 2
 70 538 181 620 335 620 c 0
 489 620 590 538 590 410 c 1
 470 410 l 1
 470 484 420 525 335 525 c 0
 250 525 190 484 190 390 c 2
EndSplineSet
EndChar

StartChar: w
Encoding: 119 119 146
Width: 850
VWidth: 0
Flags: W
HStem: 0 21G<194.333 315.336 534.664 655.667> 580 20G<30 160.011 374.667 475.333 689.989 820>
AnchorPoint: "diac_top" 425 650 basechar 0
AnchorPoint: "diac_bottom" 425 -50 basechar 0
AnchorPoint: "ring_above" 425 650 basechar 0
LayerCount: 2
Fore
SplineSet
695 600 m 1
 820 600 l 1
 650 0 l 1
 630 0 l 1
 545 0 l 1
 540 0 l 1
 425 431 l 1
 310 0 l 1
 305 0 l 1
 220 0 l 1
 200 0 l 1
 30 600 l 1
 155 600 l 1
 264 165 l 1
 380 600 l 1
 470 600 l 1
 586 165 l 1
 695 600 l 1
EndSplineSet
EndChar

StartChar: v
Encoding: 118 118 147
Width: 660
VWidth: 0
Flags: W
HStem: 0 21G<262 398> 580 20G<30 167.506 492.494 630>
AnchorPoint: "diac_bottom" 330 -50 basechar 0
AnchorPoint: "diac_top" 330 650 basechar 0
LayerCount: 2
Fore
SplineSet
500 600 m 1
 630 600 l 1
 390 0 l 1
 385 0 l 1
 275 0 l 1
 270 0 l 1
 30 600 l 1
 160 600 l 1
 330 147 l 1
 500 600 l 1
EndSplineSet
EndChar

StartChar: z
Encoding: 122 122 148
Width: 620
VWidth: 0
Flags: W
HStem: 0 110<200 570> 500 100<70 420>
AnchorPoint: "diac_bottom" 310 -50 basechar 0
AnchorPoint: "diac_top" 310 650 basechar 0
AnchorPoint: "cedilla" 320 40 basechar 0
LayerCount: 2
Fore
SplineSet
70 600 m 1
 560 600 l 1
 560 500 l 1
 200 110 l 1
 570 110 l 1
 570 0 l 1
 50 0 l 1
 50 110 l 1
 420 500 l 1
 70 500 l 1
 70 600 l 1
EndSplineSet
EndChar

StartChar: y
Encoding: 121 121 149
Width: 660
VWidth: 0
Flags: W
HStem: -290 100<90 188.699> 580 20G<30 167.506 492.494 630>
AnchorPoint: "hook_above" 330 680 basechar 0
AnchorPoint: "diac_top" 330 650 basechar 0
AnchorPoint: "diac_bottom" 508.744 -50 basechar 0
AnchorPoint: "ogonek" 298.744 -50 basechar 0
AnchorPoint: "ring_above" 330 650 basechar 0
LayerCount: 2
Fore
SplineSet
500 600 m 1
 630 600 l 1
 390 0 l 1
 320 -180 l 1
 286 -264 228 -290 90 -290 c 1
 90 -190 l 1
 171 -190 187 -178 210 -140 c 1
 270 0 l 1
 30 600 l 1
 160 600 l 1
 330 147 l 1
 500 600 l 1
EndSplineSet
EndChar

StartChar: r
Encoding: 114 114 150
Width: 410
VWidth: 0
Flags: W
HStem: 0 21G<80 200> 500 110<285.754 380> 580 20G<80 200>
VStem: 80 120<0 435.57 503 600>
AnchorPoint: "diac_top" 210 650 basechar 0
AnchorPoint: "diac_bottom" 140 -50 basechar 0
LayerCount: 2
Fore
SplineSet
80 600 m 1xb0
 200 600 l 1xb0
 200 503 l 1
 232 550 290 610 380 610 c 1
 380 500 l 1xd0
 297 500 234 457 200 401 c 1
 200 0 l 1
 80 0 l 1
 80 600 l 1xb0
EndSplineSet
EndChar

StartChar: numbersign
Encoding: 35 35 151
Width: 910
VWidth: 0
Flags: W
HStem: 0 21G<190 283.733 480 573.733> 225 80<70 232 337 522 627 820> 495 80<90 283 388 573 678 840> 780 20G<336.267 430 626.267 720>
LayerCount: 2
Fore
SplineSet
537 305 m 1
 573 495 l 1
 373 495 l 1
 337 305 l 1
 537 305 l 1
627 305 m 1
 820 305 l 1
 820 225 l 1
 612 225 l 1
 570 0 l 1
 480 0 l 1
 522 225 l 1
 322 225 l 1
 280 0 l 1
 190 0 l 1
 232 225 l 1
 70 225 l 1
 70 305 l 1
 247 305 l 1
 283 495 l 1
 90 495 l 1
 90 575 l 1
 298 575 l 1
 340 800 l 1
 430 800 l 1
 388 575 l 1
 588 575 l 1
 630 800 l 1
 720 800 l 1
 678 575 l 1
 840 575 l 1
 840 495 l 1
 663 495 l 1
 627 305 l 1
EndSplineSet
EndChar

StartChar: asterisk
Encoding: 42 42 152
Width: 540
VWidth: 0
Flags: W
HStem: 880 20G<230 310>
VStem: 230 80<740 900>
LayerCount: 2
Fore
SplineSet
429 535 m 1
 364 488 l 1
 270 617 l 1
 176 488 l 1
 111 535 l 1
 205 664 l 1
 53 713 l 1
 78 789 l 1
 230 740 l 1
 230 900 l 1
 310 900 l 1
 310 740 l 1
 462 789 l 1
 487 713 l 1
 335 664 l 1
 429 535 l 1
EndSplineSet
EndChar

StartChar: s
Encoding: 115 115 153
Width: 680
VWidth: 0
Flags: W
HStem: -20 100<227.066 453.14> 520 100<245.862 434.138>
VStem: 70 120<115.332 170> 90 120<389.385 487.898> 470 120<440 487.061> 490 120<115.244 222.702>
AnchorPoint: "diac_bottom" 340 -50 basechar 0
AnchorPoint: "diac_top" 340 650 basechar 0
AnchorPoint: "cedilla" 360 40 basechar 0
LayerCount: 2
Fore
SplineSet
70 170 m 1xe4
 190 170 l 1
 190 110 253 80 340 80 c 0
 427 80 490 110 490 170 c 0xe4
 490 237 418 251 340 260 c 0
 232 272 90 307 90 440 c 0
 90 522 171 620 340 620 c 0
 509 620 590 522 590 440 c 1
 470 440 l 1
 470 479 423 520 340 520 c 0
 257 520 210 479 210 440 c 0xd8
 210 383 266 369 340 360 c 0
 463 345 610 323 610 170 c 0
 610 70 525 -20 340 -20 c 0
 156 -20 70 70 70 170 c 1xe4
EndSplineSet
EndChar

StartChar: f
Encoding: 102 102 154
Width: 420
VWidth: 0
Flags: W
HStem: 0 21G<130 250> 500 100<30 130 250 380> 800 100<288.623 380>
VStem: 130 120<0 500 600 761.51>
AnchorPoint: "diac_bottom" 190 -50 basechar 0
AnchorPoint: "diac_top" 290 950 basechar 0
LayerCount: 2
Fore
SplineSet
30 500 m 1
 30 600 l 1
 130 600 l 1
 130 710 l 2
 130 827 213 900 380 900 c 1
 380 800 l 1
 309 800 250 768 250 700 c 2
 250 600 l 1
 380 600 l 1
 380 500 l 1
 250 500 l 1
 250 0 l 1
 130 0 l 1
 130 500 l 1
 30 500 l 1
EndSplineSet
EndChar

StartChar: t
Encoding: 116 116 155
Width: 420
VWidth: 0
Flags: W
HStem: 0 21G<150 270> 510 90<20 150 270 400>
VStem: 150 120<0 510 600 780>
AnchorPoint: "diac_top" 210 890 basechar 0
AnchorPoint: "cedilla" 200 40 basechar 0
AnchorPoint: "diac_bottom" 210 -50 basechar 0
LayerCount: 2
Fore
SplineSet
240 840 m 1
 270 840 l 1
 270 600 l 1
 400 600 l 1
 400 510 l 1
 270 510 l 1
 270 0 l 1
 150 0 l 1
 150 510 l 1
 20 510 l 1
 20 600 l 1
 150 600 l 1
 150 780 l 1
 240 840 l 1
EndSplineSet
EndChar

StartChar: k
Encoding: 107 107 156
Width: 620
VWidth: 0
Flags: W
HStem: 0 21G<90 210 446.255 600> 275 100<210 269> 580 20G<415.689 560> 880 20G<90 210>
VStem: 90 120<0 275 375 900>
AnchorPoint: "diac_top" 390 650 basechar 0
AnchorPoint: "diac_bottom" 320 -50 basechar 0
LayerCount: 2
Fore
SplineSet
430 600 m 1
 560 600 l 1
 365 335 l 1
 600 0 l 1
 460 0 l 1
 271 275 l 1
 210 275 l 1
 210 0 l 1
 90 0 l 1
 90 900 l 1
 210 900 l 1
 210 375 l 1
 269 375 l 1
 430 600 l 1
EndSplineSet
EndChar

StartChar: hyphen
Encoding: 45 45 157
Width: 560
VWidth: 0
Flags: W
HStem: 280 80<70 490>
LayerCount: 2
Fore
SplineSet
70 360 m 1
 490 360 l 1
 490 280 l 1
 70 280 l 1
 70 360 l 1
EndSplineSet
EndChar

StartChar: bar
Encoding: 124 124 158
Width: 320
VWidth: 0
Flags: W
HStem: 880 20G<115 205>
VStem: 115 90<-180 900>
LayerCount: 2
Fore
SplineSet
115 900 m 1
 205 900 l 1
 205 -180 l 1
 115 -180 l 1
 115 900 l 1
EndSplineSet
EndChar

StartChar: slash
Encoding: 47 47 159
Width: 480
VWidth: 0
Flags: W
HStem: 880 20G<329.815 425>
VStem: 55 370
LayerCount: 2
Fore
SplineSet
335 900 m 1
 425 900 l 1
 145 -180 l 1
 55 -180 l 1
 335 900 l 1
EndSplineSet
EndChar

StartChar: colon
Encoding: 58 58 160
Width: 320
VWidth: 0
Flags: W
HStem: 0 160<100.496 219.504> 420 160<100.496 219.504>
VStem: 80 160<20.4964 139.504 440.496 559.504>
LayerCount: 2
Fore
SplineSet
240 500 m 0
 240 455 205 420 160 420 c 0
 115 420 80 455 80 500 c 0
 80 545 115 580 160 580 c 0
 205 580 240 545 240 500 c 0
240 80 m 0
 240 35 205 0 160 0 c 0
 115 0 80 35 80 80 c 0
 80 125 115 160 160 160 c 0
 205 160 240 125 240 80 c 0
EndSplineSet
EndChar

StartChar: backslash
Encoding: 92 92 161
Width: 480
VWidth: 0
Flags: W
HStem: 880 20G<55 150.185>
VStem: 55 370
LayerCount: 2
Fore
SplineSet
145 900 m 1
 425 -180 l 1
 335 -180 l 1
 55 900 l 1
 145 900 l 1
EndSplineSet
EndChar

StartChar: seven
Encoding: 55 55 162
Width: 660
Flags: W
HStem: 0 21G<230 350> 700 100<80 450>
VStem: 230 120<0 378.526>
LayerCount: 2
Fore
SplineSet
230 0 m 1
 230 210 l 2
 230 510 450 700 450 700 c 1
 80 700 l 1
 80 800 l 1
 580 800 l 1
 580 700 l 1
 580 700 350 516 350 210 c 2
 350 0 l 1
 230 0 l 1
EndSplineSet
EndChar

StartChar: exclam
Encoding: 33 33 163
Width: 320
VWidth: 0
Flags: W
HStem: 0 160<100.496 219.504> 880 20G<100 220>
VStem: 80 160<20.4964 139.504> 100 120<309.6 900> 120 80<240 290.4>
LayerCount: 2
Fore
SplineSet
100 900 m 1xd0
 220 900 l 1
 220 360 l 1xd0
 200 240 l 1
 120 240 l 1xc8
 100 360 l 1
 100 900 l 1xd0
240 80 m 0xe0
 240 35 205 0 160 0 c 0
 115 0 80 35 80 80 c 0
 80 125 115 160 160 160 c 0
 205 160 240 125 240 80 c 0xe0
EndSplineSet
EndChar

StartChar: quotedbl
Encoding: 34 34 164
Width: 440
VWidth: 0
Flags: W
HStem: 560 240<80 160 280 360>
VStem: 80 80<560 660.8> 280 80<560 660.8>
LayerCount: 2
Fore
SplineSet
260 800 m 1
 380 800 l 1
 360 560 l 1
 280 560 l 1
 260 800 l 1
60 800 m 1
 180 800 l 1
 160 560 l 1
 80 560 l 1
 60 800 l 1
EndSplineSet
EndChar

StartChar: dollar
Encoding: 36 36 165
Width: 790
VWidth: 0
Flags: W
HStem: -18 100<271.108 355 435 529.385> 718 101<275.153 355 435 511.416>
VStem: 70 120<158.114 250> 90 120<530.461 662.153> 355 80<-150 -15.6414 82 364 484 717 816.231 950> 570 120<590 663.031> 600 120<145.351 299.602>
LayerCount: 2
Fore
SplineSet
355 950 m 1xd8
 435 950 l 1
 435 818 l 1
 596 799 690 685 690 590 c 1
 570 590 l 1xdc
 570 655 524 705 435 717 c 1
 435 475 l 1
 582 456 720 408 720 230 c 0
 720 89 601 -5 435 -18 c 1
 435 -150 l 1
 355 -150 l 1
 355 -18 l 1
 181 -5 70 99 70 250 c 1
 190 250 l 1xea
 190 158 244 94 355 82 c 1
 355 374 l 1
 245 390 90 434 90 590 c 0
 90 687 188 804 355 819 c 1
 355 950 l 1xd8
355 484 m 1
 355 718 l 1
 260 708 210 657 210 590 c 0
 210 527 272 497 355 484 c 1
435 364 m 1
 435 82 l 1
 546 92 600 146 600 230 c 0xca
 600 312 532 347 435 364 c 1
EndSplineSet
EndChar

StartChar: percent
Encoding: 37 37 166
Width: 840
VWidth: 0
Flags: W
HStem: -10 70<572.673 667.327> 0 21G<80 204.25> 280 70<572.673 667.327> 450 70<172.673 267.327> 740 70<172.673 267.327> 780 20G<635.75 760>
VStem: 60 90<540.044 719.956> 290 90<540.044 719.956> 460 90<80.0441 259.956> 690 90<80.0441 259.956>
LayerCount: 2
Fore
SplineSet
650 800 m 1x77c0
 760 800 l 1
 190 0 l 1
 80 0 l 1
 650 800 l 1x77c0
220 810 m 0x3bc0
 314 810 380 729 380 630 c 0
 380 531 314 450 220 450 c 0
 126 450 60 531 60 630 c 0
 60 729 126 810 220 810 c 0x3bc0
220 740 m 0
 168 740 150 682 150 630 c 0
 150 578 168 520 220 520 c 0
 272 520 290 578 290 630 c 0
 290 682 272 740 220 740 c 0
620 350 m 0
 714 350 780 269 780 170 c 0
 780 71 714 -10 620 -10 c 0xb3c0
 526 -10 460 71 460 170 c 0
 460 269 526 350 620 350 c 0
620 280 m 0
 568 280 550 222 550 170 c 0
 550 118 568 60 620 60 c 0
 672 60 690 118 690 170 c 0
 690 222 672 280 620 280 c 0
EndSplineSet
EndChar

StartChar: quotesingle
Encoding: 39 39 167
Width: 240
VWidth: 0
Flags: W
HStem: 560 240<80 160>
VStem: 80 80<560 660.8>
LayerCount: 2
Fore
SplineSet
60 800 m 1
 180 800 l 1
 160 560 l 1
 80 560 l 1
 60 800 l 1
EndSplineSet
EndChar

StartChar: parenleft
Encoding: 40 40 168
Width: 400
VWidth: 0
Flags: W
VStem: 80 100<81.5527 638.447>
LayerCount: 2
Fore
SplineSet
80 360 m 1
 80 390 l 2
 80 706 160 848 360 920 c 1
 360 870 l 1
 208 794 180 667 180 390 c 2
 180 360 l 1
 180 330 l 2
 180 53 208 -74 360 -150 c 1
 360 -200 l 1
 160 -128 80 14 80 330 c 2
 80 360 l 1
EndSplineSet
EndChar

StartChar: parenright
Encoding: 41 41 169
Width: 400
VWidth: 0
Flags: W
VStem: 220 100<81.5527 638.447>
LayerCount: 2
Fore
SplineSet
320 360 m 1
 320 330 l 2
 320 14 240 -128 40 -200 c 1
 40 -150 l 1
 192 -74 220 53 220 330 c 2
 220 360 l 1
 220 390 l 2
 220 667 192 794 40 870 c 1
 40 920 l 1
 240 848 320 706 320 390 c 2
 320 360 l 1
EndSplineSet
EndChar

StartChar: plus
Encoding: 43 43 170
Width: 560
VWidth: 0
Flags: W
HStem: 280 80<70 235 325 490>
VStem: 235 90<120 280 360 520>
LayerCount: 2
Fore
SplineSet
325 120 m 1
 235 120 l 1
 235 280 l 1
 70 280 l 1
 70 360 l 1
 235 360 l 1
 235 520 l 1
 325 520 l 1
 325 360 l 1
 490 360 l 1
 490 280 l 1
 325 280 l 1
 325 120 l 1
EndSplineSet
EndChar

StartChar: comma
Encoding: 44 44 171
Width: 320
VWidth: 0
Flags: W
HStem: 0 160<100.146 160>
VStem: 160 90<-35.6003 0>
LayerCount: 2
Fore
SplineSet
160 160 m 0
 214 160 250 118 250 60 c 0
 250 -18 189 -107 130 -150 c 1
 70 -150 l 1
 119 -107 160 -55 160 0 c 1
 114 0 80 35 80 80 c 0
 80 125 114 160 160 160 c 0
EndSplineSet
EndChar

StartChar: zero
Encoding: 48 48 172
Width: 660
Flags: W
HStem: -20 100<245.555 414.445> 720 100<245.555 414.445>
VStem: 70 120<139.963 660.036> 470 120<139.963 660.036>
LayerCount: 2
Fore
SplineSet
70 240 m 2
 70 560 l 2
 70 715 181 820 330 820 c 0
 479 820 590 715 590 560 c 2
 590 240 l 2
 590 85 479 -20 330 -20 c 0
 181 -20 70 85 70 240 c 2
190 240 m 2
 190 141 241 80 330 80 c 0
 419 80 470 141 470 240 c 2
 470 560 l 2
 470 659 419 720 330 720 c 0
 241 720 190 659 190 560 c 2
 190 240 l 2
EndSplineSet
EndChar

StartChar: one
Encoding: 49 49 173
Width: 660
Flags: W
HStem: 0 21G<360 480> 515 105<100 217.155> 780 20G<360 480>
VStem: 360 120<0 620 732.219 800>
LayerCount: 2
Fore
SplineSet
360 620 m 1
 319 557 199 515 100 515 c 1
 100 620 l 1
 216 620 360 706 360 800 c 1
 480 800 l 1
 480 0 l 1
 360 0 l 1
 360 620 l 1
EndSplineSet
EndChar

StartChar: two
Encoding: 50 50 174
Width: 660
Flags: W
HStem: 0 100<190 590> 720 100<249.648 410.352>
VStem: 70 120<100 176.554> 80 120<590 667.87> 460 120<511.926 669.743>
LayerCount: 2
Fore
SplineSet
460 590 m 0xe8
 460 665 408 720 330 720 c 0
 252 720 200 665 200 590 c 1
 80 590 l 1xd8
 80 714 176 820 330 820 c 0
 484 820 580 714 580 590 c 0
 580 478 503 405 410 340 c 0
 314 273 190 205 190 100 c 1
 590 100 l 1
 590 0 l 1
 70 0 l 1
 70 100 l 2
 70 217 176 297 270 370 c 0
 351 433 460 490 460 590 c 0xe8
EndSplineSet
EndChar

StartChar: three
Encoding: 51 51 175
Width: 660
Flags: W
HStem: -20 100<230.659 409.341> 365 100<230 402.884> 720 100<239.648 400.352>
VStem: 50 120<139.683 225> 70 120<590 667.87> 450 120<510.488 669.743> 470 120<138.337 311.142>
LayerCount: 2
Fore
SplineSet
50 225 m 1xf2
 170 225 l 1
 170 142 225 80 320 80 c 0
 415 80 470 142 470 225 c 0xf2
 470 308 415 365 320 365 c 2
 230 365 l 1
 230 465 l 1
 320 465 l 2
 398 465 450 515 450 590 c 0
 450 665 398 720 320 720 c 0
 242 720 190 665 190 590 c 1
 70 590 l 1
 70 714 166 820 320 820 c 0
 474 820 570 714 570 590 c 0xec
 570 521 541 460 489 419 c 1
 553 376 590 307 590 225 c 0
 590 87 486 -20 320 -20 c 0
 154 -20 50 87 50 225 c 1xf2
EndSplineSet
EndChar

StartChar: four
Encoding: 52 52 176
Width: 660
Flags: W
HStem: 0 21G<400 520> 150 100<175 400 520 600> 780 20G<387.636 520>
VStem: 400 120<0 150 250 615>
LayerCount: 2
Fore
SplineSet
60 250 m 1
 400 800 l 1
 520 800 l 1
 520 250 l 1
 600 250 l 1
 600 150 l 1
 520 150 l 1
 520 0 l 1
 400 0 l 1
 400 150 l 1
 60 150 l 1
 60 250 l 1
175 250 m 1
 400 250 l 1
 400 615 l 1
 175 250 l 1
EndSplineSet
EndChar

StartChar: five
Encoding: 53 53 177
Width: 660
Flags: W
HStem: -20 100<245.555 414.445> 400 100<236.487 414.445> 700 100<239 550>
VStem: 70 120<139.963 240> 470 120<138.342 341.658>
LayerCount: 2
Fore
SplineSet
330 -20 m 0
 181 -20 70 85 70 240 c 1
 190 240 l 1
 190 141 241 80 330 80 c 0
 419 80 470 141 470 240 c 0
 470 339 419 400 330 400 c 0
 276 400 234 382 200 340 c 1
 90 350 l 1
 140 800 l 1
 250 800 l 1
 550 800 l 1
 550 700 l 1
 239 700 l 1
 213 462 l 1
 245 483 285 500 330 500 c 0
 479 500 590 395 590 240 c 0
 590 85 479 -20 330 -20 c 0
EndSplineSet
EndChar

StartChar: six
Encoding: 54 54 178
Width: 660
Flags: W
HStem: -20 100<245.555 414.445> 400 100<246.26 414.445> 720 100<237.925 412.075>
VStem: 70 120<139.963 343.28 445 672.257> 460 120<595 672.257> 470 120<138.342 341.658>
LayerCount: 2
Fore
SplineSet
470 240 m 0xf4
 470 339 419 400 330 400 c 0
 241 400 190 339 190 240 c 0
 190 141 241 80 330 80 c 0
 419 80 470 141 470 240 c 0xf4
325 820 m 0
 481 820 580 719 580 595 c 1
 460 595 l 1xf8
 460 670 407 720 325 720 c 0
 243 720 190 670 190 595 c 2
 190 445 l 1
 224 479 270 500 330 500 c 0
 479 500 590 395 590 240 c 0
 590 85 479 -20 330 -20 c 0
 181 -20 70 85 70 240 c 2
 70 595 l 2
 70 719 169 820 325 820 c 0
EndSplineSet
EndChar

StartChar: eight
Encoding: 56 56 179
Width: 660
Flags: W
HStem: -20 100<240.659 419.341> 365 100<247.116 412.884> 720 100<249.648 410.352>
VStem: 60 120<138.337 311.142> 80 120<510.488 669.743> 460 120<510.488 669.743> 480 120<138.337 311.142>
LayerCount: 2
Fore
SplineSet
180 225 m 0xf2
 180 142 235 80 330 80 c 0
 425 80 480 142 480 225 c 0
 480 308 425 365 330 365 c 0
 235 365 180 308 180 225 c 0xf2
460 590 m 0xec
 460 665 408 720 330 720 c 0
 252 720 200 665 200 590 c 0
 200 515 252 465 330 465 c 0
 408 465 460 515 460 590 c 0xec
580 590 m 0
 580 521 551 460 499 419 c 1
 563 376 600 307 600 225 c 0
 600 87 496 -20 330 -20 c 0
 164 -20 60 87 60 225 c 0xf2
 60 307 97 376 161 419 c 1
 109 460 80 521 80 590 c 0
 80 714 176 820 330 820 c 0
 484 820 580 714 580 590 c 0
EndSplineSet
EndChar

StartChar: nine
Encoding: 57 57 180
Width: 660
Flags: W
HStem: -20 100<247.925 422.075> 300 100<245.555 413.74> 720 100<245.555 414.445>
VStem: 70 120<458.342 661.658> 80 120<127.743 205> 470 120<127.743 355 456.72 660.036>
LayerCount: 2
Fore
SplineSet
190 560 m 0xf4
 190 461 241 400 330 400 c 0
 419 400 470 461 470 560 c 0
 470 659 419 720 330 720 c 0
 241 720 190 659 190 560 c 0xf4
335 -20 m 0
 179 -20 80 81 80 205 c 1
 200 205 l 1xec
 200 130 253 80 335 80 c 0
 417 80 470 130 470 205 c 2
 470 355 l 1
 436 321 390 300 330 300 c 0
 181 300 70 405 70 560 c 0
 70 715 181 820 330 820 c 0
 479 820 590 715 590 560 c 2
 590 205 l 2
 590 81 491 -20 335 -20 c 0
EndSplineSet
EndChar

StartChar: semicolon
Encoding: 59 59 181
Width: 320
VWidth: 0
Flags: W
HStem: 0 160<100.146 160> 420 160<100.496 219.504>
VStem: 80 160<440.496 559.504> 160 90<-35.6003 0>
LayerCount: 2
Fore
SplineSet
240 500 m 0xe0
 240 455 205 420 160 420 c 0xd0
 115 420 80 455 80 500 c 0xe0
 80 545 115 580 160 580 c 0xd0
 205 580 240 545 240 500 c 0xe0
160 160 m 0
 214 160 250 118 250 60 c 0
 250 -18 189 -107 130 -150 c 1
 70 -150 l 1
 119 -107 160 -55 160 0 c 1xd0
 114 0 80 35 80 80 c 0xe0
 80 125 114 160 160 160 c 0
EndSplineSet
EndChar

StartChar: less
Encoding: 60 60 182
Width: 600
VWidth: 0
Flags: W
LayerCount: 2
Fore
SplineSet
90 275 m 1
 90 365 l 1
 510 575 l 1
 510 465 l 1
 200 320 l 1
 510 175 l 1
 510 65 l 1
 90 275 l 1
EndSplineSet
EndChar

StartChar: equal
Encoding: 61 61 183
Width: 560
VWidth: 0
Flags: W
HStem: 175 80<70 490> 385 80<70 490>
LayerCount: 2
Fore
SplineSet
70 465 m 1
 490 465 l 1
 490 385 l 1
 70 385 l 1
 70 465 l 1
70 255 m 1
 490 255 l 1
 490 175 l 1
 70 175 l 1
 70 255 l 1
EndSplineSet
EndChar

StartChar: greater
Encoding: 62 62 184
Width: 600
VWidth: 0
Flags: W
LayerCount: 2
Fore
SplineSet
510 275 m 1
 90 65 l 1
 90 175 l 1
 400 320 l 1
 90 465 l 1
 90 575 l 1
 510 365 l 1
 510 275 l 1
EndSplineSet
EndChar

StartChar: question
Encoding: 63 63 185
Width: 640
VWidth: 0
Flags: W
HStem: 0 160<260.496 379.504> 720 100<238.19 401.81>
VStem: 70 120<533.647 671.042> 240 160<20.4964 139.504> 250 110<240 358.266> 450 120<523.127 671.042>
LayerCount: 2
Fore
SplineSet
205 540 m 1xec
 95 500 l 1
 80 531 70 562 70 600 c 0
 70 733 177 820 320 820 c 0
 463 820 570 733 570 600 c 0
 570 489 495 441 415 385 c 0
 366 351 360 313 360 240 c 1
 250 240 l 1
 250 246 250 251 250 257 c 0
 250 349 253 400 350 465 c 0
 412 507 450 527 450 600 c 0
 450 673 389 720 320 720 c 0
 251 720 190 673 190 600 c 0
 190 579 195 561 205 540 c 1xec
400 80 m 0xf4
 400 35 365 0 320 0 c 0
 275 0 240 35 240 80 c 0
 240 125 275 160 320 160 c 0
 365 160 400 125 400 80 c 0xf4
EndSplineSet
EndChar

StartChar: at
Encoding: 64 64 186
Width: 1140
VWidth: 0
Flags: W
HStem: -180 70<424.022 724.989> 70 95<480.742 636.286 804.718 943.61> 495 95<479.599 633.283> 770 70<424.022 715.978>
VStem: 70 80<176.336 483.664> 320 120<204.484 454.254> 675 120<201.661 465.446 533 570> 990 80<217.182 483.664>
LayerCount: 2
Fore
SplineSet
675 237 m 1
 675 436 l 1
 656 466 618 495 560 495 c 0
 501 495 440 464 440 370 c 2
 440 290 l 2
 440 196 498 165 560 165 c 0
 619 165 656 201 675 237 c 1
675 570 m 1
 795 570 l 1
 795 250 l 2
 795 174 823 160 860 160 c 0
 905 160 990 176 990 330 c 0
 990 579 819 770 570 770 c 0
 321 770 150 579 150 330 c 0
 150 81 321 -110 570 -110 c 1
 681 -105 754 -82 827 -33 c 1
 861 -96 l 1
 775 -154 671 -179 570 -180 c 1
 283 -180 70 43 70 330 c 0
 70 617 283 840 570 840 c 0
 857 840 1070 617 1070 330 c 0
 1070 133 947 70 860 70 c 0
 786 70 727 93 697 136 c 1
 660 98 607 70 535 70 c 0
 404 70 320 141 320 290 c 2
 320 370 l 2
 320 513 410 590 535 590 c 0
 593 590 640 566 675 533 c 1
 675 570 l 1
EndSplineSet
EndChar

StartChar: bracketleft
Encoding: 91 91 187
Width: 400
VWidth: 0
Flags: W
HStem: -180 75<180 340> 825 75<180 340>
VStem: 80 260<-180 -105 825 900> 80 100<-105 825>
LayerCount: 2
Fore
SplineSet
80 360 m 1xd0
 80 900 l 1
 340 900 l 1
 340 825 l 1xe0
 180 825 l 1
 180 360 l 1
 180 -105 l 1xd0
 340 -105 l 1
 340 -180 l 1
 80 -180 l 1xe0
 80 360 l 1xd0
EndSplineSet
EndChar

StartChar: bracketright
Encoding: 93 93 188
Width: 400
VWidth: 0
Flags: W
HStem: -180 75<60 220> 825 75<60 220>
VStem: 60 260<-180 -105 825 900> 220 100<-105 825>
LayerCount: 2
Fore
SplineSet
320 360 m 1xd0
 320 -180 l 1
 60 -180 l 1
 60 -105 l 1xe0
 220 -105 l 1
 220 360 l 1
 220 825 l 1xd0
 60 825 l 1
 60 900 l 1
 320 900 l 1xe0
 320 360 l 1xd0
EndSplineSet
EndChar

StartChar: asciicircum
Encoding: 94 94 189
Width: 540
VWidth: 0
Flags: W
HStem: 560 240
LayerCount: 2
Fore
SplineSet
270 726 m 1
 170 560 l 1
 50 560 l 1
 225 800 l 1
 315 800 l 1
 490 560 l 1
 370 560 l 1
 270 726 l 1
EndSplineSet
EndChar

StartChar: underscore
Encoding: 95 95 190
Width: 720
VWidth: 0
Flags: W
HStem: -80 80<80 640>
LayerCount: 2
Fore
SplineSet
80 0 m 1
 640 0 l 1
 640 -80 l 1
 80 -80 l 1
 80 0 l 1
EndSplineSet
EndChar

StartChar: grave
Encoding: 96 96 191
Width: 420
VWidth: 0
Flags: W
HStem: 620 180
VStem: 40 340
LayerCount: 2
Fore
SplineSet
40 800 m 1
 210 800 l 1
 380 620 l 1
 285 620 l 1
 40 800 l 1
EndSplineSet
EndChar

StartChar: braceleft
Encoding: 123 123 192
Width: 400
VWidth: 0
Flags: W
HStem: -180 70<242.08 360> 830 70<242.08 360>
VStem: 150 90<-107.57 282.449 437.551 827.57>
LayerCount: 2
Fore
SplineSet
40 360 m 1
 40 365 l 1
 79 385 150 432 150 520 c 2
 150 810 l 2
 150 866 193 900 250 900 c 2
 360 900 l 1
 360 830 l 1
 280 830 l 2
 252 830 240 819 240 790 c 2
 240 520 l 2
 240 393 160 360 160 360 c 1
 160 360 240 327 240 200 c 2
 240 -70 l 2
 240 -99 252 -110 280 -110 c 2
 360 -110 l 1
 360 -180 l 1
 250 -180 l 2
 193 -180 150 -146 150 -90 c 2
 150 200 l 2
 150 288 79 335 40 355 c 1
 40 360 l 1
EndSplineSet
EndChar

StartChar: braceright
Encoding: 125 125 193
Width: 400
VWidth: 0
Flags: W
HStem: -180 70<40 157.92> 830 70<40 157.92>
VStem: 160 90<-107.57 282.449 437.551 827.57>
LayerCount: 2
Fore
SplineSet
360 360 m 1
 360 355 l 1
 321 335 250 288 250 200 c 2
 250 -90 l 2
 250 -146 207 -180 150 -180 c 2
 40 -180 l 1
 40 -110 l 1
 120 -110 l 2
 148 -110 160 -99 160 -70 c 2
 160 200 l 2
 160 327 240 360 240 360 c 1
 240 360 160 393 160 520 c 2
 160 790 l 2
 160 819 148 830 120 830 c 2
 40 830 l 1
 40 900 l 1
 150 900 l 2
 207 900 250 866 250 810 c 2
 250 520 l 2
 250 432 321 385 360 365 c 1
 360 360 l 1
EndSplineSet
EndChar

StartChar: asciitilde
Encoding: 126 126 194
Width: 640
VWidth: 0
Flags: W
HStem: 235 80<360.122 486.27> 325 80<153.73 280.64>
VStem: 70 50<261.64 289.349> 520 50<350.651 378.36>
LayerCount: 2
Fore
SplineSet
210 405 m 0
 266 405 296 389 335 360 c 0
 371 333 384 315 430 315 c 0
 479 315 506 359 520 395 c 1
 570 375 l 1
 560 308 500 235 430 235 c 0
 374 235 342 252 305 280 c 0
 267 308 256 325 210 325 c 0
 161 325 134 281 120 245 c 1
 70 265 l 1
 80 332 140 405 210 405 c 0
EndSplineSet
EndChar

StartChar: quotedblleft
Encoding: 8220 8220 195
Width: 520
VWidth: 0
Flags: W
HStem: 550 140<160 214.125 370 424.125>
VStem: 80 80<690 743.205> 290 80<690 743.205>
LayerCount: 2
Fore
SplineSet
160 550 m 0
 109 550 80 589 80 640 c 0
 80 718 126 797 185 840 c 1
 240 840 l 1
 190 797 160 745 160 690 c 1
 199 690 230 659 230 620 c 0
 230 581 199 550 160 550 c 0
370 550 m 0
 319 550 290 589 290 640 c 0
 290 718 336 797 395 840 c 1
 450 840 l 1
 400 797 370 745 370 690 c 1
 409 690 440 659 440 620 c 0
 440 581 409 550 370 550 c 0
EndSplineSet
EndChar

StartChar: quotedblright
Encoding: 8221 8221 196
Width: 520
VWidth: 0
Flags: W
HStem: 700 140<95.8748 150 305.875 360>
VStem: 150 80<646.795 700> 360 80<646.795 700>
LayerCount: 2
Fore
SplineSet
150 840 m 0
 201 840 230 801 230 750 c 0
 230 672 184 593 125 550 c 1
 70 550 l 1
 120 593 150 645 150 700 c 1
 111 700 80 731 80 770 c 0
 80 809 111 840 150 840 c 0
360 840 m 0
 411 840 440 801 440 750 c 0
 440 672 394 593 335 550 c 1
 280 550 l 1
 330 593 360 645 360 700 c 1
 321 700 290 731 290 770 c 0
 290 809 321 840 360 840 c 0
EndSplineSet
EndChar

StartChar: quoteleft
Encoding: 8216 8216 197
Width: 320
VWidth: 0
Flags: W
HStem: 550 290
VStem: 80 80<690 743.205>
LayerCount: 2
Fore
SplineSet
160 550 m 0
 109 550 80 589 80 640 c 0
 80 718 126 797 185 840 c 1
 240 840 l 1
 190 797 160 745 160 690 c 1
 199 690 230 659 230 620 c 0
 230 581 199 550 160 550 c 0
EndSplineSet
EndChar

StartChar: quoteright
Encoding: 8217 8217 198
Width: 320
VWidth: 0
Flags: W
HStem: 550 290
VStem: 160 80<646.795 700>
LayerCount: 2
Fore
SplineSet
160 840 m 0
 211 840 240 801 240 750 c 0
 240 672 194 593 135 550 c 1
 80 550 l 1
 130 593 160 645 160 700 c 1
 121 700 90 731 90 770 c 0
 90 809 121 840 160 840 c 0
EndSplineSet
EndChar

StartChar: afii57929
Encoding: 700 700 199
Width: 280
VWidth: 0
Flags: W
HStem: 650 160<80.1462 140>
VStem: 140 90<614.4 650>
LayerCount: 2
Fore
SplineSet
140 810 m 0
 194 810 230 768 230 710 c 0
 230 632 169 543 110 500 c 1
 50 500 l 1
 99 543 140 595 140 650 c 1
 94 650 60 685 60 730 c 0
 60 775 94 810 140 810 c 0
EndSplineSet
EndChar

StartChar: Euro
Encoding: 8364 8364 200
Width: 750
Flags: W
HStem: -20 100<366.489 603.34> 280 70<60 160 280 580> 450 70<60 160 280 580> 725 95<369.406 593.943>
VStem: 160 120<164.787 280 350 450 520 631.287>
LayerCount: 2
Fore
SplineSet
690 740 m 1
 635 670 l 1
 596 708 544 725 480 725 c 0
 353 725 280 649 280 520 c 1
 580 520 l 1
 580 450 l 1
 280 450 l 1
 280 350 l 1
 580 350 l 1
 580 280 l 1
 280 280 l 1
 280 270 l 2
 280 150 349 80 480 80 c 0
 544 80 596 92 635 130 c 1
 690 55 l 1
 640 7 561 -20 480 -20 c 0
 303 -20 160 88 160 270 c 2
 160 280 l 1
 60 280 l 1
 60 350 l 1
 160 350 l 1
 160 450 l 1
 60 450 l 1
 60 520 l 1
 160 520 l 1
 160 706 303 820 480 820 c 0
 561 820 640 788 690 740 c 1
EndSplineSet
EndChar

StartChar: yen
Encoding: 165 165 201
Width: 700
VWidth: 0
Flags: W
HStem: 0 21G<290 410> 170 70<50 290 410 650> 370 70<50 222 478 650> 780 20G<20 170.556 529.444 680>
VStem: 290 120<0 170 240 320>
LayerCount: 2
Fore
SplineSet
20 800 m 1
 160 800 l 1
 350 440 l 1
 540 800 l 1
 680 800 l 1
 478 440 l 1
 650 440 l 1
 650 370 l 1
 438 370 l 1
 410 320 l 1
 410 240 l 1
 650 240 l 1
 650 170 l 1
 410 170 l 1
 410 0 l 1
 290 0 l 1
 290 170 l 1
 50 170 l 1
 50 240 l 1
 290 240 l 1
 290 320 l 1
 262 370 l 1
 50 370 l 1
 50 440 l 1
 222 440 l 1
 20 800 l 1
EndSplineSet
EndChar

StartChar: sterling
Encoding: 163 163 202
Width: 700
Flags: W
HStem: 0 100<200 650> 365 70<70 170 294 500> 600 21G<460 580> 725 95<324.321 435.679>
VStem: 170 117<232.491 365> 176 118<435 690.906> 460 120<600 700.826>
LayerCount: 2
Fore
SplineSet
176 435 m 1xf6
 179 486 180 541 180 600 c 0
 180 734 252 820 380 820 c 0
 508 820 580 734 580 600 c 1
 460 600 l 1
 460 667 442 725 380 725 c 0
 318 725 300 667 300 600 c 0
 300 543 298 487 294 435 c 1xf6
 500 435 l 1
 500 365 l 1
 287 365 l 1
 271 226 240 123 200 100 c 1
 650 100 l 1
 650 0 l 1
 70 0 l 1
 70 100 l 1
 127 153 156 243 170 365 c 1xfa
 70 365 l 1
 70 435 l 1
 176 435 l 1xf6
EndSplineSet
EndChar

StartChar: cent
Encoding: 162 162 203
Width: 640
VWidth: 0
Flags: W
HStem: 81 102<230.884 295 375 438.194> 622 96<236.189 295 375 432.823>
VStem: 70 120<221.524 575.704> 295 80<-150 83.2069 183 622 714.807 950> 470 120<215.26 290 510 584.75>
LayerCount: 2
Fore
SplineSet
295 950 m 1
 375 950 l 1
 375 718 l 1
 506 705 590 627 590 510 c 1
 470 510 l 1
 470 572 435 610 375 622 c 1
 375 183 l 1
 433 191 470 221 470 290 c 1
 590 290 l 1
 590 164 506 93 375 82 c 1
 375 -150 l 1
 295 -150 l 1
 295 81 l 1
 161 92 70 155 70 290 c 2
 70 490 l 2
 70 625 162 705 295 718 c 1
 295 950 l 1
190 490 m 2
 190 290 l 2
 190 229 234 194 295 183 c 1
 295 622 l 1
 232 610 190 568 190 490 c 2
EndSplineSet
EndChar

StartChar: copyright
Encoding: 169 169 204
Width: 940
Flags: W
HStem: -20 70<343.439 596.561> 190 70<403.09 546.911> 540 70<403.09 546.911> 750 70<343.439 596.561>
VStem: 50 70<273.439 526.561> 300 80<283.697 516.303> 570 80<283.697 340 460 516.303> 820 70<273.439 526.561>
LayerCount: 2
Fore
SplineSet
475 610 m 0
 578 610 650 546 650 460 c 1
 570 460 l 1
 570 508 531 540 475 540 c 0
 419 540 380 508 380 460 c 2
 380 340 l 2
 380 292 419 260 475 260 c 0
 531 260 570 292 570 340 c 1
 650 340 l 1
 650 254 578 190 475 190 c 0
 372 190 300 254 300 340 c 2
 300 460 l 2
 300 546 372 610 475 610 c 0
470 820 m 0
 702 820 890 632 890 400 c 0
 890 168 702 -20 470 -20 c 0
 238 -20 50 168 50 400 c 0
 50 632 238 820 470 820 c 0
470 750 m 0
 277 750 120 593 120 400 c 0
 120 207 277 50 470 50 c 0
 663 50 820 207 820 400 c 0
 820 593 663 750 470 750 c 0
EndSplineSet
EndChar

StartChar: registered
Encoding: 174 174 205
Width: 940
Flags: W
HStem: -20 70<343.439 596.561> 350 60<400 495> 540 60<400 551.308> 750 70<343.439 596.561>
VStem: 50 70<273.439 526.561> 320 80<200 350 410 540> 565 75<422.815 526.522> 820 70<273.439 526.561>
LayerCount: 2
Fore
SplineSet
485 540 m 2
 400 540 l 1
 400 410 l 1
 485 410 l 2
 546 410 565 440 565 475 c 0
 565 510 546 540 485 540 c 2
505 600 m 2
 606 600 640 529 640 475 c 0
 640 436 622 388 575 365 c 1
 670 200 l 1
 580 200 l 1
 495 350 l 1
 400 350 l 1
 400 200 l 1
 320 200 l 1
 320 600 l 1
 505 600 l 2
470 820 m 0
 702 820 890 632 890 400 c 0
 890 168 702 -20 470 -20 c 0
 238 -20 50 168 50 400 c 0
 50 632 238 820 470 820 c 0
470 750 m 0
 277 750 120 593 120 400 c 0
 120 207 277 50 470 50 c 0
 663 50 820 207 820 400 c 0
 820 593 663 750 470 750 c 0
EndSplineSet
EndChar

StartChar: guillemotleft
Encoding: 171 171 206
Width: 600
Flags: W
LayerCount: 2
Fore
SplineSet
380 320 m 1
 530 90 l 1
 450 90 l 1
 280 320 l 1
 450 550 l 1
 530 550 l 1
 380 320 l 1
170 320 m 1
 320 90 l 1
 240 90 l 1
 70 320 l 1
 240 550 l 1
 320 550 l 1
 170 320 l 1
EndSplineSet
EndChar

StartChar: guillemotright
Encoding: 187 187 207
Width: 600
Flags: W
LayerCount: 2
Fore
SplineSet
220 320 m 1
 70 550 l 1
 150 550 l 1
 320 320 l 1
 150 90 l 1
 70 90 l 1
 220 320 l 1
430 320 m 1
 280 550 l 1
 360 550 l 1
 530 320 l 1
 360 90 l 1
 280 90 l 1
 430 320 l 1
EndSplineSet
EndChar

StartChar: acute
Encoding: 180 180 208
Width: 420
VWidth: 0
Flags: W
HStem: 620 180
VStem: 40 340
LayerCount: 2
Fore
SplineSet
380 800 m 1
 135 620 l 1
 40 620 l 1
 210 800 l 1
 380 800 l 1
EndSplineSet
EndChar

StartChar: exclamdown
Encoding: 161 161 209
Width: 310
VWidth: 0
Flags: W
HStem: 470 160<100.496 219.504>
VStem: 80 160<490.496 609.504> 100 120<-270 320.4> 120 80<339.6 390>
LayerCount: 2
Fore
SplineSet
100 -270 m 1xa0
 100 270 l 1xa0
 120 390 l 1
 200 390 l 1x90
 220 270 l 1
 220 -270 l 1
 100 -270 l 1xa0
240 550 m 0xc0
 240 505 205 470 160 470 c 0
 115 470 80 505 80 550 c 0
 80 595 115 630 160 630 c 0
 205 630 240 595 240 550 c 0xc0
EndSplineSet
EndChar

StartChar: brokenbar
Encoding: 166 166 210
Width: 320
Flags: W
HStem: 880 20G<115 205>
VStem: 115 90<-180 280 440 900>
LayerCount: 2
Fore
SplineSet
115 280 m 1
 205 280 l 1
 205 -180 l 1
 115 -180 l 1
 115 280 l 1
115 900 m 1
 205 900 l 1
 205 440 l 1
 115 440 l 1
 115 900 l 1
EndSplineSet
EndChar

StartChar: section
Encoding: 167 167 211
Width: 680
Flags: W
HStem: -20 100<227.066 453.14> 720 100<245.862 434.138>
VStem: 70 120<115.332 170> 90 120<389.385 481.098 589.205 687.898> 470 120<640 687.061> 490 120<115.244 224.43 333.97 422.702>
LayerCount: 2
Fore
SplineSet
480 333 m 1xd4
 487 344 490 356 490 370 c 0
 490 437 418 451 340 460 c 0
 305 464 265 470 229 482 c 1
 216 469 210 454 210 440 c 0
 210 383 266 369 340 360 c 0
 386 354 436 348 480 333 c 1xd4
129 539 m 1
 105 564 90 597 90 640 c 0
 90 722 171 820 340 820 c 0
 509 820 590 722 590 640 c 1
 470 640 l 1
 470 679 423 720 340 720 c 0
 257 720 210 679 210 640 c 0xd8
 210 583 266 569 340 560 c 0
 463 545 610 523 610 370 c 0
 610 335 600 301 578 272 c 1
 598 247 610 214 610 170 c 0
 610 70 525 -20 340 -20 c 0
 156 -20 70 70 70 170 c 1
 190 170 l 1xe4
 190 110 253 80 340 80 c 0
 427 80 490 110 490 170 c 0
 490 237 418 251 340 260 c 0
 232 272 90 307 90 440 c 0
 90 473 103 508 129 539 c 1
EndSplineSet
EndChar

StartChar: endash
Encoding: 8211 8211 213
Width: 670
VWidth: 0
Flags: W
HStem: 285 70<90 590>
LayerCount: 2
Fore
SplineSet
90 355 m 1
 590 355 l 1
 590 285 l 1
 90 285 l 1
 90 355 l 1
EndSplineSet
EndChar

StartChar: guilsinglleft
Encoding: 8249 8249 214
Width: 390
Flags: W
VStem: 70 250
LayerCount: 2
Fore
SplineSet
170 320 m 1
 320 90 l 1
 240 90 l 1
 70 320 l 1
 240 550 l 1
 320 550 l 1
 170 320 l 1
EndSplineSet
EndChar

StartChar: guilsinglright
Encoding: 8250 8250 215
Width: 390
Flags: W
VStem: 70 250
LayerCount: 2
Fore
SplineSet
220 320 m 1
 70 550 l 1
 150 550 l 1
 320 320 l 1
 150 90 l 1
 70 90 l 1
 220 320 l 1
EndSplineSet
EndChar

StartChar: ellipsis
Encoding: 8230 8230 216
Width: 860
VWidth: 0
Flags: W
HStem: 0 160<110.496 229.504 370.496 489.504 630.496 749.504>
VStem: 90 160<20.4964 139.504> 350 160<20.4964 139.504> 610 160<20.4964 139.504>
CounterMasks: 1 70
LayerCount: 2
Fore
SplineSet
510 80 m 0
 510 35 475 0 430 0 c 0
 385 0 350 35 350 80 c 0
 350 125 385 160 430 160 c 0
 475 160 510 125 510 80 c 0
770 80 m 0
 770 35 735 0 690 0 c 0
 645 0 610 35 610 80 c 0
 610 125 645 160 690 160 c 0
 735 160 770 125 770 80 c 0
250 80 m 0
 250 35 215 0 170 0 c 0
 125 0 90 35 90 80 c 0
 90 125 125 160 170 160 c 0
 215 160 250 125 250 80 c 0
EndSplineSet
LCarets2: 2 0 0 
Ligature2: "'liga' Latin Standard Ligatures-1" period period period
EndChar

StartChar: trademark
Encoding: 8482 8482 217
Width: 830
VWidth: 0
Flags: W
HStem: 910 50<55 150 210 305>
VStem: 150 60<560 910> 380 60<560 865> 710 60<560 865>
LayerCount: 2
Fore
SplineSet
770 560 m 1
 710 560 l 1
 710 865 l 1
 590 560 l 1
 575 560 l 1
 560 560 l 1
 440 865 l 1
 440 560 l 1
 380 560 l 1
 380 960 l 1
 440 960 l 1
 455 960 l 1
 575 650 l 1
 695 960 l 1
 710 960 l 1
 770 960 l 1
 770 560 l 1
55 910 m 1
 55 960 l 1
 150 960 l 1
 210 960 l 1
 305 960 l 1
 305 910 l 1
 210 910 l 1
 210 560 l 1
 150 560 l 1
 150 910 l 1
 55 910 l 1
EndSplineSet
EndChar

StartChar: emdash
Encoding: 8212 8212 218
Width: 970
VWidth: 0
Flags: W
HStem: 285 70<90 890>
LayerCount: 2
Fore
SplineSet
90 355 m 1
 890 355 l 1
 890 285 l 1
 90 285 l 1
 90 355 l 1
EndSplineSet
EndChar

StartChar: afii00208
Encoding: 8213 8213 219
Width: 970
VWidth: 0
Flags: W
HStem: 285 70<90 890>
LayerCount: 2
Fore
SplineSet
90 355 m 1
 890 355 l 1
 890 285 l 1
 90 285 l 1
 90 355 l 1
EndSplineSet
EndChar

StartChar: ordfeminine
Encoding: 170 170 220
Width: 360
VWidth: 0
Flags: W
HStem: 550 50<112.512 234.346 305.786 330> 700 40<115.719 244> 822 48<122.401 234.865>
VStem: 44 60<608.941 691.081> 54 60<770 811.359> 244 60<611.907 700 740 813.634>
LayerCount: 2
Fore
SplineSet
44 650 m 0xf4
 44 712 94 740 164 740 c 2
 244 740 l 1
 244 770 l 2
 244 804 218 822 180 822 c 0
 142 822 114 804 114 770 c 1
 54 770 l 1xec
 54 831 104 870 179.5 870 c 0
 255 870 304 831 304 770 c 2
 304 640 l 2
 304 613 311 605 330 605 c 1
 330 555 l 1
 287 555 260 566 250 587 c 1
 228 565 196 550 160 550 c 0
 86 550 44 595 44 650 c 0xf4
104 650 m 0xf4
 104 619 132 600 170 600 c 0
 205 600 231 614 244 638 c 1
 244 700 l 1
 170 700 l 2
 132 700 104 684 104 650 c 0xf4
EndSplineSet
EndChar

StartChar: uni00AD
Encoding: 173 173 221
Width: 560
VWidth: 0
Flags: W
HStem: 280 80<70 490>
LayerCount: 2
Fore
SplineSet
70 360 m 1
 490 360 l 1
 490 280 l 1
 70 280 l 1
 70 360 l 1
EndSplineSet
EndChar

StartChar: degree
Encoding: 176 176 222
Width: 380
VWidth: 0
Flags: W
HStem: 670 65<127.092 252.908> 925 65<127.092 252.908>
VStem: 30 65<767.092 892.908> 285 65<767.092 892.908>
LayerCount: 2
Fore
SplineSet
190 925 m 0
 138 925 95 882 95 830 c 0
 95 778 138 735 190 735 c 0
 242 735 285 778 285 830 c 0
 285 882 242 925 190 925 c 0
190 990 m 0
 278 990 350 918 350 830 c 0
 350 742 278 670 190 670 c 0
 102 670 30 742 30 830 c 0
 30 918 102 990 190 990 c 0
EndSplineSet
EndChar

StartChar: plusminus
Encoding: 177 177 223
Width: 560
VWidth: 0
Flags: W
HStem: 80 70<80 480> 365 80<70 240 320 490>
VStem: 240 80<220 365 445 590>
LayerCount: 2
Fore
SplineSet
320 220 m 1
 240 220 l 1
 240 365 l 1
 70 365 l 1
 70 445 l 1
 240 445 l 1
 240 590 l 1
 320 590 l 1
 320 445 l 1
 490 445 l 1
 490 365 l 1
 320 365 l 1
 320 220 l 1
80 150 m 1
 480 150 l 1
 480 80 l 1
 80 80 l 1
 80 150 l 1
EndSplineSet
EndChar

StartChar: uni00B2
Encoding: 178 178 224
Width: 360
Flags: W
HStem: 560 50<110 310> 920 50<127.945 232.055>
VStem: 50 60<610 665.67 855 904.198> 245 60<799.392 907.501>
LayerCount: 2
Fore
SplineSet
245 855 m 0
 245 892 219 920 180 920 c 0
 141 920 115 892 115 855 c 1
 55 855 l 1
 55 917 103 970 180 970 c 0
 257 970 305 917 305 855 c 0
 305 799 266 762 220 730 c 0
 172 696 110 662 110 610 c 1
 310 610 l 1
 310 560 l 1
 50 560 l 1
 50 610 l 2
 50 668 103 708 150 745 c 0
 190 776 245 805 245 855 c 0
EndSplineSet
EndChar

StartChar: uni00B3
Encoding: 179 179 225
Width: 360
Flags: W
HStem: 550 50<127.65 242.35> 742 50<140 237.642> 920 50<132.945 237.055>
VStem: 50 60<616.186 672> 60 60<855 906.688> 250 60<802.945 907.501> 260 60<615.599 727.542>
LayerCount: 2
Fore
SplineSet
50 672 m 1xf2
 110 672 l 1
 110 631 138 600 185 600 c 0
 232 600 260 631 260 672.5 c 0xf2
 260 714 232 742 185 742 c 2
 140 742 l 1
 140 792 l 1
 185 792 l 2
 224 792 250 818 250 855 c 0
 250 892 224 920 185 920 c 0
 146 920 120 892 120 855 c 1
 60 855 l 1
 60 917 108 970 185 970 c 0
 262 970 310 917 310 855 c 0xec
 310 820 296 790 270 770 c 1
 302 748 320 714 320 672 c 0
 320 604 268 550 185 550 c 0
 102 550 50 604 50 672 c 1xf2
EndSplineSet
EndChar

StartChar: periodcentered
Encoding: 183 183 226
Width: 320
VWidth: 0
Flags: W
HStem: 230 160<100.496 219.504>
VStem: 80 160<250.496 369.504>
LayerCount: 2
Fore
SplineSet
240 310 m 0
 240 265 205 230 160 230 c 0
 115 230 80 265 80 310 c 0
 80 355 115 390 160 390 c 0
 205 390 240 355 240 310 c 0
EndSplineSet
EndChar

StartChar: uni00B9
Encoding: 185 185 227
Width: 290
Flags: W
HStem: 818 52<40 122.826>
VStem: 170 60<560 870 910.869 960>
LayerCount: 2
Fore
SplineSet
170 870 m 1
 150 838 90 818 40 818 c 1
 40 870 l 1
 98 870 170 913 170 960 c 1
 230 960 l 1
 230 560 l 1
 170 560 l 1
 170 870 l 1
EndSplineSet
EndChar

StartChar: ordmasculine
Encoding: 186 186 228
Width: 360
VWidth: 0
Flags: W
HStem: 550 50<115.218 234.782> 822 48<117.877 232.123>
VStem: 40 60<614.75 804.556> 250 60<614.75 804.556>
LayerCount: 2
Fore
SplineSet
175 822 m 0
 138 822 100 804 100 740 c 2
 100 670 l 2
 100 616 142 600 175 600 c 0
 208 600 250 616 250 670 c 2
 250 740 l 2
 250 804 212 822 175 822 c 0
175 870 m 0
 252 870 310 824 310 740 c 2
 310 670 l 2
 310 588 252 550 175 550 c 0
 98 550 40 588 40 670 c 2
 40 740 l 2
 40 824 98 870 175 870 c 0
EndSplineSet
EndChar

StartChar: questiondown
Encoding: 191 191 229
Width: 600
VWidth: 0
Flags: W
HStem: -20 100<198.19 361.81> 640 160<220.496 339.504>
VStem: 30 120<128.958 276.873> 200 160<660.496 779.504> 240 110<441.734 560> 410 120<128.958 266.353>
LayerCount: 2
Fore
SplineSet
395 260 m 1xec
 505 300 l 1
 520 269 530 238 530 200 c 0
 530 67 423 -20 280 -20 c 0
 137 -20 30 67 30 200 c 0
 30 311 105 359 185 415 c 0
 234 449 240 487 240 560 c 1
 350 560 l 1
 350 554 350 549 350 543 c 0
 350 451 347 400 250 335 c 0
 188 293 150 273 150 200 c 0
 150 127 211 80 280 80 c 0
 349 80 410 127 410 200 c 0
 410 221 405 239 395 260 c 1xec
200 720 m 0xf4
 200 765 235 800 280 800 c 0
 325 800 360 765 360 720 c 0
 360 675 325 640 280 640 c 0
 235 640 200 675 200 720 c 0xf4
EndSplineSet
EndChar

StartChar: dagger
Encoding: 8224 8224 230
Width: 580
VWidth: 0
Flags: W
HStem: 545 55<50 255 325 530> 880 20G<255 325>
VStem: 255 70<-270 545 600 900>
LayerCount: 2
Fore
SplineSet
325 900 m 1
 325 600 l 1
 530 600 l 1
 530 545 l 1
 325 545 l 1
 325 -270 l 1
 255 -270 l 1
 255 545 l 1
 50 545 l 1
 50 600 l 1
 255 600 l 1
 255 900 l 1
 325 900 l 1
EndSplineSet
EndChar

StartChar: bullet
Encoding: 8226 8226 231
Width: 440
VWidth: 0
Flags: W
HStem: 180 260<142.132 297.868>
VStem: 90 260<232.132 387.868>
LayerCount: 2
Fore
SplineSet
350 310 m 0
 350 238 292 180 220 180 c 0
 148 180 90 238 90 310 c 0
 90 382 148 440 220 440 c 0
 292 440 350 382 350 310 c 0
EndSplineSet
EndChar

StartChar: uni2010
Encoding: 8208 8208 232
Width: 560
VWidth: 0
Flags: W
HStem: 280 80<70 490>
LayerCount: 2
Fore
SplineSet
70 360 m 1
 490 360 l 1
 490 280 l 1
 70 280 l 1
 70 360 l 1
EndSplineSet
EndChar

StartChar: uni2011
Encoding: 8209 8209 233
Width: 560
VWidth: 0
Flags: W
HStem: 280 80<70 490>
LayerCount: 2
Fore
SplineSet
70 360 m 1
 490 360 l 1
 490 280 l 1
 70 280 l 1
 70 360 l 1
EndSplineSet
EndChar

StartChar: perthousand
Encoding: 8240 8240 234
Width: 1170
VWidth: 0
Flags: W
HStem: -10 70<554.984 645.016 914.984 1005.02> 0 21G<80 204.25> 280 70<554.984 645.016 914.984 1005.02> 450 70<172.673 267.327> 740 70<172.673 267.327> 780 20G<635.75 760>
VStem: 60 90<540.044 719.956> 290 90<540.044 719.956> 450 90<72.7518 267.248> 660 90<72.7518 267.248> 810 90<72.7518 267.248> 1020 90<72.7518 267.248>
LayerCount: 2
Fore
SplineSet
650 800 m 1x77f0
 760 800 l 1
 190 0 l 1
 80 0 l 1
 650 800 l 1x77f0
220 810 m 0x3bf0
 314 810 380 729 380 630 c 0
 380 531 314 450 220 450 c 0
 126 450 60 531 60 630 c 0
 60 729 126 810 220 810 c 0x3bf0
220 740 m 0
 168 740 150 682 150 630 c 0
 150 578 168 520 220 520 c 0
 272 520 290 578 290 630 c 0
 290 682 272 740 220 740 c 0
600 350 m 0
 694 350 750 269 750 170 c 0
 750 71 694 -10 600 -10 c 0xb3f0
 506 -10 450 71 450 170 c 0
 450 269 506 350 600 350 c 0
600 280 m 0
 548 280 540 222 540 170 c 0
 540 118 548 60 600 60 c 0
 652 60 660 118 660 170 c 0
 660 222 652 280 600 280 c 0
960 350 m 0
 1054 350 1110 269 1110 170 c 0
 1110 71 1054 -10 960 -10 c 0
 866 -10 810 71 810 170 c 0
 810 269 866 350 960 350 c 0
960 280 m 0
 908 280 900 222 900 170 c 0
 900 118 908 60 960 60 c 0
 1012 60 1020 118 1020 170 c 0
 1020 222 1012 280 960 280 c 0
EndSplineSet
EndChar

StartChar: dotlessi
Encoding: 305 305 235
Width: 320
VWidth: 0
Flags: W
HStem: 0 21G<100 220> 580 20G<100 220>
VStem: 100 120<0 600>
AnchorPoint: "hook_above" 160 680 basechar 0
AnchorPoint: "diac_top" 160 650 basechar 0
AnchorPoint: "ogonek" 170 40 basechar 0
AnchorPoint: "diac_bottom" 160 -50 basechar 0
LayerCount: 2
Fore
SplineSet
100 600 m 1
 220 600 l 1
 220 0 l 1
 100 0 l 1
 100 600 l 1
EndSplineSet
EndChar

StartChar: uni0237
Encoding: 567 567 236
Width: 340
VWidth: 0
Flags: W
HStem: -290 100<-10 81.3765> 580 20G<120 240>
VStem: 120 120<-151.51 600>
AnchorPoint: "diac_top" 180 650 basechar 0
AnchorPoint: "diac_bottom" 358.744 -50 basechar 0
LayerCount: 2
Fore
SplineSet
240 -100 m 2
 240 -217 157 -290 -10 -290 c 1
 -10 -190 l 1
 61 -190 120 -158 120 -90 c 2
 120 600 l 1
 240 600 l 1
 240 -100 l 2
EndSplineSet
EndChar

StartChar: ae
Encoding: 230 230 237
Width: 1060
VWidth: 0
Flags: W
HStem: -20 100<229.505 417.725 636.386 822.598> 278 82<224.495 470 590 870> 525 95<248.774 430.614 642.35 816.507>
VStem: 70 120<116.645 243.988> 90 120<420 483.76> 470 120<127.683 278 360 469.386> 870 120<122.92 200 360 464.982>
AnchorPoint: "diac_top" 530 650 basechar 0
AnchorPoint: "diac_bottom" 530 -50 basechar 0
LayerCount: 2
Fore
SplineSet
190 180 m 0xf6
 190 118 244 80 320 80 c 0
 391 80 443 111 470 162 c 1
 470 200 l 1
 470 280 l 1
 320 280 l 2
 244 280 190 248 190 180 c 0xf6
870 360 m 1
 870 483 809 525 730 525 c 0
 651 525 590 483 590 360 c 1
 870 360 l 1
990 360 m 2
 990 278 l 1
 590 278 l 1
 590 200 l 2
 590 111 662 80 730 80 c 0
 798 80 870 111 870 200 c 1
 990 200 l 1
 990 47 866 -20 730 -20 c 0
 643 -20 561 7 513 67 c 1
 469 16 399 -20 300 -20 c 0
 154 -20 70 70 70 180 c 0xf6
 70 304 170 360 310 360 c 2
 470 360 l 1
 470 420 l 2
 470 487 416 525 340 525 c 0
 264 525 210 487 210 420 c 1
 90 420 l 1xee
 90 542 189 620 340 620 c 0
 427 620 496 594 540 549 c 1
 586 596 653 620 730 620 c 0
 880 620 990 527 990 360 c 2
EndSplineSet
EndChar

StartChar: AE
Encoding: 198 198 238
Width: 1000
VWidth: 0
Flags: W
HStem: 0 100<600 940> 160 100<277 480> 350 100<600 900> 700 100<600 930>
VStem: 480 120<100 160 260 350 450 677>
AnchorPoint: "diac_top" 640 850 basechar 0
AnchorPoint: "diac_bottom" 640 -50 basechar 0
LayerCount: 2
Fore
SplineSet
480 260 m 1
 480 355 l 1
 480 445 l 1
 480 677 l 1
 277 260 l 1
 480 260 l 1
600 100 m 1
 940 100 l 1
 940 0 l 1
 600 0 l 1
 480 0 l 1
 480 90 l 1
 480 160 l 1
 228 160 l 1
 150 0 l 1
 20 0 l 1
 420 800 l 1
 480 800 l 1
 540 800 l 1
 600 800 l 1
 930 800 l 1
 930 700 l 1
 600 700 l 1
 600 450 l 1
 900 450 l 1
 900 350 l 1
 600 350 l 1
 600 100 l 1
EndSplineSet
EndChar

StartChar: Aring
Encoding: 197 197 239
Width: 800
VWidth: 0
HStem: 0 21G<20 157.75 642.25 780> 160 100<251 549> 960 70<351.678 448.322>
VStem: 270 70<851.143 948.322> 460 70<851.143 948.322>
AnchorPoint: "diac_top" 400 1030 basechar 0
LayerCount: 2
Fore
SplineSet
549 260 m 1
 400 645 l 1
 251 260 l 1
 549 260 l 1
400 1030 m 0
 472 1030 530 972 530 900 c 0
 530 852 504 810 465 787 c 1
 780 0 l 1
 650 0 l 1
 588 160 l 1
 212 160 l 1
 150 0 l 1
 20 0 l 1
 335 787 l 1
 296 810 270 852 270 900 c 0
 270 972 328 1030 400 1030 c 0
400 960 m 0
 367 960 340 933 340 900 c 0
 340 867 367 840 400 840 c 0
 433 840 460 867 460 900 c 0
 460 933 433 960 400 960 c 0
EndSplineSet
EndChar

StartChar: multiply
Encoding: 215 215 240
Width: 560
VWidth: 0
Flags: W
HStem: 133 375
VStem: 92 375
LayerCount: 2
Fore
SplineSet
467 183 m 1
 417 133 l 1
 279 271 l 1
 141 133 l 1
 92 183 l 1
 230 321 l 1
 92 459 l 1
 141 508 l 1
 279 370 l 1
 417 508 l 1
 467 459 l 1
 329 321 l 1
 467 183 l 1
EndSplineSet
EndChar

StartChar: divide
Encoding: 247 247 241
Width: 560
VWidth: 0
Flags: W
HStem: 90 120<231.108 328.892> 285 70<80 480> 430 120<231.108 328.892>
VStem: 220 120<101.108 198.892 441.108 538.892>
CounterMasks: 1 e0
LayerCount: 2
Fore
SplineSet
340 150 m 0
 340 117 313 90 280 90 c 0
 247 90 220 117 220 150 c 0
 220 183 247 210 280 210 c 0
 313 210 340 183 340 150 c 0
340 490 m 0
 340 457 313 430 280 430 c 0
 247 430 220 457 220 490 c 0
 220 523 247 550 280 550 c 0
 313 550 340 523 340 490 c 0
80 355 m 1
 480 355 l 1
 480 285 l 1
 80 285 l 1
 80 355 l 1
EndSplineSet
EndChar

StartChar: thorn
Encoding: 254 254 242
Width: 710
VWidth: 0
Flags: W
HStem: -20 95<272.788 451.729> 520 100<278.152 456.462> 880 20G<90 210>
VStem: 90 120<-270 52 125.72 470.036 534 900> 520 120<150.364 455.567>
LayerCount: 2
Fore
SplineSet
90 900 m 1
 210 900 l 1
 210 600 l 1
 210 534 l 1
 247 584 305 620 380 620 c 0
 536 620 640 519 640 360 c 2
 640 260 l 2
 640 72 524 -20 380 -20 c 0
 311 -20 253 9 210 52 c 1
 210 -270 l 1
 90 -270 l 1
 90 600 l 1
 90 900 l 1
210 432 m 1
 210 164 l 1
 235 111 285 75 360 75 c 0
 440 75 520 118 520 260 c 2
 520 360 l 2
 520 474 445 520 360 520 c 0
 282 520 230 476 210 432 c 1
EndSplineSet
EndChar

StartChar: germandbls
Encoding: 223 223 243
Width: 850
VWidth: 0
Flags: W
HStem: -270 100<290 585.798> 0 21G<130 250> 500 100<30 130 250 600> 800 100<288.623 380>
VStem: 130 120<0 500 600 761.51> 670 120<-90.6594 89.7958>
LayerCount: 2
Fore
SplineSet
130 710 m 2
 130 827 213 900 380 900 c 1
 380 800 l 1
 309 800 250 768 250 700 c 2
 250 600 l 1
 730 600 l 1
 730 500 l 1
 522 268 l 1
 672 253 790 174 790 0 c 0
 790 -194 643 -270 470 -270 c 2
 290 -270 l 1
 290 -170 l 1
 470 -170 l 2
 566 -170 670 -126 670 0 c 0
 670 126 566 170 470 170 c 2
 390 170 l 1
 390 220 l 1
 390 270 l 1
 600 500 l 1
 250 500 l 1
 250 0 l 1
 130 0 l 1
 130 500 l 1
 30 500 l 1
 30 600 l 1
 130 600 l 1
 130 710 l 2
EndSplineSet
EndChar

StartChar: Oslash
Encoding: 216 216 244
Width: 800
VWidth: 0
Flags: W
HStem: -20 100<286.75 515.388> 0 21G<70 164.545> 725 95<291.489 508.371> 780 20G<635.333 730>
VStem: 70 120<189.292 624.08> 610 120<175.654 607.273>
AnchorPoint: "diac_top" 400 850 basechar 0
AnchorPoint: "diac_bottom" 400 -50 basechar 0
LayerCount: 2
Fore
SplineSet
650 800 m 1x1c
 730 800 l 1
 665 710 l 1
 706 661 730 597 730 520 c 2
 730 270 l 2
 730 88 587 -20 400 -20 c 0x9c
 315 -20 239 2 182 44 c 1
 150 0 l 1
 70 0 l 1
 134 88 l 1
 93 135 70 196 70 270 c 2
 70 520 l 2
 70 706 213 820 400 820 c 0x6c
 484 820 560 797 617 755 c 1
 650 800 l 1x1c
246 133 m 1
 284 99 338 80 400 80 c 0
 521 80 610 150 610 270 c 2
 610 520 l 2
 610 554 604 584 592 610 c 1
 246 133 l 1
206 188 m 1
 553 667 l 1
 515 704 461 725 400 725 c 0x2c
 283 725 190 649 190 520 c 2
 190 270 l 2
 190 239 196 212 206 188 c 1
EndSplineSet
EndChar

StartChar: Thorn
Encoding: 222 222 245
Width: 740
VWidth: 0
Flags: W
HStem: 0 21G<90 210> 210 95<210 497.141> 605 95<210 497.141> 780 20G<90 210>
VStem: 90 120<0 210 305 605 700 800> 560 130<365.207 544.793>
LayerCount: 2
Fore
SplineSet
420 700 m 2
 621 700 690 563 690 455 c 0
 690 347 621 210 420 210 c 2
 210 210 l 1
 210 0 l 1
 90 0 l 1
 90 800 l 1
 210 800 l 1
 210 700 l 1
 420 700 l 2
400 605 m 2
 210 605 l 1
 210 305 l 1
 400 305 l 2
 523 305 560 384 560 455 c 0
 560 526 523 605 400 605 c 2
EndSplineSet
EndChar

StartChar: oslash
Encoding: 248 248 246
Width: 660
VWidth: 0
Flags: W
HStem: -20 100<236.378 424.283> 0 21G<60 150.385> 525 95<239.678 421.91> 580 20G<509.667 600>
VStem: 60 120<168.263 465.395> 480 120<137.323 430.339>
AnchorPoint: "diac_top" 340 650 basechar 0
AnchorPoint: "diac_bottom" 318.744 -50 basechar 0
AnchorPoint: "cedilla" 357.004 40 basechar 0
AnchorPoint: "ogonek" 357.004 40 basechar 0
LayerCount: 2
Fore
SplineSet
525 600 m 1x1c
 600 600 l 1
 545 529 l 1
 580 487 600 430 600 360 c 2
 600 220 l 2
 600 57 484 -20 330 -20 c 0x9c
 262 -20 201 -5 155 26 c 1
 135 0 l 1
 60 0 l 1
 111 65 l 1
 79 103 60 155 60 220 c 2
 60 360 l 2
 60 528 176 620 330 620 c 0x6c
 396 620 456 603 502 570 c 1
 525 600 l 1x1c
330 525 m 0x2c
 255 525 180 489 180 360 c 2
 180 220 l 2
 180 199 183 181 189 166 c 1
 437 487 l 1
 409 515 369 525 330 525 c 0x2c
470 432 m 1
 224 115 l 1
 254 89 295 80 330 80 c 0x8c
 395 80 480 111 480 220 c 2
 480 360 l 2
 480 388 476 412 470 432 c 1
EndSplineSet
EndChar

StartChar: cedilla
Encoding: 184 184 247
Width: 560
VWidth: 0
Flags: W
HStem: -350 65<100.347 289.654> -155 65<124 290.755>
VStem: -10 90<-264.095 -220> 310 90<-264.249 -175.751>
LayerCount: 2
Fore
SplineSet
160 40 m 1
 240 40 l 1
 124 -90 l 1
 195 -90 l 2
 324 -90 400 -142 400 -220 c 0
 400 -298 329 -350 195 -350 c 0
 61 -350 -10 -298 -10 -220 c 1
 80 -220 l 1
 80 -266 135 -285 195 -285 c 0
 255 -285 310 -266 310 -220 c 0
 310 -174 255 -155 195 -155 c 2
 60 -155 l 1
 40 -90 l 1
 160 40 l 1
EndSplineSet
EndChar

StartChar: ampersand
Encoding: 38 38 248
Width: 800
VWidth: 0
Flags: W
HStem: -20 100<250.858 458.523> 0 21G<614.127 770> 720 100<313.04 439.521>
VStem: 70 120<135.495 282.594> 170 120<551.161 696.757> 460 120<553.312 699.61> 590 120<254.398 380>
LayerCount: 2
Fore
SplineSet
335 373 m 1xb6
 241 325 190 274 190 210 c 0
 190 135 253 80 350 80 c 0
 416 80 472 104 513 148 c 1
 335 373 l 1xb6
380 720 m 0
 326 720 290 688 290 630 c 0x2e
 290 570 331 528 363 501 c 1
 425 532 460 565 460 630 c 0
 460 688 426 720 380 720 c 0
380 820 m 0
 503 820 580 735 580 630 c 0
 580 536 514 472 436 425 c 1
 572 252 l 1
 584 289 590 332 590 380 c 1
 710 380 l 1
 710 295 689 216 651 151 c 1
 770 0 l 1
 630 0 l 1x6e
 580 63 l 1
 520 11 442 -20 350 -20 c 0
 172 -20 70 80 70 210 c 0xb6
 70 332 163 402 265 454 c 1
 229 488 170 550 170 630 c 0
 170 735 255 820 380 820 c 0
EndSplineSet
EndChar

StartChar: currency
Encoding: 164 164 249
Width: 1040
VWidth: 0
Flags: W
HStem: -20 120<400.488 640.141> 700 120<400.488 638.123>
VStem: 100 120<281.877 519.512> 820 120<279.859 519.512>
LayerCount: 2
Fore
SplineSet
520 700 m 0
 355 700 220 565 220 400 c 0
 220 234 355 100 520 100 c 0
 686 100 820 234 820 400 c 0
 820 565 686 700 520 700 c 0
174 831 m 1
 269 736 l 1
 339 789 426 820 520 820 c 0
 615 820 702 789 772 736 c 1
 867 831 l 1
 952 746 l 1
 857 651 l 1
 909 581 940 494 940 400 c 0
 940 305 909 218 857 148 c 1
 952 53 l 1
 867 -32 l 1
 772 63 l 1
 702 11 615 -20 520 -20 c 0
 426 -20 339 11 269 63 c 1
 174 -32 l 1
 89 53 l 1
 184 148 l 1
 131 218 100 305 100 400 c 0
 100 494 131 581 184 651 c 1
 89 746 l 1
 174 831 l 1
EndSplineSet
EndChar

StartChar: uni00B5
Encoding: 181 181 250
Width: 680
VWidth: 0
Flags: W
HStem: -20 100<297.328 461.094> 580 20G<90 210 490 610>
VStem: 90 120<-270 86 150.453 600> 490 120<109.426 600>
LayerCount: 2
Fore
SplineSet
210 0 m 1
 210 -270 l 1
 90 -270 l 1
 90 0 l 1
 90 600 l 1
 210 600 l 1
 210 192 l 1
 237 135 293 80 380 80 c 0
 442 80 490 108 490 180 c 2
 490 600 l 1
 610 600 l 1
 610 180 l 2
 610 49 524 -20 400 -20 c 0
 299 -20 239 44 210 86 c 1
 210 0 l 1
EndSplineSet
EndChar

StartChar: paragraph
Encoding: 182 182 251
Width: 740
VWidth: 0
Flags: W
HStem: 0 21G<300 420 530 650> 310 98<237.197 300> 705 95<242.859 300 420 530>
VStem: 50 130<463.889 644.92> 300 120<0 310 408 702> 530 120<0 705>
LayerCount: 2
Fore
SplineSet
300 408 m 1
 300 702 l 1
 209 686 180 617 180 555 c 0
 180 493 209 424 300 408 c 1
420 705 m 1
 420 0 l 1
 300 0 l 1
 300 310 l 1
 115 319 50 450 50 555 c 0
 50 663 119 800 320 800 c 2
 650 800 l 1
 650 0 l 1
 530 0 l 1
 530 705 l 1
 420 705 l 1
EndSplineSet
EndChar

StartChar: macron
Encoding: 175 175 252
Width: 560
VWidth: 0
Flags: W
HStem: 730 70<70 490>
LayerCount: 2
Fore
SplineSet
70 800 m 1
 490 800 l 1
 490 730 l 1
 70 730 l 1
 70 800 l 1
EndSplineSet
EndChar

StartChar: logicalnot
Encoding: 172 172 253
Width: 600
VWidth: 0
Flags: W
HStem: 410 190<420 530> 530 70<60 420>
VStem: 420 110<410 530>
LayerCount: 2
Fore
SplineSet
60 600 m 1x60
 530 600 l 1
 530 410 l 1
 420 410 l 1xa0
 420 530 l 1
 60 530 l 1
 60 600 l 1x60
EndSplineSet
EndChar

StartChar: onequarter
Encoding: 188 188 254
Width: 780
VWidth: 0
Flags: W
HStem: 0 21G<70 164.5 630 690> 75 50<518 630 690 730> 656 53<50 134.362> 780 20G<180 240 635.5 730>
VStem: 180 60<399 709 749.869 799> 630 60<0 75 125 308>
LayerCount: 2
Fore
SplineSet
650 800 m 1
 730 800 l 1
 150 0 l 1
 70 0 l 1
 650 800 l 1
460 125 m 1
 630 400 l 1
 690 400 l 1
 690 125 l 1
 730 125 l 1
 730 75 l 1
 690 75 l 1
 690 0 l 1
 630 0 l 1
 630 75 l 1
 460 75 l 1
 460 125 l 1
518 125 m 1
 630 125 l 1
 630 308 l 1
 518 125 l 1
180 709 m 1
 160 678 100 656 50 656 c 1
 50 709 l 1
 108 709 180 752 180 799 c 1
 240 799 l 1
 240 399 l 1
 180 399 l 1
 180 709 l 1
EndSplineSet
EndChar

StartChar: onehalf
Encoding: 189 189 255
Width: 780
VWidth: 0
Flags: W
HStem: 0 50<530 730> 360 50<547.945 652.055> 656 53<50 134.362> 780 20G<180 240 635.5 730>
VStem: 180 60<399 709 749.869 799> 470 60<50 105.67 295 344.198> 665 60<239.392 347.501>
LayerCount: 2
Fore
SplineSet
650 800 m 1
 730 800 l 1
 150 0 l 1
 70 0 l 1
 650 800 l 1
665 295 m 0
 665 332 639 360 600 360 c 0
 561 360 535 332 535 295 c 1
 475 295 l 1
 475 357 523 410 600 410 c 0
 677 410 725 357 725 295 c 0
 725 239 686 202 640 170 c 0
 592 136 530 102 530 50 c 1
 730 50 l 1
 730 0 l 1
 470 0 l 1
 470 50 l 2
 470 108 523 148 570 185 c 0
 610 216 665 245 665 295 c 0
180 709 m 1
 160 678 100 656 50 656 c 1
 50 709 l 1
 108 709 180 752 180 799 c 1
 240 799 l 1
 240 399 l 1
 180 399 l 1
 180 709 l 1
EndSplineSet
EndChar

StartChar: threequarters
Encoding: 190 190 256
Width: 780
VWidth: 0
Flags: W
HStem: 0 21G<70 164.5 630 690> 75 50<518 630 690 730> 390 50<127.65 242.35> 582 50<140 237.642> 760 50<132.945 237.055> 780 20G<635.5 730>
VStem: 50 60<456.186 512> 60 60<695 746.688> 250 60<642.945 747.501> 260 60<455.599 567.542> 630 60<0 75 125 308>
LayerCount: 2
Fore
SplineSet
650 800 m 1xf420
 730 800 l 1
 150 0 l 1
 70 0 l 1
 650 800 l 1xf420
460 125 m 1
 630 400 l 1
 690 400 l 1
 690 125 l 1
 730 125 l 1
 730 75 l 1
 690 75 l 1
 690 0 l 1
 630 0 l 1
 630 75 l 1
 460 75 l 1
 460 125 l 1
518 125 m 1
 630 125 l 1
 630 308 l 1
 518 125 l 1
50 512 m 1xfa60
 110 512 l 1
 110 471 138 440 185 440 c 0
 232 440 260 471 260 512.5 c 0xfa60
 260 554 232 582 185 582 c 2
 140 582 l 1
 140 632 l 1
 185 632 l 2
 224 632 250 658 250 695 c 0
 250 732 224 760 185 760 c 0
 146 760 120 732 120 695 c 1
 60 695 l 1
 60 757 108 810 185 810 c 0
 262 810 310 757 310 695 c 0xf9a0
 310 660 296 630 270 610 c 1
 302 588 320 554 320 512 c 0
 320 444 268 390 185 390 c 0
 102 390 50 444 50 512 c 1xfa60
EndSplineSet
EndChar

StartChar: uni20A9
Encoding: 8361 8361 257
Width: 1160
VWidth: 0
Flags: W
HStem: 0 21G<284 415.6 744.4 876> 400 70<20 149 295 413 542 618 747 865 1011 1140> 620 70<20 83 232 474 686 928 1077 1140> 780 20G<50 185.818 519.364 640.636 974.182 1110>
LayerCount: 2
Fore
SplineSet
948 690 m 1
 980 800 l 1
 1110 800 l 1
 1077 690 l 1
 1140 690 l 1
 1140 620 l 1
 1056 620 l 1
 1011 470 l 1
 1140 470 l 1
 1140 400 l 1
 990 400 l 1
 870 0 l 1
 860 0 l 1
 750 0 l 1
 638 400 l 1
 522 400 l 1
 410 0 l 1
 300 0 l 1
 290 0 l 1
 170 400 l 1
 20 400 l 1
 20 470 l 1
 149 470 l 1
 104 620 l 1
 20 620 l 1
 20 690 l 1
 83 690 l 1
 50 800 l 1
 180 800 l 1
 212 690 l 1
 494 690 l 1
 525 800 l 1
 635 800 l 1
 666 690 l 1
 948 690 l 1
928 620 m 1
 686 620 l 1
 728 470 l 1
 885 470 l 1
 928 620 l 1
865 400 m 1
 747 400 l 1
 806 193 l 1
 865 400 l 1
474 620 m 1
 232 620 l 1
 275 470 l 1
 432 470 l 1
 474 620 l 1
413 400 m 1
 295 400 l 1
 354 193 l 1
 413 400 l 1
542 470 m 1
 618 470 l 1
 580 604 l 1
 542 470 l 1
EndSplineSet
EndChar

StartChar: uni20B9
Encoding: 8377 8377 258
Width: 720
VWidth: 0
Flags: W
HStem: 0 21G<420.526 580> 310 70<270 327.455> 520 70<70 398 513.692 650> 730 70<70 330.092 449 650>
VStem: 398 120<451.83 520 590 661.133>
LayerCount: 2
Fore
SplineSet
70 520 m 1
 70 590 l 1
 398 590 l 1
 386 666 337 730 230 730 c 2
 70 730 l 1
 70 800 l 1
 250 800 l 1
 650 800 l 1
 650 730 l 1
 449 730 l 1
 490 690 511 639 518 590 c 1
 650 590 l 1
 650 520 l 1
 518 520 l 1
 504 423 435 318 270 310 c 1
 580 0 l 1
 440 0 l 1
 70 380 l 1
 200 380 l 1
 230 380 l 2
 337 380 386 444 398 520 c 1
 70 520 l 1
EndSplineSet
EndChar

StartChar: odieresis
Encoding: 246 246 259
Width: 660
VWidth: 0
Flags: W
HStem: -20 100<235.717 424.283> 525 95<239.678 420.322> 680 150<138.524 251.999 408.524 521.999>
VStem: 60 120<137.323 465.395> 120 150<698.431 811.569> 390 150<698.431 811.569> 480 120<137.323 465.395>
AnchorPoint: "diac_top" 340 830 basechar 0
AnchorPoint: "diac_bottom" 318.744 -50 basechar 0
LayerCount: 2
Fore
SplineSet
540 755 m 0xe4
 540 714 507 680 466 680 c 0
 424 680 390 714 390 755 c 0
 390 796 424 830 466 830 c 0
 507 830 540 796 540 755 c 0xe4
270 755 m 0xe8
 270 714 237 680 196 680 c 0
 154 680 120 714 120 755 c 0
 120 796 154 830 196 830 c 0
 237 830 270 796 270 755 c 0xe8
330 525 m 0
 255 525 180 489 180 360 c 2
 180 220 l 2
 180 111 265 80 330 80 c 0
 395 80 480 111 480 220 c 2
 480 360 l 2xf2
 480 489 405 525 330 525 c 0
330 620 m 0
 484 620 600 528 600 360 c 2
 600 220 l 2
 600 57 484 -20 330 -20 c 0
 176 -20 60 57 60 220 c 2
 60 360 l 2
 60 528 176 620 330 620 c 0
EndSplineSet
EndChar

StartChar: uni0337
Encoding: 823 823 260
Width: 0
VWidth: 0
Flags: W
HStem: 0 21G<-600 -509.5> 580 20G<-150.5 -60>
LayerCount: 2
Fore
SplineSet
-135 600 m 1
 -60 600 l 1
 -525 0 l 1
 -600 0 l 1
 -135 600 l 1
EndSplineSet
EndChar

StartChar: uni0338
Encoding: 824 824 261
Width: 0
VWidth: 0
Flags: W
HStem: 0 21G<-730 -635.5> 780 20G<-164.5 -70>
LayerCount: 2
Fore
SplineSet
-150 800 m 1
 -70 800 l 1
 -650 0 l 1
 -730 0 l 1
 -150 800 l 1
EndSplineSet
EndChar

StartChar: dieresis
Encoding: 168 168 262
Width: 680
VWidth: 0
Flags: W
HStem: 650 140<155.875 264.125 415.875 524.125>
VStem: 140 140<665.875 774.125> 400 140<665.875 774.125>
LayerCount: 2
Fore
SplineSet
540 720 m 0
 540 681 509 650 470 650 c 0
 431 650 400 681 400 720 c 0
 400 759 431 790 470 790 c 0
 509 790 540 759 540 720 c 0
280 720 m 0
 280 681 249 650 210 650 c 0
 171 650 140 681 140 720 c 0
 140 759 171 790 210 790 c 0
 249 790 280 759 280 720 c 0
EndSplineSet
EndChar

StartChar: idieresis
Encoding: 239 239 263
Width: 320
VWidth: 0
HStem: 0 21G<100 220> 580 20G<100 220> 680 150<-11.4761 101.999 218.524 331.999>
VStem: -30 150<698.431 811.569> 100 120<0 600> 200 150<698.431 811.569>
AnchorPoint: "diac_top" 160 830 basechar 0
LayerCount: 2
Fore
SplineSet
350 755 m 0xe4
 350 714 317 680 276 680 c 0
 234 680 200 714 200 755 c 0
 200 796 234 830 276 830 c 0
 317 830 350 796 350 755 c 0xe4
120 755 m 0xf0
 120 714 87 680 46 680 c 0
 4 680 -30 714 -30 755 c 0
 -30 796 4 830 46 830 c 0
 87 830 120 796 120 755 c 0xf0
100 600 m 1xe8
 220 600 l 1
 220 0 l 1
 100 0 l 1
 100 600 l 1xe8
EndSplineSet
EndChar

StartChar: Adieresis
Encoding: 196 196 264
Width: 800
VWidth: 0
HStem: 0 21G<20 157.75 642.25 780> 160 100<251 549> 780 20G<332 468> 880 150<208.524 321.999 478.524 591.999>
VStem: 190 150<898.431 1011.57> 460 150<898.431 1011.57>
AnchorPoint: "diac_top" 400 1030 basechar 0
LayerCount: 2
Fore
SplineSet
610 955 m 0
 610 914 577 880 536 880 c 0
 494 880 460 914 460 955 c 0
 460 996 494 1030 536 1030 c 0
 577 1030 610 996 610 955 c 0
340 955 m 0
 340 914 307 880 266 880 c 0
 224 880 190 914 190 955 c 0
 190 996 224 1030 266 1030 c 0
 307 1030 340 996 340 955 c 0
549 260 m 1
 400 645 l 1
 251 260 l 1
 549 260 l 1
780 0 m 1
 650 0 l 1
 588 160 l 1
 212 160 l 1
 150 0 l 1
 20 0 l 1
 340 800 l 1
 460 800 l 1
 780 0 l 1
EndSplineSet
EndChar

StartChar: Edieresis
Encoding: 203 203 265
Width: 670
VWidth: 0
HStem: 0 100<210 610> 350 100<210 570> 700 100<210 600> 880 150<143.524 256.999 413.524 526.999>
VStem: 90 120<100 350 450 700> 125 150<898.431 1011.57> 395 150<898.431 1011.57>
AnchorPoint: "diac_bottom" 328.744 -50 basechar 0
LayerCount: 2
Fore
SplineSet
545 955 m 0xf2
 545 914 512 880 471 880 c 0
 429 880 395 914 395 955 c 0
 395 996 429 1030 471 1030 c 0
 512 1030 545 996 545 955 c 0xf2
275 955 m 0xf6
 275 914 242 880 201 880 c 0
 159 880 125 914 125 955 c 0
 125 996 159 1030 201 1030 c 0
 242 1030 275 996 275 955 c 0xf6
210 100 m 1xfa
 610 100 l 1
 610 0 l 1
 210 0 l 1
 90 0 l 1
 90 90 l 1
 90 355 l 1
 90 445 l 1
 90 710 l 1
 90 800 l 1
 210 800 l 1
 600 800 l 1
 600 700 l 1
 210 700 l 1
 210 450 l 1
 570 450 l 1
 570 350 l 1
 210 350 l 1
 210 100 l 1xfa
EndSplineSet
EndChar

StartChar: Odieresis
Encoding: 214 214 266
Width: 800
VWidth: 0
Flags: W
HStem: -20 100<284.612 515.388> 725 95<291.489 508.511> 880 150<208.524 321.999 478.524 591.999>
VStem: 70 120<175.654 624.08> 190 150<898.431 1011.57> 460 150<898.431 1011.57> 610 120<175.654 624.467>
AnchorPoint: "diac_top" 400 1030 basechar 0
LayerCount: 2
Fore
SplineSet
610 955 m 0xe4
 610 914 577 880 536 880 c 0
 494 880 460 914 460 955 c 0
 460 996 494 1030 536 1030 c 0
 577 1030 610 996 610 955 c 0xe4
340 955 m 0xe8
 340 914 307 880 266 880 c 0
 224 880 190 914 190 955 c 0
 190 996 224 1030 266 1030 c 0
 307 1030 340 996 340 955 c 0xe8
610 520 m 2xf2
 610 649 517 725 400 725 c 0
 283 725 190 649 190 520 c 2
 190 270 l 2
 190 150 279 80 400 80 c 0
 521 80 610 150 610 270 c 2
 610 520 l 2xf2
730 520 m 2
 730 270 l 2
 730 88 587 -20 400 -20 c 0
 213 -20 70 88 70 270 c 2
 70 520 l 2
 70 706 213 820 400 820 c 0
 587 820 730 707 730 520 c 2
EndSplineSet
EndChar

StartChar: Udieresis
Encoding: 220 220 267
Width: 800
VWidth: 0
HStem: -20 100<293.38 506.62> 780 20G<80 200 600 720> 880 150<208.524 321.999 478.524 591.999>
VStem: 80 120<172.438 800> 190 150<898.431 1011.57> 460 150<898.431 1011.57> 600 120<172.438 800>
AnchorPoint: "diac_top" 400 1030 basechar 0
LayerCount: 2
Fore
SplineSet
610 955 m 0xe4
 610 914 577 880 536 880 c 0
 494 880 460 914 460 955 c 0
 460 996 494 1030 536 1030 c 0
 577 1030 610 996 610 955 c 0xe4
340 955 m 0xe8
 340 914 307 880 266 880 c 0
 224 880 190 914 190 955 c 0
 190 996 224 1030 266 1030 c 0
 307 1030 340 996 340 955 c 0xe8
80 800 m 1xf2
 200 800 l 1
 200 280 l 2
 200 131 307 80 400 80 c 0
 493 80 600 131 600 280 c 2
 600 800 l 1
 720 800 l 1
 720 280 l 2
 720 85 583 -20 400 -20 c 0
 217 -20 80 85 80 280 c 2
 80 800 l 1xf2
EndSplineSet
EndChar

StartChar: adieresis
Encoding: 228 228 268
Width: 700
VWidth: 0
HStem: -20 100<229.505 413.134> -10 100<595.547 640> 280 80<224.495 470> 525 95<248.774 431.227> 680 150<148.524 261.999 418.524 531.999>
VStem: 70 120<116.645 243.988> 90 120<420 483.76> 130 150<698.431 811.569> 400 150<698.431 811.569> 470 120<123.031 280 360 483.76>
AnchorPoint: "diac_top" 340 830 basechar 0
AnchorPoint: "diac_bottom" 328.744 -50 basechar 0
LayerCount: 2
Fore
SplineSet
550 755 m 0x3880
 550 714 517 680 476 680 c 0
 434 680 400 714 400 755 c 0
 400 796 434 830 476 830 c 0
 517 830 550 796 550 755 c 0x3880
280 755 m 0x39
 280 714 247 680 206 680 c 0
 164 680 130 714 130 755 c 0
 130 796 164 830 206 830 c 0
 247 830 280 796 280 755 c 0x39
70 180 m 0xbc40
 70 304 170 360 310 360 c 2
 470 360 l 1
 470 420 l 2
 470 487 416 525 340 525 c 0
 264 525 210 487 210 420 c 1
 90 420 l 1
 90 542 189 620 340 620 c 0
 491 620 590 542 590 420 c 2
 590 160 l 2
 590 106 603 90 640 90 c 1
 640 -10 l 1x7a40
 555 -10 501 11 480 54 c 1
 436 10 374 -20 300 -20 c 0
 154 -20 70 70 70 180 c 0xbc40
190 180 m 0xbc40
 190 118 244 80 320 80 c 0
 391 80 443 107 470 155 c 1
 470 280 l 1
 320 280 l 2
 244 280 190 248 190 180 c 0xbc40
EndSplineSet
EndChar

StartChar: edieresis
Encoding: 235 235 269
Width: 680
VWidth: 0
HStem: -20 100<241.34 438.66> 278 82<190 490> 525 95<251.039 428.961> 680 150<148.524 261.999 418.524 531.999>
VStem: 70 120<128.634 278 360 463.036> 130 150<698.431 811.569> 400 150<698.431 811.569> 490 120<128.634 200 360 463.036>
AnchorPoint: "diac_top" 340 830 basechar 0
LayerCount: 2
Fore
SplineSet
550 755 m 0xf2
 550 714 517 680 476 680 c 0
 434 680 400 714 400 755 c 0
 400 796 434 830 476 830 c 0
 517 830 550 796 550 755 c 0xf2
280 755 m 0xf4
 280 714 247 680 206 680 c 0
 164 680 130 714 130 755 c 0
 130 796 164 830 206 830 c 0
 247 830 280 796 280 755 c 0xf4
610 360 m 2xf9
 610 278 l 1
 190 278 l 1
 190 200 l 2
 190 111 272 80 340 80 c 0
 408 80 490 111 490 200 c 1
 610 200 l 1
 610 47 476 -20 340 -20 c 0
 204 -20 70 47 70 200 c 2
 70 360 l 2
 70 528 190 620 340 620 c 0
 490 620 610 528 610 360 c 2xf9
490 360 m 1
 490 483 419 525 340 525 c 0
 261 525 190 483 190 360 c 1
 490 360 l 1
EndSplineSet
EndChar

StartChar: udieresis
Encoding: 252 252 270
Width: 660
VWidth: 0
HStem: -20 100<243.681 416.319> 580 20G<80 200 460 580> 680 150<138.524 251.999 408.524 521.999>
VStem: 80 120<121.514 600> 120 150<698.431 811.569> 390 150<698.431 811.569> 460 120<121.514 600>
AnchorPoint: "diac_top" 330 830 basechar 0
LayerCount: 2
Fore
SplineSet
540 755 m 0xe4
 540 714 507 680 466 680 c 0
 424 680 390 714 390 755 c 0
 390 796 424 830 466 830 c 0
 507 830 540 796 540 755 c 0xe4
270 755 m 0xe8
 270 714 237 680 196 680 c 0
 154 680 120 714 120 755 c 0
 120 796 154 830 196 830 c 0
 237 830 270 796 270 755 c 0xe8
200 200 m 2xf2
 200 113 264 80 330 80 c 0
 396 80 460 113 460 200 c 2
 460 600 l 1
 580 600 l 1
 580 200 l 2
 580 58 481 -20 330 -20 c 0
 179 -20 80 58 80 200 c 2
 80 600 l 1
 200 600 l 1
 200 200 l 2xf2
EndSplineSet
EndChar

StartChar: ydieresis
Encoding: 255 255 271
Width: 660
VWidth: 0
HStem: -290 100<90 188.699> 580 20G<30 167.506 492.494 630> 680 150<138.524 251.999 408.524 521.999>
VStem: 120 150<698.431 811.569> 390 150<698.431 811.569>
LayerCount: 2
Fore
SplineSet
540 755 m 0
 540 714 507 680 466 680 c 0
 424 680 390 714 390 755 c 0
 390 796 424 830 466 830 c 0
 507 830 540 796 540 755 c 0
270 755 m 0
 270 714 237 680 196 680 c 0
 154 680 120 714 120 755 c 0
 120 796 154 830 196 830 c 0
 237 830 270 796 270 755 c 0
500 600 m 1
 630 600 l 1
 390 0 l 1
 320 -180 l 1
 286 -264 228 -290 90 -290 c 1
 90 -190 l 1
 171 -190 187 -178 210 -140 c 1
 270 0 l 1
 30 600 l 1
 160 600 l 1
 330 147 l 1
 500 600 l 1
EndSplineSet
EndChar

StartChar: iacute
Encoding: 237 237 272
Width: 320
VWidth: 0
HStem: 0 21G<100 220> 580 20G<100 220>
VStem: 100 120<0 600>
AnchorPoint: "diac_top" 160 830 basechar 0
LayerCount: 2
Fore
SplineSet
360 860 m 1
 110 680 l 1
 40 680 l 1
 210 860 l 1
 360 860 l 1
100 600 m 1
 220 600 l 1
 220 0 l 1
 100 0 l 1
 100 600 l 1
EndSplineSet
EndChar

StartChar: igrave
Encoding: 236 236 273
Width: 320
VWidth: 0
HStem: 0 21G<100 220> 580 20G<100 220>
VStem: 100 120<0 600>
AnchorPoint: "diac_top" 160 830 basechar 0
LayerCount: 2
Fore
SplineSet
-40 860 m 1
 110 860 l 1
 280 680 l 1
 210 680 l 1
 -40 860 l 1
100 600 m 1
 220 600 l 1
 220 0 l 1
 100 0 l 1
 100 600 l 1
EndSplineSet
EndChar

StartChar: Agrave
Encoding: 192 192 274
Width: 800
VWidth: 0
HStem: 0 21G<20 157.75 642.25 780> 160 100<251 549> 780 20G<332 468>
AnchorPoint: "diac_top" 400 1030 basechar 0
LayerCount: 2
Fore
SplineSet
200 1060 m 1
 350 1060 l 1
 520 880 l 1
 450 880 l 1
 200 1060 l 1
549 260 m 1
 400 645 l 1
 251 260 l 1
 549 260 l 1
780 0 m 1
 650 0 l 1
 588 160 l 1
 212 160 l 1
 150 0 l 1
 20 0 l 1
 340 800 l 1
 460 800 l 1
 780 0 l 1
EndSplineSet
EndChar

StartChar: Aacute
Encoding: 193 193 275
Width: 800
VWidth: 0
HStem: 0 21G<20 157.75 642.25 780> 160 100<251 549> 780 20G<332 468>
AnchorPoint: "diac_top" 400 1030 basechar 0
LayerCount: 2
Fore
SplineSet
600 1060 m 1
 350 880 l 1
 280 880 l 1
 450 1060 l 1
 600 1060 l 1
549 260 m 1
 400 645 l 1
 251 260 l 1
 549 260 l 1
780 0 m 1
 650 0 l 1
 588 160 l 1
 212 160 l 1
 150 0 l 1
 20 0 l 1
 340 800 l 1
 460 800 l 1
 780 0 l 1
EndSplineSet
EndChar

StartChar: Acircumflex
Encoding: 194 194 276
Width: 800
VWidth: 0
HStem: 0 21G<20 157.75 642.25 780> 160 100<251 549> 780 20G<332 468>
AnchorPoint: "diac_top" 400 1030 basechar 0
AnchorPoint: "hook_above" 400 1030 basechar 0
LayerCount: 2
Fore
SplineSet
300 880 m 1
 170 880 l 1
 355 1030 l 1
 445 1030 l 1
 630 880 l 1
 500 880 l 1
 400 980 l 1
 300 880 l 1
549 260 m 1
 400 645 l 1
 251 260 l 1
 549 260 l 1
780 0 m 1
 650 0 l 1
 588 160 l 1
 212 160 l 1
 150 0 l 1
 20 0 l 1
 340 800 l 1
 460 800 l 1
 780 0 l 1
EndSplineSet
EndChar

StartChar: Atilde
Encoding: 195 195 277
Width: 800
VWidth: 0
HStem: 0 21G<20 157.75 642.25 780> 160 100<251 549> 780 20G<332 468> 880 70<430.801 540.123> 960 70<259.877 369.199>
VStem: 190 50<902.48 939.559> 560 50<970.441 1007.52>
AnchorPoint: "diac_top" 400 1030 basechar 0
LayerCount: 2
Fore
SplineSet
320 1030 m 0
 359 1030 393 1011 417 989 c 0
 438 970 453 950 485 950 c 0
 532 950 549 979 560 1020 c 1
 610 1005 l 1
 600 943 556 880 480 880 c 0
 441 880 407 899 383 921 c 0
 362 940 347 960 315 960 c 0
 268 960 251 931 240 890 c 1
 190 905 l 1
 200 967 244 1030 320 1030 c 0
549 260 m 1
 400 645 l 1
 251 260 l 1
 549 260 l 1
780 0 m 1
 650 0 l 1
 588 160 l 1
 212 160 l 1
 150 0 l 1
 20 0 l 1
 340 800 l 1
 460 800 l 1
 780 0 l 1
EndSplineSet
EndChar

StartChar: Igrave
Encoding: 204 204 278
Width: 320
VWidth: 0
HStem: 0 21G<100 220> 780 20G<100 220>
VStem: 100 120<0 800>
AnchorPoint: "diac_top" 160 1030 basechar 0
AnchorPoint: "diac_bottom" 160 -50 basechar 0
LayerCount: 2
Fore
SplineSet
-40 1060 m 1
 110 1060 l 1
 280 880 l 1
 210 880 l 1
 -40 1060 l 1
100 800 m 1
 220 800 l 1
 220 0 l 1
 100 0 l 1
 100 800 l 1
EndSplineSet
EndChar

StartChar: Iacute
Encoding: 205 205 279
Width: 320
VWidth: 0
HStem: 0 21G<100 220> 780 20G<100 220>
VStem: 100 120<0 800>
AnchorPoint: "diac_bottom" 160 -50 basechar 0
AnchorPoint: "diac_top" 160 1030 basechar 0
LayerCount: 2
Fore
SplineSet
360 1060 m 1
 110 880 l 1
 40 880 l 1
 210 1060 l 1
 360 1060 l 1
100 800 m 1
 220 800 l 1
 220 0 l 1
 100 0 l 1
 100 800 l 1
EndSplineSet
EndChar

StartChar: Icircumflex
Encoding: 206 206 280
Width: 320
VWidth: 0
HStem: 0 21G<100 220> 780 20G<100 220>
VStem: 100 120<0 800>
AnchorPoint: "diac_bottom" 160 -50 basechar 0
AnchorPoint: "diac_top" 160 1030 basechar 0
LayerCount: 2
Fore
SplineSet
90 880 m 1
 -20 880 l 1
 125 1030 l 1
 195 1030 l 1
 340 880 l 1
 230 880 l 1
 160 980 l 1
 90 880 l 1
100 800 m 1
 220 800 l 1
 220 0 l 1
 100 0 l 1
 100 800 l 1
EndSplineSet
EndChar

StartChar: Idieresis
Encoding: 207 207 281
Width: 320
VWidth: 0
HStem: 0 21G<100 220> 780 20G<100 220> 880 150<-11.4761 101.999 218.524 331.999>
VStem: -30 150<898.431 1011.57> 100 120<0 800> 200 150<898.431 1011.57>
AnchorPoint: "diac_top" 160 1030 basechar 0
AnchorPoint: "diac_bottom" 160 -50 basechar 0
LayerCount: 2
Fore
SplineSet
350 955 m 0xe4
 350 914 317 880 276 880 c 0
 234 880 200 914 200 955 c 0
 200 996 234 1030 276 1030 c 0
 317 1030 350 996 350 955 c 0xe4
120 955 m 0xf0
 120 914 87 880 46 880 c 0
 4 880 -30 914 -30 955 c 0
 -30 996 4 1030 46 1030 c 0
 87 1030 120 996 120 955 c 0xf0
100 800 m 1xe8
 220 800 l 1
 220 0 l 1
 100 0 l 1
 100 800 l 1xe8
EndSplineSet
EndChar

StartChar: Ntilde
Encoding: 209 209 282
Width: 800
VWidth: 0
HStem: 0 21G<90 210 577.742 710> 780 20G<90 222.258 590 710> 880 70<430.801 540.123> 960 70<259.877 369.199>
VStem: 90 120<0 620> 190 50<902.48 939.559> 560 50<970.441 1007.52> 590 120<180 800>
LayerCount: 2
Fore
SplineSet
320 1030 m 0xf6
 359 1030 393 1011 417 989 c 0
 438 970 453 950 485 950 c 0
 532 950 549 979 560 1020 c 1
 610 1005 l 1
 600 943 556 880 480 880 c 0
 441 880 407 899 383 921 c 0
 362 940 347 960 315 960 c 0
 268 960 251 931 240 890 c 1
 190 905 l 1
 200 967 244 1030 320 1030 c 0xf6
210 0 m 1xf9
 90 0 l 1
 90 800 l 1
 210 800 l 1
 590 180 l 1
 590 800 l 1
 710 800 l 1
 710 0 l 1
 590 0 l 1
 210 620 l 1
 210 0 l 1xf9
EndSplineSet
EndChar

StartChar: Ograve
Encoding: 210 210 283
Width: 800
VWidth: 0
Flags: W
HStem: -20 100<284.612 515.388> 725 95<291.489 508.511>
VStem: 70 120<175.654 624.08> 610 120<175.654 624.467>
AnchorPoint: "diac_top" 400 1030 basechar 0
LayerCount: 2
Fore
SplineSet
200 1060 m 1
 350 1060 l 1
 520 880 l 1
 450 880 l 1
 200 1060 l 1
610 520 m 2
 610 649 517 725 400 725 c 0
 283 725 190 649 190 520 c 2
 190 270 l 2
 190 150 279 80 400 80 c 0
 521 80 610 150 610 270 c 2
 610 520 l 2
730 520 m 2
 730 270 l 2
 730 88 587 -20 400 -20 c 0
 213 -20 70 88 70 270 c 2
 70 520 l 2
 70 706 213 820 400 820 c 0
 587 820 730 707 730 520 c 2
EndSplineSet
EndChar

StartChar: Oacute
Encoding: 211 211 284
Width: 800
VWidth: 0
Flags: W
HStem: -20 100<284.612 515.388> 725 95<291.489 508.511>
VStem: 70 120<175.654 624.08> 610 120<175.654 624.467>
AnchorPoint: "diac_top" 400 1030 basechar 0
LayerCount: 2
Fore
SplineSet
600 1060 m 1
 350 880 l 1
 280 880 l 1
 450 1060 l 1
 600 1060 l 1
610 520 m 2
 610 649 517 725 400 725 c 0
 283 725 190 649 190 520 c 2
 190 270 l 2
 190 150 279 80 400 80 c 0
 521 80 610 150 610 270 c 2
 610 520 l 2
730 520 m 2
 730 270 l 2
 730 88 587 -20 400 -20 c 0
 213 -20 70 88 70 270 c 2
 70 520 l 2
 70 706 213 820 400 820 c 0
 587 820 730 707 730 520 c 2
EndSplineSet
EndChar

StartChar: Ocircumflex
Encoding: 212 212 285
Width: 800
VWidth: 0
Flags: W
HStem: -20 100<284.612 515.388> 725 95<291.489 508.511>
VStem: 70 120<175.654 624.08> 610 120<175.654 624.467>
AnchorPoint: "diac_top" 400 1030 basechar 0
AnchorPoint: "hook_above" 400 1030 basechar 0
LayerCount: 2
Fore
SplineSet
300 880 m 1
 170 880 l 1
 355 1030 l 1
 445 1030 l 1
 630 880 l 1
 500 880 l 1
 400 980 l 1
 300 880 l 1
610 520 m 2
 610 649 517 725 400 725 c 0
 283 725 190 649 190 520 c 2
 190 270 l 2
 190 150 279 80 400 80 c 0
 521 80 610 150 610 270 c 2
 610 520 l 2
730 520 m 2
 730 270 l 2
 730 88 587 -20 400 -20 c 0
 213 -20 70 88 70 270 c 2
 70 520 l 2
 70 706 213 820 400 820 c 0
 587 820 730 707 730 520 c 2
EndSplineSet
EndChar

StartChar: Otilde
Encoding: 213 213 286
Width: 800
VWidth: 0
Flags: W
HStem: -20 100<284.612 515.388> 725 95<291.489 508.511> 880 70<430.801 540.123> 960 70<259.877 369.199>
VStem: 70 120<175.654 624.08> 190 50<902.48 939.559> 560 50<970.441 1007.52> 610 120<175.654 624.467>
AnchorPoint: "diac_top" 400 1030 basechar 0
LayerCount: 2
Fore
SplineSet
320 1030 m 0xf6
 359 1030 393 1011 417 989 c 0
 438 970 453 950 485 950 c 0
 532 950 549 979 560 1020 c 1
 610 1005 l 1
 600 943 556 880 480 880 c 0
 441 880 407 899 383 921 c 0
 362 940 347 960 315 960 c 0
 268 960 251 931 240 890 c 1
 190 905 l 1
 200 967 244 1030 320 1030 c 0xf6
610 520 m 2xf9
 610 649 517 725 400 725 c 0
 283 725 190 649 190 520 c 2
 190 270 l 2
 190 150 279 80 400 80 c 0
 521 80 610 150 610 270 c 2
 610 520 l 2xf9
730 520 m 2
 730 270 l 2
 730 88 587 -20 400 -20 c 0
 213 -20 70 88 70 270 c 2
 70 520 l 2
 70 706 213 820 400 820 c 0
 587 820 730 707 730 520 c 2
EndSplineSet
EndChar

StartChar: Ugrave
Encoding: 217 217 287
Width: 800
VWidth: 0
HStem: -20 100<293.38 506.62> 780 20G<80 200 600 720>
VStem: 80 120<172.438 800> 600 120<172.438 800>
LayerCount: 2
Fore
SplineSet
200 1060 m 1
 350 1060 l 1
 520 880 l 1
 450 880 l 1
 200 1060 l 1
80 800 m 1
 200 800 l 1
 200 280 l 2
 200 131 307 80 400 80 c 0
 493 80 600 131 600 280 c 2
 600 800 l 1
 720 800 l 1
 720 280 l 2
 720 85 583 -20 400 -20 c 0
 217 -20 80 85 80 280 c 2
 80 800 l 1
EndSplineSet
EndChar

StartChar: Uacute
Encoding: 218 218 288
Width: 800
VWidth: 0
HStem: -20 100<293.38 506.62> 780 20G<80 200 600 720>
VStem: 80 120<172.438 800> 600 120<172.438 800>
LayerCount: 2
Fore
SplineSet
600 1060 m 1
 350 880 l 1
 280 880 l 1
 450 1060 l 1
 600 1060 l 1
80 800 m 1
 200 800 l 1
 200 280 l 2
 200 131 307 80 400 80 c 0
 493 80 600 131 600 280 c 2
 600 800 l 1
 720 800 l 1
 720 280 l 2
 720 85 583 -20 400 -20 c 0
 217 -20 80 85 80 280 c 2
 80 800 l 1
EndSplineSet
EndChar

StartChar: Ucircumflex
Encoding: 219 219 289
Width: 800
VWidth: 0
HStem: -20 100<293.38 506.62> 780 20G<80 200 600 720>
VStem: 80 120<172.438 800> 600 120<172.438 800>
AnchorPoint: "hook_above" 823.615 1020 basechar 0
LayerCount: 2
Fore
SplineSet
300 880 m 1
 170 880 l 1
 355 1030 l 1
 445 1030 l 1
 630 880 l 1
 500 880 l 1
 400 980 l 1
 300 880 l 1
80 800 m 1
 200 800 l 1
 200 280 l 2
 200 131 307 80 400 80 c 0
 493 80 600 131 600 280 c 2
 600 800 l 1
 720 800 l 1
 720 280 l 2
 720 85 583 -20 400 -20 c 0
 217 -20 80 85 80 280 c 2
 80 800 l 1
EndSplineSet
EndChar

